<?xml version="1.0" encoding="UTF-8" standalone="no"?>
<!-- Created with Inkscape (http://www.inkscape.org/) -->

<svg
   width="300"
   height="175"
   viewBox="0 0 79.374999 46.302085"
   version="1.1"
   id="svg175949"
   sodipodi:docname="2112.svg"
   inkscape:version="1.1.1 (3bf5ae0, 2021-09-20)"
   xmlns:inkscape="http://www.inkscape.org/namespaces/inkscape"
   xmlns:sodipodi="http://sodipodi.sourceforge.net/DTD/sodipodi-0.dtd"
   xmlns:xlink="http://www.w3.org/1999/xlink"
   xmlns="http://www.w3.org/2000/svg"
   xmlns:svg="http://www.w3.org/2000/svg">
  <sodipodi:namedview
     id="namedview175951"
     pagecolor="#505050"
     bordercolor="#ffffff"
     borderopacity="1"
     inkscape:pageshadow="0"
     inkscape:pageopacity="0"
     inkscape:pagecheckerboard="1"
     inkscape:document-units="px"
     showgrid="false"
     units="px"
     inkscape:snap-global="false"
     inkscape:snap-bbox="true"
     inkscape:zoom="1.0633188"
     inkscape:cx="315.05134"
     inkscape:cy="-55.016428"
     inkscape:window-width="1920"
     inkscape:window-height="1016"
     inkscape:window-x="0"
     inkscape:window-y="27"
     inkscape:window-maximized="1"
     inkscape:current-layer="layer1"
     showguides="false" />
  <defs
     id="defs175946">
    <pattern
       inkscape:collect="always"
       xlink:href="#Strips1_1"
       id="pattern4985"
       patternTransform="matrix(37.795275,0,0,37.795275,-126.06812,-21.035133)" />
    <pattern
       inkscape:collect="always"
       patternUnits="userSpaceOnUse"
       width="2"
       height="1"
       patternTransform="translate(0,0) scale(10,10)"
       id="Strips1_1"
       inkscape:stockid="Stripes 1:1"
       inkscape:isstock="true">
      <rect
         style="fill:black;stroke:none"
         x="0"
         y="-0.5"
         width="1"
         height="2"
         id="rect3088" />
    </pattern>
    <linearGradient
       id="linearGradient4947"
       inkscape:swatch="solid">
      <stop
         style="stop-color:#ffffff;stop-opacity:1;"
         offset="0"
         id="stop4945" />
    </linearGradient>
    <linearGradient
       id="linearGradient4216"
       inkscape:swatch="solid">
      <stop
         style="stop-color:#ff0000;stop-opacity:1;"
         offset="0"
         id="stop4214" />
    </linearGradient>
    <pattern
       patternUnits="userSpaceOnUse"
       width="61.095859"
       height="131.41569"
       patternTransform="translate(126.06812,21.035133)"
       id="pattern4982">
      <path
         style="mix-blend-mode:multiply;fill:url(#pattern4985);fill-opacity:1;stroke:none;stroke-width:1.4886;stroke-linecap:butt;stroke-linejoin:round;stroke-miterlimit:4;stroke-dasharray:none;stroke-dashoffset:0;stroke-opacity:1"
         d="M 35.160881,130.90061 C 31.769141,130.22696 26.75788,128.52526 23.833248,127.05405 19.02129,124.63344 11.8462,118.91686 9.6345911,115.74163 4.9206207,108.9737 3.2930277,105.32332 2.5607404,99.876265 c -0.3792226,-2.820801 -0.364611,-3.772301 0.112252,-7.315 0.47184,-3.50539 1.1693518,-5.976162 5.0096012,-17.745433 L 12.144035,61.142805 12.538844,53.666412 C 13.229262,40.591931 12.361736,37.357963 5.1811322,26.238888 1.6001319,20.693735 0.71056345,18.60163 0.23498172,14.606404 -0.1271726,11.563945 -0.1063852,11.228138 0.54981636,9.5201242 0.98489667,8.3877437 1.8924482,7.0274918 2.9331675,5.9479302 4.3438686,4.4845765 5.2380784,3.9408877 8.4992475,2.5637148 11.722697,1.2024726 13.06438,0.83003797 16.374619,0.37760963 c 3.869038,-0.52880125 4.11408,-0.52414487 8.082731,0.15356221 5.842189,0.99765166 12.717849,3.86686866 18.61183,7.76672496 6.288359,4.1607982 7.863069,6.1268672 11.464471,14.3136912 2.035547,4.627295 3.084688,10.342292 2.754519,15.004777 -0.356258,5.030427 -1.510012,11.064559 -3.08347,16.126246 -3.90367,12.55776 -6.323381,22.201965 -6.596172,26.290186 -0.18017,2.7004 -0.08852,3.640135 0.659872,6.764583 1.602217,6.689159 2.536048,9.245121 5.112759,13.99397 7.136421,13.15235 7.7147,14.51271 7.7147,18.14844 0,2.03203 -0.159987,2.63324 -1.308499,4.91754 -2.779442,5.52802 -6.30122,7.16207 -16.14774,7.49226 -4.394612,0.14737 -5.869451,0.0693 -8.47875,-0.44898 z"
         id="path4643" />
    </pattern>
  </defs>
  <g
     inkscape:label="Layer 1"
     inkscape:groupmode="layer"
     id="layer1">
    <path
       style="fill:#ff0000;fill-opacity:1;stroke:none;stroke-width:0.655264px;stroke-linecap:butt;stroke-linejoin:miter;stroke-opacity:1"
       d="m 97.307544,-86.248173 -0.72375,2.319917 -0.787418,2.359048 -0.88293,2.768473 -0.27539,2.111823 0.28551,1.855248 0.49281,1.256221 0.75146,1.230846 0.876648,1.280292 1.3127,1.06087 1.40742,0.996705 1.345616,0.674113 1.61613,0.556149 1.59725,0.277107 2.63129,-0.03264 1.77358,-0.490209 0.87384,-0.764107 0.70639,-1.409044 0.0189,-1.285321 -0.41491,-1.1784 v 0 l -0.69077,-1.33559 -0.84866,-1.502013 -0.7626,-1.452999 -0.54792,-1.873085 -0.33493,-1.485253 0.0683,-1.531015 0.57796,-2.328586 0.72732,-2.618542 0.73847,-2.293358 0.38059,-2.067603 0.1684,-1.96786 -0.36548,-2.289267 -0.84648,-1.930525 -0.81044,-1.420792 -1.14938,-0.983221 -1.50685,-0.977319 -1.44426,-0.6867 -1.52169,-0.62948 -2.257366,-0.37543 -2.20184,0.3206 -2.011468,0.86492 -0.91488,1.01418 -0.32025,0.97114 0.21767,1.646523 0.47348,1.123108 0.75735,1.143257 0.7726,1.227327 0.675548,1.228145 0.35592,1.246009 0.21294,1.518323 z"
       id="path178809"
       sodipodi:nodetypes="cccccccccccccccccccccccccccccccccccccccccccccccccccc" />
    <path
       style="fill:#ff0000;fill-opacity:1;stroke:none;stroke-width:0.655264px;stroke-linecap:butt;stroke-linejoin:miter;stroke-opacity:1"
       d="m 121.73079,-85.797563 -0.72375,2.319917 -0.78742,2.359048 -0.88293,2.768473 -0.27539,2.111823 0.28551,1.855248 0.49281,1.256222 0.75146,1.230845 0.87665,1.280292 1.3127,1.06087 1.40742,0.996705 1.34562,0.674113 1.61613,0.556149 1.59725,0.277107 2.63129,-0.03264 1.77358,-0.490209 0.87384,-0.764107 0.70639,-1.409044 0.0189,-1.285321 -0.41491,-1.1784 v 0 l -0.69077,-1.33559 -0.84866,-1.502013 -0.7626,-1.452999 -0.54792,-1.873085 -0.33493,-1.485253 0.0683,-1.531015 0.57796,-2.328586 0.72732,-2.618542 0.73847,-2.293359 0.38059,-2.067602 0.1684,-1.967861 -0.36548,-2.289266 -0.84648,-1.930525 -0.81044,-1.420792 -1.14938,-0.983221 -1.50685,-0.977319 -1.44426,-0.6867 -1.52169,-0.62948 -2.25737,-0.37543 -2.20184,0.3206 -2.01147,0.86492 -0.91488,1.014176 -0.32025,0.971144 0.21767,1.646524 0.47348,1.123107 0.75735,1.143257 0.7726,1.227327 0.67555,1.228144 0.35592,1.24601 0.21294,1.518323 z"
       id="path178809-8"
       sodipodi:nodetypes="cccccccccccccccccccccccccccccccccccccccccccccccccccc" />
    <path
       style="fill:#ff0000;fill-opacity:1;stroke:none;stroke-width:0.655264px;stroke-linecap:butt;stroke-linejoin:miter;stroke-opacity:1"
       d="m 145.69991,-85.328127 -0.72375,2.319917 -0.78742,2.359048 -0.88293,2.768473 -0.27539,2.111822 0.28551,1.855248 0.49281,1.256222 0.75146,1.230845 0.87665,1.280292 1.3127,1.06087 1.40742,0.996705 1.34562,0.674114 1.61613,0.556148 1.59725,0.277107 2.63129,-0.03264 1.77358,-0.490209 0.87384,-0.764107 0.70639,-1.409044 0.0189,-1.285321 -0.41491,-1.1784 v 0 l -0.69077,-1.33559 -0.84866,-1.502013 -0.7626,-1.452999 -0.54792,-1.873084 -0.33493,-1.485253 0.0683,-1.531015 0.57796,-2.328586 0.72732,-2.618542 0.73847,-2.293359 0.38059,-2.067603 0.1684,-1.967861 -0.36548,-2.289266 -0.84648,-1.930525 -0.81044,-1.420791 -1.14938,-0.983221 -1.50685,-0.977321 -1.44426,-0.686694 -1.52169,-0.62948 -2.25737,-0.37543 -2.20184,0.32059 -2.01147,0.86493 -0.91488,1.014172 -0.32025,0.971143 0.21767,1.646524 0.47348,1.123106 0.75735,1.143258 0.7726,1.227327 0.67555,1.228144 0.35592,1.24601 0.21294,1.518323 z"
       id="path178809-8-2"
       sodipodi:nodetypes="cccccccccccccccccccccccccccccccccccccccccccccccccccc" />
    <path
       style="fill:none;fill-opacity:1;stroke:#ff0000;stroke-width:1.18454;stroke-linecap:butt;stroke-linejoin:miter;stroke-miterlimit:4;stroke-dasharray:none;stroke-opacity:1"
       sodipodi:type="inkscape:offset"
       inkscape:radius="0"
       inkscape:original="M 20.447266 3.2480469 L 18.246094 3.5703125 L 16.234375 4.4335938 L 15.318359 5.4492188 L 15 6.4199219 L 15.216797 8.0664062 L 15.689453 9.1894531 L 16.447266 10.332031 L 17.220703 11.560547 L 17.896484 12.787109 L 18.251953 14.033203 L 18.464844 15.552734 L 18.267578 19.410156 L 17.544922 21.730469 L 16.757812 24.089844 L 15.875 26.857422 L 15.599609 28.96875 L 15.884766 30.824219 L 16.376953 32.082031 L 17.128906 33.3125 L 18.005859 34.591797 L 19.318359 35.652344 L 20.724609 36.650391 L 22.070312 37.324219 L 23.6875 37.880859 L 25.285156 38.15625 L 27.916016 38.125 L 29.689453 37.634766 L 30.5625 36.871094 L 31.269531 35.460938 L 31.289062 34.175781 L 30.873047 32.998047 L 30.181641 31.662109 L 29.333984 30.160156 L 28.570312 28.707031 L 28.023438 26.833984 L 27.6875 25.347656 L 27.755859 23.818359 L 28.333984 21.488281 L 29.0625 18.871094 L 29.800781 16.576172 L 30.181641 14.509766 L 30.349609 12.541016 L 29.984375 10.251953 L 29.136719 8.3222656 L 28.326172 6.9003906 L 27.177734 5.9179688 L 25.669922 4.9414062 L 24.226562 4.2539062 L 22.705078 3.625 L 20.447266 3.2480469 z "
       xlink:href="#path178809-3"
       id="path8627"
       inkscape:href="#path178809-3"
       d="M 20.447266,3.2480469 18.246094,3.5703125 16.234375,4.4335938 15.318359,5.4492188 15,6.4199219 l 0.216797,1.6464843 0.472656,1.1230469 0.757813,1.1425779 0.773437,1.228516 0.675781,1.226562 0.355469,1.246094 0.212891,1.519531 -0.197266,3.857422 -0.722656,2.320313 -0.78711,2.359375 -0.882812,2.767578 -0.275391,2.111328 0.285157,1.855469 0.492187,1.257812 0.751953,1.230469 0.876953,1.279297 1.3125,1.060547 1.40625,0.998047 1.345703,0.673828 1.617188,0.55664 1.597656,0.275391 2.63086,-0.03125 1.773437,-0.490234 0.873047,-0.763672 0.707031,-1.410156 0.01953,-1.285157 -0.416015,-1.177734 -0.691406,-1.335938 -0.847657,-1.501953 -0.763672,-1.453125 -0.546874,-1.873047 -0.335938,-1.486328 0.06836,-1.529297 0.578125,-2.330078 0.728516,-2.617187 0.738281,-2.294922 0.38086,-2.066406 0.167968,-1.96875 L 29.984375,10.251953 29.136719,8.3222656 28.326172,6.9003906 27.177734,5.9179688 25.669922,4.9414062 24.226562,4.2539062 22.705078,3.625 Z"
       transform="translate(11.315674,-66.586849)" />
    <path
       style="fill:none;fill-opacity:1;stroke:#ff0000;stroke-width:1.18454;stroke-linecap:butt;stroke-linejoin:miter;stroke-miterlimit:4;stroke-dasharray:none;stroke-opacity:1"
       sodipodi:type="inkscape:offset"
       inkscape:radius="0"
       inkscape:original="M 20.447266 3.2480469 L 18.246094 3.5703125 L 16.234375 4.4335938 L 15.318359 5.4492188 L 15 6.4199219 L 15.216797 8.0664062 L 15.689453 9.1894531 L 16.447266 10.332031 L 17.220703 11.560547 L 17.896484 12.787109 L 18.251953 14.033203 L 18.464844 15.552734 L 18.267578 19.410156 L 17.544922 21.730469 L 16.757812 24.089844 L 15.875 26.857422 L 15.599609 28.96875 L 15.884766 30.824219 L 16.376953 32.082031 L 17.128906 33.3125 L 18.005859 34.591797 L 19.318359 35.652344 L 20.724609 36.650391 L 22.070312 37.324219 L 23.6875 37.880859 L 25.285156 38.15625 L 27.916016 38.125 L 29.689453 37.634766 L 30.5625 36.871094 L 31.269531 35.460938 L 31.289062 34.175781 L 30.873047 32.998047 L 30.181641 31.662109 L 29.333984 30.160156 L 28.570312 28.707031 L 28.023438 26.833984 L 27.6875 25.347656 L 27.755859 23.818359 L 28.333984 21.488281 L 29.0625 18.871094 L 29.800781 16.576172 L 30.181641 14.509766 L 30.349609 12.541016 L 29.984375 10.251953 L 29.136719 8.3222656 L 28.326172 6.9003906 L 27.177734 5.9179688 L 25.669922 4.9414062 L 24.226562 4.2539062 L 22.705078 3.625 L 20.447266 3.2480469 z "
       xlink:href="#path178809-3"
       id="path8627-1"
       inkscape:href="#path178809-3"
       transform="translate(35.783959,-65.778814)"
       d="M 20.447266,3.2480469 18.246094,3.5703125 16.234375,4.4335938 15.318359,5.4492188 15,6.4199219 l 0.216797,1.6464843 0.472656,1.1230469 0.757813,1.1425779 0.773437,1.228516 0.675781,1.226562 0.355469,1.246094 0.212891,1.519531 -0.197266,3.857422 -0.722656,2.320313 -0.78711,2.359375 -0.882812,2.767578 -0.275391,2.111328 0.285157,1.855469 0.492187,1.257812 0.751953,1.230469 0.876953,1.279297 1.3125,1.060547 1.40625,0.998047 1.345703,0.673828 1.617188,0.55664 1.597656,0.275391 2.63086,-0.03125 1.773437,-0.490234 0.873047,-0.763672 0.707031,-1.410156 0.01953,-1.285157 -0.416015,-1.177734 -0.691406,-1.335938 -0.847657,-1.501953 -0.763672,-1.453125 -0.546874,-1.873047 -0.335938,-1.486328 0.06836,-1.529297 0.578125,-2.330078 0.728516,-2.617187 0.738281,-2.294922 0.38086,-2.066406 0.167968,-1.96875 L 29.984375,10.251953 29.136719,8.3222656 28.326172,6.9003906 27.177734,5.9179688 25.669922,4.9414062 24.226562,4.2539062 22.705078,3.625 Z" />
    <path
       style="fill:none;fill-opacity:1;stroke:#ff0000;stroke-width:1.18454;stroke-linecap:butt;stroke-linejoin:miter;stroke-miterlimit:4;stroke-dasharray:none;stroke-opacity:1"
       sodipodi:type="inkscape:offset"
       inkscape:radius="0"
       inkscape:original="M 20.447266 3.2480469 L 18.246094 3.5703125 L 16.234375 4.4335938 L 15.318359 5.4492188 L 15 6.4199219 L 15.216797 8.0664062 L 15.689453 9.1894531 L 16.447266 10.332031 L 17.220703 11.560547 L 17.896484 12.787109 L 18.251953 14.033203 L 18.464844 15.552734 L 18.267578 19.410156 L 17.544922 21.730469 L 16.757812 24.089844 L 15.875 26.857422 L 15.599609 28.96875 L 15.884766 30.824219 L 16.376953 32.082031 L 17.128906 33.3125 L 18.005859 34.591797 L 19.318359 35.652344 L 20.724609 36.650391 L 22.070312 37.324219 L 23.6875 37.880859 L 25.285156 38.15625 L 27.916016 38.125 L 29.689453 37.634766 L 30.5625 36.871094 L 31.269531 35.460938 L 31.289062 34.175781 L 30.873047 32.998047 L 30.181641 31.662109 L 29.333984 30.160156 L 28.570312 28.707031 L 28.023438 26.833984 L 27.6875 25.347656 L 27.755859 23.818359 L 28.333984 21.488281 L 29.0625 18.871094 L 29.800781 16.576172 L 30.181641 14.509766 L 30.349609 12.541016 L 29.984375 10.251953 L 29.136719 8.3222656 L 28.326172 6.9003906 L 27.177734 5.9179688 L 25.669922 4.9414062 L 24.226562 4.2539062 L 22.705078 3.625 L 20.447266 3.2480469 z "
       xlink:href="#path178809-3"
       id="path8627-7"
       inkscape:href="#path178809-3"
       transform="translate(58.939484,-65.853559)"
       d="M 20.447266,3.2480469 18.246094,3.5703125 16.234375,4.4335938 15.318359,5.4492188 15,6.4199219 l 0.216797,1.6464843 0.472656,1.1230469 0.757813,1.1425779 0.773437,1.228516 0.675781,1.226562 0.355469,1.246094 0.212891,1.519531 -0.197266,3.857422 -0.722656,2.320313 -0.78711,2.359375 -0.882812,2.767578 -0.275391,2.111328 0.285157,1.855469 0.492187,1.257812 0.751953,1.230469 0.876953,1.279297 1.3125,1.060547 1.40625,0.998047 1.345703,0.673828 1.617188,0.55664 1.597656,0.275391 2.63086,-0.03125 1.773437,-0.490234 0.873047,-0.763672 0.707031,-1.410156 0.01953,-1.285157 -0.416015,-1.177734 -0.691406,-1.335938 -0.847657,-1.501953 -0.763672,-1.453125 -0.546874,-1.873047 -0.335938,-1.486328 0.06836,-1.529297 0.578125,-2.330078 0.728516,-2.617187 0.738281,-2.294922 0.38086,-2.066406 0.167968,-1.96875 L 29.984375,10.251953 29.136719,8.3222656 28.326172,6.9003906 27.177734,5.9179688 25.669922,4.9414062 24.226562,4.2539062 22.705078,3.625 Z" />
    <path
       style="fill:none;fill-opacity:1;stroke:none;stroke-width:0.336969;stroke-linecap:butt;stroke-linejoin:round;stroke-miterlimit:4;stroke-dasharray:none;stroke-dashoffset:0;stroke-opacity:1"
       d="m 19.31773,39.888988 c -0.58056,-0.126203 -1.78582,-0.577009 -2.31045,-0.864174 -0.47141,-0.258035 -1.33178,-0.90175 -2.15516,-1.612444 -0.49013,-0.423055 -0.71192,-0.688273 -1.09028,-1.303743 -0.92587,-1.506095 -1.21762,-2.231045 -1.38729,-3.447193 -0.10225,-0.732803 -0.10053,-0.861314 0.0241,-1.807071 0.11117,-0.843908 0.25781,-1.428301 0.85675,-3.414501 1.30414,-4.324811 1.17244,-3.728155 1.27462,-5.77477 0.15594,-3.123316 -0.0393,-3.898086 -1.67009,-6.626167 -0.6705,-1.121673 -0.87143,-1.642547 -0.98818,-2.56169 -0.0873,-0.687331 -0.0838,-0.758514 0.0569,-1.173116 0.0829,-0.244299 0.30063,-0.629424 0.4875,-0.862513 0.29732,-0.370853 0.43982,-0.4689177 1.1936,-0.8214377 0.7305,-0.341631 0.98752,-0.419901 1.75339,-0.533956 0.87922,-0.130936 0.9158,-0.130241 1.8037,0.0343 0.72755,0.13482 1.08307,0.251047 1.80261,0.589314 1.14401,0.5378197 1.40118,0.6824647 2.15412,1.2115667 0.98951,0.695355 1.4672,1.199089 1.87057,1.97256 0.98158,1.882186 1.3735,3.537793 1.23009,5.196284 -0.11025,1.274969 -0.33846,2.540921 -0.64442,3.574858 -0.34117,1.152936 -0.84033,3.078716 -1.18522,4.572607 -0.40057,1.735097 -0.35842,2.527482 0.25249,4.746112 0.17851,0.648324 0.5154,1.417507 1.18352,2.702232 1.02986,1.980289 1.20573,2.482286 1.19337,3.40634 -0.008,0.600628 -0.0329,0.707526 -0.29266,1.257093 -0.40849,0.864327 -0.77393,1.18106 -1.67394,1.450867 -0.64723,0.194022 -0.80197,0.209732 -1.98286,0.201277 -0.73401,-0.0052 -1.48404,-0.05334 -1.75679,-0.112632 z"
       id="path4487" />
    <rect
       style="fill:none;stroke:none;stroke-width:0.226366"
       width="13.248902"
       height="31.052963"
       x="12.333778"
       y="9.3364897"
       id="rect4987" />
    <path
       id="path8648"
       style="mix-blend-mode:color-dodge;fill:none;stroke:#ff0000;stroke-width:1.2483"
       d="m 14.52477,6.1772773 -2.35938,0.0332 -1.58984,0.478516 -0.7831997,0.746093 -0.63477,1.376953 -0.0156,1.2539057 0.3711,1.152344 0.6191397,1.304687 0.76172,1.466797 0.683591,1.419922 0.490229,1.830078 0.30078,1.451172 -0.0625,1.49414 -0.517569,2.275391 -0.65235,2.558594 -0.662111,2.240235 -0.34179,2.019531 -0.1503897,1.921875 0.3281197,2.236329 0.757811,1.886718 0.72657,1.386719 1.031249,0.960937 1.34961,0.955079 1.29492,0.669921 1.36328,0.615235 2.02539,0.367187 1.97266,-0.3125 1.80468,-0.845703 0.82032,-0.990234 0.2871,-0.949219 -0.19531,-1.607422 -0.42578,-1.097656 -0.67773,-1.117188 -0.69336,-1.199218 -0.60547,-1.199219 -0.31836,-1.216797 -0.19141,-1.482422 0.17578,-3.769532 0.65039,-2.265625 0.70508,-2.304688 0.79297,-2.705078 0.2461,-2.0625 -0.25586,-1.8125 -0.44141,-1.226562 -0.67383,-1.203125 -0.78515,-1.2499997 -1.17773,-1.037109 -1.26172,-0.972656 -1.20508,-0.660156 -1.44922,-0.542969 z" />
    <path
       style="fill:#ff0000;fill-opacity:1;stroke:#ff0000;stroke-width:0.0167687;stroke-opacity:1"
       d="m 9.9529103,7.8400413 0.0436,-0.109878 4.0422397,0.0017 4.04224,0.0017 0.18391,0.122251 0.18391,0.122249 h -4.27052 c -2.348789,0 -4.2702197,-0.0058 -4.2698297,-0.01375 0,-0.0078 0.0203,-0.06378 0.0444,-0.124218 z"
       id="path7172" />
    <path
       style="fill:#ff0000;fill-opacity:1;stroke:#ff0000;stroke-width:0.016749;stroke-opacity:1"
       d="m 9.4475103,9.9021973 0.005,-0.119124 h 5.6260697 5.62607 l 0.065,0.06558 c 0.0357,0.03606 0.0769,0.09182 0.0916,0.123915 l 0.0266,0.05834 h -5.72569 c -3.14912,0 -5.7243997,-0.0027 -5.7228497,-0.0053 10e-4,-0.0025 0.005,-0.05837 0.008,-0.1238967 z"
       id="path7211" />
    <path
       style="fill:#ff0000;fill-opacity:1;stroke:#ff0000;stroke-width:0.0167495;stroke-opacity:1"
       d="m 16.07247,11.836622 h 5.9256 l 0.0551,0.11429 c 0.0304,0.06284 0.0551,0.118604 0.0551,0.123903 0,0.0052 -2.66848,0.0094 -5.92995,0.0092 h -5.92997 l -0.0508,-0.123903 -0.0508,-0.123921 z"
       id="path7250" />
    <path
       style="fill:#ff0000;fill-opacity:1;stroke:#ff0000;stroke-width:0.0167476;stroke-opacity:1"
       d="m 16.95586,13.889665 h 5.76723 l 0.01,0.09054 c 0.005,0.04979 0.0132,0.105531 0.0174,0.123876 0.007,0.03174 -0.27265,0.03332 -5.72992,0.03282 h -5.737439 l -0.0471,-0.123876 -0.0472,-0.123894 z"
       id="path7289" />
    <path
       style="fill:#ff0000;fill-opacity:1;stroke:#ff0000;stroke-width:0.0167507;stroke-opacity:1"
       d="m 17.42069,15.942585 h 5.37918 v 0.05242 c 0,0.02883 -0.005,0.0846 -0.009,0.123936 l -0.009,0.07148 h -5.3459 -5.34588 l -0.024,-0.110881 c -0.0132,-0.06098 -0.024,-0.116753 -0.024,-0.123936 0,-0.0071 2.42063,-0.01286 5.37918,-0.01253 z"
       id="path7328" />
    <path
       style="fill:#ff0000;fill-opacity:1;stroke:#ff0000;stroke-width:0.0167505;stroke-opacity:1"
       d="m 17.47895,17.995547 h 4.93708 l -0.0133,0.04529 c -0.007,0.0249 -0.0206,0.08065 -0.0297,0.123921 l -0.0163,0.07862 h -4.8902 -4.8902 l -0.0172,-0.09677 c -0.009,-0.05323 -0.0172,-0.108993 -0.0172,-0.123922 0,-0.02343 0.67597,-0.02709 4.93709,-0.02669 z"
       id="path7367" />
    <path
       style="fill:#ff0000;fill-opacity:1;stroke:#ff0000;stroke-width:0.0235857;stroke-opacity:1"
       d="m 12.6166,20.130751 0.008,-0.08687 h 4.5877 c 2.52323,0 4.5877,0.008 4.5877,0.01737 0,0.0093 -0.0109,0.06345 -0.0241,0.120281 l -0.0241,0.103347 h -4.57532 c -3.64816,0 -4.57464,-0.0073 -4.57198,-0.03384 0.002,-0.01837 0.007,-0.0725 0.0118,-0.12028 z"
       id="path7673" />
    <path
       style="fill:#ff0000;fill-opacity:1;stroke:#ff0000;stroke-width:0.0224504;stroke-opacity:1"
       d="m 12.16794,22.175482 0.0207,-0.0908 h 4.49603 4.49606 l -0.0128,0.05945 c -0.007,0.0327 -0.0219,0.0872 -0.033,0.121069 l -0.0201,0.06161 h -4.48597 c -3.57604,0 -4.48554,-0.0066 -4.48382,-0.03066 10e-4,-0.01663 0.0115,-0.07111 0.0229,-0.121072 z"
       id="path7712" />
    <path
       style="fill:#ff0000;fill-opacity:1;stroke:#ff0000;stroke-width:0.0238915;stroke-opacity:1"
       d="m 11.650181,24.252296 0.0219,-0.102848 h 4.458809 4.45882 l -0.0256,0.116573 -0.0256,0.116573 -4.45769,0.0065 c -2.45173,0.0036 -4.456509,-0.0028 -4.455059,-0.01412 10e-4,-0.01137 0.0124,-0.06691 0.0245,-0.123495 z"
       id="path7751" />
    <path
       style="fill:#ff0000;fill-opacity:1;stroke:#ff0000;stroke-width:0.0236063;stroke-opacity:1"
       d="m 11.086721,26.277677 0.0217,-0.08702 h 4.658849 4.65884 v 0.120489 l -10e-6,0.120488 h -4.68267 c -3.7334,0 -4.682249,-0.0073 -4.680539,-0.0339 0.002,-0.0184 0.0119,-0.07262 0.0238,-0.120488 z"
       id="path7790" />
    <path
       style="fill:#ff0000;fill-opacity:1;stroke:#ff0000;stroke-width:0.0242568;stroke-opacity:1"
       d="m 10.60046,28.35118 0.0134,-0.0848 h 4.85904 4.85905 l 0.006,0.120163 0.006,0.120163 h -4.88124 c -3.892449,0 -4.88077,-0.0077 -4.8788,-0.03582 0.001,-0.01943 0.008,-0.07351 0.0158,-0.120164 z"
       id="path7829" />
    <path
       style="fill:#ff0000;fill-opacity:1;stroke:#ff0000;stroke-width:0.0236054;stroke-opacity:1"
       d="m 15.50176,30.296556 h 5.149 l 0.0228,0.08432 c 0.0126,0.04639 0.0228,0.100591 0.0228,0.120497 0,0.03026 -0.84245,0.03608 -5.17184,0.03567 h -5.17185 v -0.120478 l 10e-6,-0.120479 z"
       id="path7868" />
    <path
       style="fill:#ff0000;fill-opacity:1;stroke:#ff0000;stroke-width:0.0236279;stroke-opacity:1"
       d="m 15.97745,32.360629 h 5.52518 l 0.0548,0.106716 c 0.0301,0.0587 0.0548,0.113032 0.0548,0.120724 0,0.0077 -2.5053,0.01381 -5.56735,0.01348 h -5.56736 v -0.07827 c 10e-6,-0.04306 -0.006,-0.09739 -0.0127,-0.120722 -0.0115,-0.03862 0.48286,-0.04237 5.51257,-0.04191 z"
       id="path7907" />
    <path
       style="fill:#ff0000;fill-opacity:1;stroke:#ff0000;stroke-width:0.0236283;stroke-opacity:1"
       d="m 16.8724,34.4021 h 5.83744 l 0.0548,0.10672 c 0.0302,0.05871 0.0548,0.113036 0.0548,0.120711 0,0.0077 -2.63554,0.01381 -5.85674,0.01347 h -5.856749 l -0.0207,-0.07376 c -0.0114,-0.04057 -0.0274,-0.09492 -0.0355,-0.120709 -0.014,-0.04466 0.27145,-0.04693 5.822659,-0.04642 z"
       id="path7946" />
    <path
       style="fill:#ff0000;fill-opacity:1;stroke:#ff0000;stroke-width:0.0235816;stroke-opacity:1"
       d="m 17.67643,36.443537 c 5.1409,0 5.65997,0.0044 5.67145,0.04278 0.007,0.02326 0.0127,0.07737 0.0127,0.120249 v 0.07797 h -5.58086 -5.58084 l -0.0906,-0.09533 c -0.0498,-0.05241 -0.0906,-0.106523 -0.0906,-0.120232 0,-0.01543 2.17084,-0.02474 5.65881,-0.02442 z"
       id="path7985" />
    <path
       style="fill:#ff0000;fill-opacity:1;stroke:none;stroke-width:0.0217292;stroke-opacity:1"
       d="m 18.6933,38.508392 c 2.21249,-0.0014 4.0227,0.0037 4.0227,0.01001 0,0.0062 -0.0339,0.05213 -0.0753,0.102069 l -0.0753,0.09078 h -3.76147 -3.76148 l -0.18593,-0.10046 -0.18594,-0.10046 z"
       id="path8024" />
    <path
       style="fill:none;fill-opacity:1;stroke:none;stroke-width:0.336969;stroke-linecap:butt;stroke-linejoin:round;stroke-miterlimit:4;stroke-dasharray:none;stroke-dashoffset:0;stroke-opacity:1"
       d="M 42.71474,40.012514 C 42.13418,39.886311 40.92892,39.435505 40.40429,39.14834 39.93288,38.890305 39.07251,38.24659 38.24913,37.535896 37.759,37.112841 37.53721,36.847623 37.15885,36.232153 36.23298,34.726058 35.94123,34.001108 35.77156,32.78496 c -0.10225,-0.732803 -0.10053,-0.861314 0.0241,-1.807071 0.11117,-0.843908 0.25781,-1.428301 0.85675,-3.414501 1.30414,-4.324811 1.17244,-3.728155 1.27462,-5.77477 0.15594,-3.123316 -0.0393,-3.898086 -1.67009,-6.626167 -0.6705,-1.121673 -0.87143,-1.642547 -0.98818,-2.56169 -0.0873,-0.687331 -0.0838,-0.758514 0.0569,-1.173117 0.0829,-0.244299 0.30063,-0.629424 0.4875,-0.862513 0.29732,-0.370852 0.43982,-0.468917 1.1936,-0.8214367 0.7305,-0.341631 0.98752,-0.419901 1.75339,-0.533956 0.87922,-0.130936 0.9158,-0.130241 1.8037,0.0343 0.72755,0.13482 1.08307,0.251047 1.80261,0.589314 1.14401,0.5378187 1.40118,0.6824637 2.15412,1.2115657 0.98951,0.695356 1.4672,1.19909 1.87057,1.972561 0.98158,1.882186 1.3735,3.537793 1.23009,5.196284 -0.11025,1.274969 -0.33846,2.540921 -0.64442,3.574858 -0.34117,1.152936 -0.84033,3.078716 -1.18522,4.572607 -0.40057,1.735097 -0.35842,2.527482 0.25249,4.746112 0.17851,0.648324 0.5154,1.417507 1.18352,2.702232 1.02986,1.980289 1.20573,2.482286 1.19337,3.40634 -0.008,0.600628 -0.0329,0.707526 -0.29266,1.257093 -0.40849,0.864327 -0.77393,1.18106 -1.67394,1.450867 -0.64723,0.194022 -0.80197,0.209732 -1.98286,0.201277 -0.73401,-0.0052 -1.48404,-0.05334 -1.75679,-0.112632 z"
       id="path4487-6" />
    <rect
       style="fill:none;stroke:none;stroke-width:0.226366"
       width="13.248902"
       height="31.052963"
       x="35.730766"
       y="9.4600134"
       id="rect4987-7" />
    <path
       id="path8648-5"
       style="mix-blend-mode:color-dodge;fill:none;stroke:#ff0000;stroke-width:1.2483"
       d="m 37.92178,6.3008023 -2.35938,0.0332 -1.58984,0.478516 -0.7832,0.746094 -0.63477,1.376953 -0.0156,1.2539057 0.3711,1.152343 0.61914,1.304688 0.76172,1.466797 0.68359,1.419922 0.49023,1.830078 0.30078,1.451172 -0.0625,1.49414 -0.51757,2.275391 -0.65235,2.558594 -0.66211,2.240235 -0.34179,2.019531 -0.15039,1.921875 0.32812,2.236329 0.75781,1.886718 0.72657,1.386719 1.03125,0.960937 1.34961,0.955079 1.29492,0.669921 1.36328,0.615235 2.02539,0.367187 1.97266,-0.3125 1.80468,-0.845703 0.82032,-0.990234 0.2871,-0.949219 -0.19531,-1.607422 -0.42578,-1.097656 -0.67773,-1.117188 -0.69336,-1.199218 -0.60547,-1.199219 -0.31836,-1.216797 -0.19141,-1.482422 0.17578,-3.769532 0.65039,-2.265625 0.70508,-2.304688 0.79297,-2.705078 0.2461,-2.0625 -0.25586,-1.8125 -0.44141,-1.226562 -0.67383,-1.203126 -0.78515,-1.2499987 -1.17773,-1.037109 -1.26172,-0.972656 -1.20508,-0.660156 -1.44922,-0.542969 z" />
    <path
       style="fill:#ff0000;fill-opacity:1;stroke:#ff0000;stroke-width:0.0167687;stroke-opacity:1"
       d="m 33.34992,7.9635673 0.0436,-0.109878 4.04224,0.0017 4.04224,0.0017 0.18391,0.122251 0.18391,0.122249 H 37.5753 c -2.34879,0 -4.27022,-0.0058 -4.26983,-0.01375 0,-0.0078 0.0203,-0.06378 0.0444,-0.124218 z"
       id="path7172-3" />
    <path
       style="fill:#ff0000;fill-opacity:1;stroke:#ff0000;stroke-width:0.016749;stroke-opacity:1"
       d="m 32.84452,10.025723 0.005,-0.1191237 h 5.62607 5.62607 l 0.065,0.06558 c 0.0357,0.03606 0.0769,0.09182 0.0916,0.1239147 l 0.0266,0.05834 h -5.72569 c -3.14912,0 -5.7244,-0.0027 -5.72285,-0.0053 10e-4,-0.0025 0.005,-0.05837 0.008,-0.123897 z"
       id="path7211-5" />
    <path
       style="fill:#ff0000;fill-opacity:1;stroke:#ff0000;stroke-width:0.0167495;stroke-opacity:1"
       d="m 39.46948,11.960148 h 5.9256 l 0.0551,0.11429 c 0.0304,0.06284 0.0551,0.118604 0.0551,0.123903 0,0.0052 -2.66848,0.0094 -5.92995,0.0092 h -5.92997 l -0.0508,-0.123903 -0.0508,-0.123921 z"
       id="path7250-6" />
    <path
       style="fill:#ff0000;fill-opacity:1;stroke:#ff0000;stroke-width:0.0167476;stroke-opacity:1"
       d="m 40.35287,14.013191 h 5.76723 l 0.01,0.09054 c 0.005,0.04979 0.0132,0.105531 0.0174,0.123876 0.007,0.03174 -0.27265,0.03332 -5.72992,0.03282 h -5.73744 l -0.0471,-0.123876 -0.0472,-0.123894 z"
       id="path7289-2" />
    <path
       style="fill:#ff0000;fill-opacity:1;stroke:#ff0000;stroke-width:0.0167507;stroke-opacity:1"
       d="m 40.8177,16.066111 h 5.37918 v 0.05242 c 0,0.02883 -0.005,0.0846 -0.009,0.123936 l -0.009,0.07148 h -5.3459 -5.34588 l -0.024,-0.110881 c -0.0132,-0.06098 -0.024,-0.116753 -0.024,-0.123936 0,-0.0071 2.42063,-0.01286 5.37918,-0.01253 z"
       id="path7328-9" />
    <path
       style="fill:#ff0000;fill-opacity:1;stroke:#ff0000;stroke-width:0.0167505;stroke-opacity:1"
       d="m 40.87596,18.119073 h 4.93708 l -0.0133,0.04529 c -0.007,0.0249 -0.0206,0.08065 -0.0297,0.123921 l -0.0163,0.07862 h -4.8902 -4.8902 l -0.0172,-0.09677 c -0.009,-0.05323 -0.0172,-0.108993 -0.0172,-0.123922 0,-0.02343 0.67597,-0.02709 4.93709,-0.02669 z"
       id="path7367-1" />
    <path
       style="fill:#ff0000;fill-opacity:1;stroke:#ff0000;stroke-width:0.0235857;stroke-opacity:1"
       d="m 36.01361,20.254277 0.008,-0.08687 h 4.5877 c 2.52323,0 4.5877,0.008 4.5877,0.01737 0,0.0093 -0.0109,0.06345 -0.0241,0.120281 l -0.0241,0.103347 h -4.57532 c -3.64816,0 -4.57464,-0.0073 -4.57198,-0.03384 0.002,-0.01837 0.007,-0.0725 0.0118,-0.12028 z"
       id="path7673-2" />
    <path
       style="fill:#ff0000;fill-opacity:1;stroke:#ff0000;stroke-width:0.0224504;stroke-opacity:1"
       d="m 35.56495,22.299008 0.0207,-0.0908 h 4.49603 4.49606 l -0.0128,0.05945 c -0.007,0.0327 -0.0219,0.0872 -0.033,0.121069 l -0.0201,0.06161 h -4.48597 c -3.57604,0 -4.48554,-0.0066 -4.48382,-0.03066 10e-4,-0.01663 0.0115,-0.07111 0.0229,-0.121072 z"
       id="path7712-7" />
    <path
       style="fill:#ff0000;fill-opacity:1;stroke:#ff0000;stroke-width:0.0238915;stroke-opacity:1"
       d="m 35.04719,24.375822 0.0219,-0.102848 h 4.45881 4.45882 l -0.0256,0.116573 -0.0256,0.116573 -4.45769,0.0065 c -2.45173,0.0036 -4.45651,-0.0028 -4.45506,-0.01412 10e-4,-0.01137 0.0124,-0.06691 0.0245,-0.123495 z"
       id="path7751-0" />
    <path
       style="fill:#ff0000;fill-opacity:1;stroke:#ff0000;stroke-width:0.0236063;stroke-opacity:1"
       d="m 34.48373,26.401203 0.0217,-0.08702 h 4.65885 4.65884 v 0.120489 l -1e-5,0.120488 h -4.68267 c -3.7334,0 -4.68225,-0.0073 -4.68054,-0.0339 0.002,-0.0184 0.0119,-0.07262 0.0238,-0.120488 z"
       id="path7790-9" />
    <path
       style="fill:#ff0000;fill-opacity:1;stroke:#ff0000;stroke-width:0.0242568;stroke-opacity:1"
       d="m 33.99747,28.474706 0.0134,-0.0848 h 4.85904 4.85905 l 0.006,0.120163 0.006,0.120163 h -4.88124 c -3.89245,0 -4.88077,-0.0077 -4.8788,-0.03582 0.001,-0.01943 0.008,-0.07351 0.0158,-0.120164 z"
       id="path7829-3" />
    <path
       style="fill:#ff0000;fill-opacity:1;stroke:#ff0000;stroke-width:0.0236054;stroke-opacity:1"
       d="m 38.89877,30.420082 h 5.149 l 0.0228,0.08432 c 0.0126,0.04639 0.0228,0.100591 0.0228,0.120497 0,0.03026 -0.84245,0.03608 -5.17184,0.03567 h -5.17185 v -0.120478 l 1e-5,-0.120479 z"
       id="path7868-6" />
    <path
       style="fill:#ff0000;fill-opacity:1;stroke:#ff0000;stroke-width:0.0236279;stroke-opacity:1"
       d="m 39.37446,32.484155 h 5.52518 l 0.0548,0.106716 c 0.0301,0.0587 0.0548,0.113032 0.0548,0.120724 0,0.0077 -2.5053,0.01381 -5.56735,0.01348 h -5.56736 v -0.07827 c 1e-5,-0.04306 -0.006,-0.09739 -0.0127,-0.120722 -0.0115,-0.03862 0.48286,-0.04237 5.51257,-0.04191 z"
       id="path7907-0" />
    <path
       style="fill:#ff0000;fill-opacity:1;stroke:#ff0000;stroke-width:0.0236283;stroke-opacity:1"
       d="m 40.26941,34.525626 h 5.83744 l 0.0548,0.10672 c 0.0302,0.05871 0.0548,0.113036 0.0548,0.120711 0,0.0077 -2.63554,0.01381 -5.85674,0.01347 h -5.85675 l -0.0207,-0.07376 c -0.0114,-0.04057 -0.0274,-0.09492 -0.0355,-0.120709 -0.014,-0.04466 0.27145,-0.04693 5.82266,-0.04642 z"
       id="path7946-6" />
    <path
       style="fill:#ff0000;fill-opacity:1;stroke:#ff0000;stroke-width:0.0235816;stroke-opacity:1"
       d="m 41.07344,36.567063 c 5.1409,0 5.65997,0.0044 5.67145,0.04278 0.007,0.02326 0.0127,0.07737 0.0127,0.120249 v 0.07797 h -5.58086 -5.58084 l -0.0906,-0.09533 c -0.0498,-0.05241 -0.0906,-0.106523 -0.0906,-0.120232 0,-0.01543 2.17084,-0.02474 5.65881,-0.02442 z"
       id="path7985-2" />
    <path
       style="fill:#ff0000;fill-opacity:1;stroke:none;stroke-width:0.0217292;stroke-opacity:1"
       d="m 42.09031,38.631918 c 2.21249,-0.0014 4.0227,0.0037 4.0227,0.01001 0,0.0062 -0.0339,0.05213 -0.0753,0.102069 l -0.0753,0.09078 h -3.76147 -3.76148 l -0.18593,-0.10046 -0.18594,-0.10046 z"
       id="path8024-6" />
    <rect
       style="opacity:0;fill:#f30000;fill-opacity:1;stroke:#ff0000;stroke-width:1.24755;stroke-miterlimit:4;stroke-dasharray:none;stroke-opacity:1"
       id="rect4051"
       width="78.127449"
       height="45.054535"
       x="0.89990622"
       y="0.84892899" />
    <path
       style="fill:none;fill-opacity:1;stroke:none;stroke-width:0.336969;stroke-linecap:butt;stroke-linejoin:round;stroke-miterlimit:4;stroke-dasharray:none;stroke-dashoffset:0;stroke-opacity:1"
       d="m 65.14571,40.177195 c -0.58056,-0.126203 -1.78582,-0.577009 -2.31045,-0.864174 -0.47141,-0.258035 -1.33178,-0.90175 -2.15516,-1.612444 -0.49013,-0.423055 -0.71192,-0.688273 -1.09028,-1.303743 -0.92587,-1.506095 -1.21762,-2.231045 -1.38729,-3.447193 -0.10225,-0.732803 -0.10053,-0.861314 0.0241,-1.807071 0.11117,-0.843908 0.25781,-1.428301 0.85675,-3.414501 1.30414,-4.324811 1.17244,-3.728155 1.27462,-5.77477 0.15594,-3.123316 -0.0393,-3.898086 -1.67009,-6.626167 -0.6705,-1.121673 -0.87143,-1.642547 -0.98818,-2.56169 -0.0873,-0.687331 -0.0838,-0.758514 0.0569,-1.173116 0.0829,-0.244299 0.30063,-0.629424 0.4875,-0.862513 0.29732,-0.370853 0.43982,-0.468918 1.1936,-0.8214377 0.7305,-0.341631 0.98752,-0.419901 1.75339,-0.533956 0.87922,-0.130936 0.9158,-0.130241 1.8037,0.0343 0.72755,0.13482 1.08307,0.251047 1.80261,0.589314 1.14401,0.5378197 1.40118,0.6824647 2.15412,1.2115667 0.98951,0.695355 1.4672,1.199089 1.87057,1.97256 0.98158,1.882186 1.3735,3.537793 1.23009,5.196284 -0.11025,1.274969 -0.33846,2.540921 -0.64442,3.574858 -0.34117,1.152936 -0.84033,3.078716 -1.18522,4.572607 -0.40057,1.735097 -0.35842,2.527482 0.25249,4.746112 0.17851,0.648324 0.5154,1.417507 1.18352,2.702232 1.02986,1.980289 1.20573,2.482286 1.19337,3.40634 -0.008,0.600628 -0.0329,0.707526 -0.29266,1.257093 -0.40849,0.864327 -0.77393,1.18106 -1.67394,1.450867 -0.64723,0.194022 -0.80197,0.209732 -1.98286,0.201277 -0.73401,-0.0052 -1.48404,-0.05334 -1.75679,-0.112632 z"
       id="path4487-4" />
    <rect
       style="fill:none;stroke:none;stroke-width:0.226366"
       width="13.248902"
       height="31.052963"
       x="58.161751"
       y="9.6246939"
       id="rect4987-78" />
    <path
       id="path8648-4"
       style="mix-blend-mode:color-dodge;fill:none;stroke:#ff0000;stroke-width:1.2483"
       d="m 60.35275,6.4654843 -2.35938,0.0332 -1.58984,0.478516 -0.7832,0.746093 -0.63477,1.376953 -0.0156,1.2539057 0.3711,1.152344 0.61914,1.304687 0.76172,1.466797 0.68359,1.419922 0.49023,1.830078 0.30078,1.451172 -0.0625,1.49414 -0.51757,2.275391 -0.65235,2.558594 -0.66211,2.240235 -0.34179,2.019531 -0.15039,1.921875 0.32812,2.236329 0.75781,1.886718 0.72657,1.386719 1.03125,0.960937 1.34961,0.955079 1.29492,0.669921 1.36328,0.615235 2.02539,0.367187 1.97266,-0.3125 1.80468,-0.845703 0.82032,-0.990234 0.2871,-0.949219 -0.19531,-1.607422 -0.42578,-1.097656 -0.67773,-1.117188 -0.69336,-1.199218 -0.60547,-1.199219 -0.31836,-1.216797 -0.19141,-1.482422 0.17578,-3.769532 0.65039,-2.265625 0.70508,-2.304688 0.79297,-2.705078 0.2461,-2.0625 -0.25586,-1.8125 -0.44141,-1.226562 -0.67383,-1.203125 -0.78515,-1.2499997 -1.17773,-1.037109 -1.26172,-0.972656 -1.20508,-0.660156 -1.44922,-0.542969 z" />
    <path
       style="fill:#ff0000;fill-opacity:1;stroke:#ff0000;stroke-width:0.0167687;stroke-opacity:1"
       d="m 55.78089,8.1282483 0.0436,-0.109878 4.04224,0.0017 4.04224,0.0017 0.18391,0.122251 0.18391,0.122249 h -4.27052 c -2.34879,0 -4.27022,-0.0058 -4.26983,-0.01375 0,-0.0078 0.0203,-0.06378 0.0444,-0.124218 z"
       id="path7172-5" />
    <path
       style="fill:#ff0000;fill-opacity:1;stroke:#ff0000;stroke-width:0.016749;stroke-opacity:1"
       d="m 55.27549,10.190404 0.005,-0.119124 h 5.62607 5.62607 l 0.065,0.06558 c 0.0357,0.03606 0.0769,0.09182 0.0916,0.123915 l 0.0266,0.05834 h -5.72569 c -3.14912,0 -5.7244,-0.0027 -5.72285,-0.0053 10e-4,-0.0025 0.005,-0.05837 0.008,-0.123897 z"
       id="path7211-0" />
    <path
       style="fill:#ff0000;fill-opacity:1;stroke:#ff0000;stroke-width:0.0167495;stroke-opacity:1"
       d="m 61.90045,12.124829 h 5.9256 l 0.0551,0.11429 c 0.0304,0.06284 0.0551,0.118604 0.0551,0.123903 0,0.0052 -2.66848,0.0094 -5.92995,0.0092 h -5.92997 l -0.0508,-0.123903 -0.0508,-0.123921 z"
       id="path7250-3" />
    <path
       style="fill:#ff0000;fill-opacity:1;stroke:#ff0000;stroke-width:0.0167476;stroke-opacity:1"
       d="m 62.78384,14.177872 h 5.76723 l 0.01,0.09054 c 0.005,0.04979 0.0132,0.105531 0.0174,0.123876 0.007,0.03174 -0.27265,0.03332 -5.72992,0.03282 h -5.73744 l -0.0471,-0.123876 -0.0472,-0.123894 z"
       id="path7289-6" />
    <path
       style="fill:#ff0000;fill-opacity:1;stroke:#ff0000;stroke-width:0.0167507;stroke-opacity:1"
       d="m 63.24867,16.230792 h 5.37918 v 0.05242 c 0,0.02883 -0.005,0.0846 -0.009,0.123936 l -0.009,0.07148 h -5.3459 -5.34588 l -0.024,-0.110881 c -0.0132,-0.06098 -0.024,-0.116753 -0.024,-0.123936 0,-0.0071 2.42063,-0.01286 5.37918,-0.01253 z"
       id="path7328-1" />
    <path
       style="fill:#ff0000;fill-opacity:1;stroke:#ff0000;stroke-width:0.0167505;stroke-opacity:1"
       d="m 63.30693,18.283754 h 4.93708 l -0.0133,0.04529 c -0.007,0.0249 -0.0206,0.08065 -0.0297,0.123921 l -0.0163,0.07862 h -4.8902 -4.8902 l -0.0172,-0.09677 c -0.009,-0.05323 -0.0172,-0.108993 -0.0172,-0.123922 0,-0.02343 0.67597,-0.02709 4.93709,-0.02669 z"
       id="path7367-0" />
    <path
       style="fill:#ff0000;fill-opacity:1;stroke:#ff0000;stroke-width:0.0235857;stroke-opacity:1"
       d="m 58.44458,20.418958 0.008,-0.08687 h 4.5877 c 2.52323,0 4.5877,0.008 4.5877,0.01737 0,0.0093 -0.0109,0.06345 -0.0241,0.120281 l -0.0241,0.103347 h -4.57532 c -3.64816,0 -4.57464,-0.0073 -4.57198,-0.03384 0.002,-0.01837 0.007,-0.0725 0.0118,-0.12028 z"
       id="path7673-6" />
    <path
       style="fill:#ff0000;fill-opacity:1;stroke:#ff0000;stroke-width:0.0224504;stroke-opacity:1"
       d="m 57.99592,22.463689 0.0207,-0.0908 h 4.49603 4.49606 l -0.0128,0.05945 c -0.007,0.0327 -0.0219,0.0872 -0.033,0.121069 l -0.0201,0.06161 h -4.48597 c -3.57604,0 -4.48554,-0.0066 -4.48382,-0.03066 0.001,-0.01663 0.0115,-0.07111 0.0229,-0.121072 z"
       id="path7712-3" />
    <path
       style="fill:#ff0000;fill-opacity:1;stroke:#ff0000;stroke-width:0.0238915;stroke-opacity:1"
       d="m 57.47816,24.540503 0.0219,-0.102848 h 4.45881 4.45882 l -0.0256,0.116573 -0.0256,0.116573 -4.45769,0.0065 c -2.45173,0.0036 -4.45651,-0.0028 -4.45506,-0.01412 10e-4,-0.01137 0.0124,-0.06691 0.0245,-0.123495 z"
       id="path7751-2" />
    <path
       style="fill:#ff0000;fill-opacity:1;stroke:#ff0000;stroke-width:0.0236063;stroke-opacity:1"
       d="m 56.9147,26.565884 0.0217,-0.08702 h 4.65885 4.65884 v 0.120489 l -1e-5,0.120488 h -4.68267 c -3.7334,0 -4.68225,-0.0073 -4.68054,-0.0339 0.002,-0.0184 0.0119,-0.07262 0.0238,-0.120488 z"
       id="path7790-0" />
    <path
       style="fill:#ff0000;fill-opacity:1;stroke:#ff0000;stroke-width:0.0242568;stroke-opacity:1"
       d="m 56.42844,28.639387 0.0134,-0.0848 h 4.85904 4.85905 l 0.006,0.120163 0.006,0.120163 h -4.88124 c -3.89245,0 -4.88077,-0.0077 -4.8788,-0.03582 10e-4,-0.01943 0.008,-0.07351 0.0158,-0.120164 z"
       id="path7829-6" />
    <path
       style="fill:#ff0000;fill-opacity:1;stroke:#ff0000;stroke-width:0.0236054;stroke-opacity:1"
       d="m 61.32974,30.584763 h 5.149 l 0.0228,0.08432 c 0.0126,0.04639 0.0228,0.100591 0.0228,0.120497 0,0.03026 -0.84245,0.03608 -5.17184,0.03567 h -5.17185 v -0.120478 l 1e-5,-0.120479 z"
       id="path7868-1" />
    <path
       style="fill:#ff0000;fill-opacity:1;stroke:#ff0000;stroke-width:0.0236279;stroke-opacity:1"
       d="m 61.80543,32.648836 h 5.52518 l 0.0548,0.106716 c 0.0301,0.0587 0.0548,0.113032 0.0548,0.120724 0,0.0077 -2.5053,0.01381 -5.56735,0.01348 H 56.3055 v -0.07827 c 10e-6,-0.04306 -0.006,-0.09739 -0.0127,-0.120722 -0.0115,-0.03862 0.48286,-0.04237 5.51257,-0.04191 z"
       id="path7907-5" />
    <path
       style="fill:#ff0000;fill-opacity:1;stroke:#ff0000;stroke-width:0.0236283;stroke-opacity:1"
       d="m 62.70038,34.690307 h 5.83744 l 0.0548,0.10672 c 0.0302,0.05871 0.0548,0.113036 0.0548,0.120711 0,0.0077 -2.63554,0.01381 -5.85674,0.01347 h -5.85675 l -0.0207,-0.07376 c -0.0114,-0.04057 -0.0274,-0.09492 -0.0355,-0.120709 -0.014,-0.04466 0.27145,-0.04693 5.82266,-0.04642 z"
       id="path7946-5" />
    <path
       style="fill:#ff0000;fill-opacity:1;stroke:#ff0000;stroke-width:0.0235816;stroke-opacity:1"
       d="m 63.50441,36.731744 c 5.1409,0 5.65997,0.0044 5.67145,0.04278 0.007,0.02326 0.0127,0.07737 0.0127,0.120249 v 0.07797 H 63.6077 58.02686 l -0.0906,-0.09533 c -0.0498,-0.05241 -0.0906,-0.106523 -0.0906,-0.120232 0,-0.01543 2.17084,-0.02474 5.65881,-0.02442 z"
       id="path7985-4" />
    <path
       style="fill:#ff0000;fill-opacity:1;stroke:none;stroke-width:0.0217292;stroke-opacity:1"
       d="m 64.52128,38.796599 c 2.21249,-0.0014 4.0227,0.0037 4.0227,0.01001 0,0.0062 -0.0339,0.05213 -0.0753,0.102069 l -0.0753,0.09078 h -3.76147 -3.76148 l -0.18593,-0.10046 -0.18594,-0.10046 z"
       id="path8024-7" />
  </g>
</svg>
