<?xml version="1.0" encoding="UTF-8" standalone="no"?>
<!-- Created with Inkscape (http://www.inkscape.org/) -->

<svg
   width="1200"
   height="1000"
   viewBox="0 0 317.5 264.58333"
   version="1.1"
   id="svg3837"
   sodipodi:docname="ready_set.svg"
   inkscape:version="1.1.1 (3bf5ae0, 2021-09-20)"
   xmlns:inkscape="http://www.inkscape.org/namespaces/inkscape"
   xmlns:sodipodi="http://sodipodi.sourceforge.net/DTD/sodipodi-0.dtd"
   xmlns="http://www.w3.org/2000/svg"
   xmlns:svg="http://www.w3.org/2000/svg">
  <sodipodi:namedview
     id="namedview3839"
     pagecolor="#505050"
     bordercolor="#ffffff"
     borderopacity="1"
     inkscape:pageshadow="0"
     inkscape:pageopacity="0"
     inkscape:pagecheckerboard="1"
     inkscape:document-units="px"
     showgrid="false"
     units="px"
     width="1200px"
     inkscape:zoom="0.75187991"
     inkscape:cx="-98.419972"
     inkscape:cy="607.14483"
     inkscape:window-width="1920"
     inkscape:window-height="1016"
     inkscape:window-x="0"
     inkscape:window-y="27"
     inkscape:window-maximized="1"
     inkscape:current-layer="layer1" />
  <defs
     id="defs3834" />
  <g
     inkscape:label="Layer 1"
     inkscape:groupmode="layer"
     id="layer1">
    <text
       xml:space="preserve"
       style="font-style:normal;font-weight:normal;font-size:10.5833px;line-height:1.25;font-family:sans-serif;fill:#000000;fill-opacity:1;stroke:none;stroke-width:0.264583"
       x="138.69537"
       y="49.807274"
       id="text29921"><tspan
         sodipodi:role="line"
         id="tspan29919"
         style="stroke-width:0.264583"
         x="138.69537"
         y="49.807274" /></text>
    <text
       xml:space="preserve"
       style="font-style:normal;font-weight:normal;font-size:65.2069px;line-height:1.25;font-family:sans-serif;fill:#000000;fill-opacity:1;stroke:none;stroke-width:1.63017"
       x="-193.02203"
       y="74.442604"
       id="text48417"
       transform="rotate(-26.896734)"><tspan
         sodipodi:role="line"
         id="tspan48415"
         style="font-style:normal;font-variant:normal;font-weight:bold;font-stretch:normal;font-family:Purisa;-inkscape-font-specification:'Purisa Bold';stroke-width:1.63017"
         x="-193.02203"
         y="74.442604">SET</tspan></text>
    <text
       xml:space="preserve"
       style="font-style:normal;font-weight:normal;font-size:45.8611px;line-height:1.25;font-family:sans-serif;fill:#000000;fill-opacity:1;stroke:none;stroke-width:0.598998"
       x="-106.00496"
       y="202.88779"
       id="text71995"><tspan
         sodipodi:role="line"
         id="tspan71993"
         style="font-style:normal;font-variant:normal;font-weight:bold;font-stretch:normal;font-size:45.8611px;font-family:'Mukti Narrow';-inkscape-font-specification:'Mukti Narrow Bold';stroke-width:0.598998"
         x="-106.00496"
         y="202.88779">GO!</tspan></text>
    <path
       style="fill:#6600cc;stroke:#000000;stroke-width:5.00000003;fill-opacity:1;stroke-opacity:1;stroke-miterlimit:4;stroke-dasharray:none"
       d="m 127.90144,211.60164 v -48.90349 l 30.56468,0.0277 c 20.51263,0.0186 32.05152,0.79184 35.08562,2.35113 16.34544,8.40024 17.53049,35.46836 1.9411,44.33733 -6.72541,3.82616 -6.82192,4.75282 -0.78156,7.50498 6.15882,2.80615 8.4263,9.14074 8.4263,23.54026 0,7.53158 1.04074,13.17079 2.92801,15.86524 2.92728,4.17927 2.92522,4.18032 -8.2447,4.18032 -13.05152,0 -13.4249,-0.58374 -13.46666,-21.05351 -0.0335,-16.40812 -2.57554,-18.44547 -23.01504,-18.44547 h -14.62872 v 19.74949 19.74949 h -9.40451 -9.40452 z m 56.4271,-9.40451 c 2.32874,-2.32874 3.76181,-6.26968 3.76181,-10.34497 0,-11.38554 -4.71682,-14.10678 -24.45174,-14.10678 h -16.92814 v 14.10678 14.10677 h 16.92814 c 14.42026,0 17.48543,-0.5573 20.68993,-3.7618 z"
       id="path137872"
       transform="scale(0.26458333)" />
    <path
       style="fill:#6600cc;fill-opacity:1;stroke:#000000;stroke-width:5.00000003;stroke-opacity:1;stroke-miterlimit:4;stroke-dasharray:none"
       d="m 240.75565,262.90981 c -6.94957,-2.61136 -13.88289,-9.22828 -17.106,-16.32537 -3.91444,-8.61935 -4.69759,-26.19555 -1.65527,-37.14874 2.43162,-8.75448 14.48351,-19.78478 23.45641,-21.46811 21.83195,-4.0957 37.94165,8.92076 41.47185,33.5088 l 1.28273,8.93429 H 262.3535 236.50164 l 1.12935,7.05339 c 1.43903,8.98755 7.09464,13.63655 16.58917,13.63655 5.48268,0 8.53638,-1.22072 11.76296,-4.70226 3.29478,-3.55513 6.2554,-4.70226 12.13606,-4.70226 4.27798,0 7.77815,0.78147 7.77815,1.73659 0,3.73748 -10.57708,14.02206 -17.79077,17.29879 -7.269,3.30185 -21.37176,4.42504 -27.35091,2.17833 z m 27.40619,-48.95704 c -2.65102,-11.28428 -17.49794,-17.63339 -24.60801,-10.52332 -3.06367,3.06367 -6.55999,10.49195 -6.55999,13.93735 0,0.96715 7.28622,1.75846 16.19159,1.75846 h 16.19158 z"
       id="path138098"
       transform="scale(0.26458333)" />
    <path
       style="fill:#6600cc;fill-opacity:1;stroke:#000000;stroke-width:5.00000003;stroke-opacity:1;stroke-miterlimit:4;stroke-dasharray:none"
       d="m 309.40863,262.48882 c -15.11758,-6.18751 -15.89468,-30.92817 -1.20997,-38.52193 2.92023,-1.51011 10.90991,-3.72092 17.75485,-4.91292 13.43857,-2.34023 17.00426,-4.88568 16.04509,-11.45421 -1.23395,-8.45022 -20.78032,-8.79426 -24.59005,-0.43282 -1.67093,3.66729 -3.43303,4.4347 -10.18274,4.4347 -9.07383,0 -9.60141,-1.10073 -5.08717,-10.61379 3.83518,-8.08203 11.38451,-12.08992 25.11858,-13.33528 13.40503,-1.21553 27.24682,4.18077 30.12207,11.74326 1.0303,2.7099 1.87328,15.93092 1.87328,29.38005 0,13.44912 0.87619,26.09012 1.94708,28.0911 1.804,3.37081 1.25799,3.63816 -7.43015,3.63816 -6.59458,0 -9.87125,-0.88275 -11.042,-2.97478 -1.45907,-2.60722 -2.54883,-2.37482 -8.82,1.88091 -7.29653,4.95156 -16.95564,6.16494 -24.49887,3.07755 z m 23.11639,-12.59341 c 5.21988,-1.39828 9.79942,-9.65123 9.79942,-17.65987 0,-5.63733 -0.25782,-5.83393 -6.11294,-4.66122 -12.07432,2.41834 -18.39905,5.07714 -20.23415,8.50605 -2.68177,5.01094 -2.34364,7.01946 1.89534,11.25844 3.91128,3.91128 7.35326,4.51185 14.65233,2.5566 z"
       id="path138137"
       transform="scale(0.26458333)" />
    <path
       style="fill:#6600cc;fill-opacity:1;stroke:#000000;stroke-width:5.00000003;stroke-opacity:1;stroke-miterlimit:4;stroke-dasharray:none"
       d="m 392.16838,260.87914 c -7.92551,-5.05248 -12.17738,-10.27155 -15.14351,-18.5883 -5.67667,-15.9169 -2.20606,-34.64552 8.50713,-45.90743 10.65124,-11.19677 24.17098,-12.1388 35.64542,-2.4837 l 5.78768,4.87001 v -18.03578 -18.03579 h 8.46406 8.46407 v 48.90349 48.9035 h -8.46407 c -6.26968,0 -8.46406,-0.73147 -8.46406,-2.82136 0,-3.86143 -1.81158,-3.54222 -6.87079,1.21066 -6.09154,5.7227 -20.46047,6.74391 -27.92593,1.9847 z m 28.76667,-16.29647 c 7.49762,-9.53168 6.63535,-30.49482 -1.59278,-38.72295 -4.84051,-4.8405 -15.65101,-4.8405 -20.49151,0 -8.59616,8.59616 -9.06411,30.80428 -0.82274,39.04566 6.15862,6.15861 17.93937,5.99265 22.90703,-0.32271 z"
       id="path138176"
       transform="scale(0.26458333)" />
    <path
       style="fill:#6600cc;fill-opacity:1;stroke:#000000;stroke-width:5.00000003;stroke-opacity:1;stroke-miterlimit:4;stroke-dasharray:none"
       d="m 468.8152,291.23481 c -1.29312,-0.52179 -2.35113,-3.41739 -2.35113,-6.43467 0,-4.59776 0.76132,-5.48597 4.70226,-5.48597 5.94232,0 12.22587,-6.16026 12.22587,-11.98598 0,-2.4543 -5.92484,-20.82005 -13.16632,-40.81279 -7.24148,-19.99273 -13.16633,-36.64984 -13.16633,-37.0158 0,-0.36596 4.3441,-0.40955 9.65356,-0.0969 l 9.65356,0.56852 7.7448,25.85435 c 4.25964,14.21989 8.25831,25.85798 8.88594,25.86242 0.62762,0.005 4.46287,-11.63001 8.52277,-25.85434 l 7.38163,-25.86243 8.87559,-0.57328 c 4.88157,-0.3153 8.87558,-0.25416 8.87558,0.13587 0,3.72672 -32.8362,93.2567 -35.13441,95.79619 -4.45171,4.91908 -17.03534,8.19188 -22.70337,5.90478 z"
       id="path138215"
       transform="scale(0.26458333)" />
    <path
       style="fill:#6600cc;fill-opacity:1;stroke:#000000;stroke-width:5.00000003;stroke-opacity:1;stroke-miterlimit:4;stroke-dasharray:none"
       d="m 421.56827,612.61943 c -17.55649,-13.70135 -23.82697,-27.28897 -17.89087,-38.76812 2.12154,-4.10261 8.08275,-7.93647 12.3403,-7.93647 5.7424,0 9.33089,8.51607 7.05767,16.74898 -1.22994,4.45449 -1.06155,5.45455 1.35083,8.02241 5.29057,5.63155 8.42296,5.26539 24.60438,-2.87618 8.23646,-4.14412 17.29863,-9.52335 20.13815,-11.95389 6.42482,-5.4994 13.88713,-19.16443 13.88713,-25.43019 0,-6.58515 -5.56404,-16.79047 -10.00603,-18.35264 -4.84157,-1.70269 -34.14614,1.06164 -42.6484,4.02306 -16.64735,5.79845 -64.54469,-4.92604 -71.85943,-16.08973 -3.99208,-6.09269 -5.308,-16.81008 -3.46601,-28.22852 3.56391,-22.09251 13.15393,-41.15393 25.69077,-51.06373 3.61849,-2.86026 13.46811,-8.62813 21.88803,-12.8175 13.95543,-6.94358 16.03311,-7.60164 23.4996,-7.44299 8.78975,0.18676 20.20111,4.21745 24.08252,8.50636 1.21918,1.34718 2.30923,4.43396 2.42233,6.85951 l 0.20563,4.41009 -15.29499,-0.4523 c -13.16694,-0.38936 -16.36542,-0.0498 -22.98849,2.44027 -8.88203,3.33942 -21.16162,13.96496 -27.33293,23.65122 -11.45594,17.9808 -12.52414,41.6602 -2.1089,46.7492 5.607,2.73964 29.35883,2.20463 50.679,-1.14153 9.64352,-1.51354 20.83594,-2.75188 24.87203,-2.75188 24.43502,0 38.32026,11.14191 42.14516,33.81849 3.25338,19.28819 -2.27681,31.95305 -20.27116,46.42367 -8.93559,7.18578 -47.58551,31.48484 -50.0618,31.47366 -0.50485,-0.003 -5.42538,-3.52184 -10.93452,-7.82125 z"
       id="path149884"
       transform="scale(0.26458333)" />
    <path
       style="fill:#6600cc;fill-opacity:1;stroke:#000000;stroke-width:5.00000003;stroke-opacity:1;stroke-miterlimit:4;stroke-dasharray:none"
       d="m 559.72059,544.82654 c -3.17666,-3.55207 -14.13211,-20.45969 -24.34545,-37.57249 -10.21334,-17.1128 -24.82601,-41.28868 -32.4726,-53.72418 -14.97417,-24.35219 -19.41569,-33.07378 -20.83853,-40.91965 -0.90597,-4.99577 1.2361,-12.94533 3.48823,-12.94533 0.61032,0 5.52126,-5.53613 10.9132,-12.3025 16.13337,-20.24584 30.54329,-32.01683 51.74779,-42.27109 7.2754,-3.5183 12.72913,-5.2764 16.36776,-5.2764 5.07785,0 8.64885,1.75567 8.64885,4.25217 0,2.48901 -10.88838,12.81871 -22.60999,21.44988 -13.573,9.99443 -33.86405,28.90149 -40.07326,37.33999 -6.60378,8.97473 -5.80552,11.7244 10.75361,37.04148 8.01368,12.25205 15.10292,22.27645 15.75386,22.27645 0.65094,0 2.32366,-1.27172 3.71715,-2.82603 3.82925,-4.27118 34.6643,-28.83818 42.34058,-33.73373 9.82917,-6.26855 11.83988,-6.6366 16.12414,-2.95144 7.23115,6.21997 2.46458,12.60794 -29.77698,39.906 -11.21774,9.49775 -20.68846,18.03107 -21.04605,18.96292 -0.5781,1.5065 17.35253,36.60136 21.82615,42.7194 1.66706,2.27983 2.28798,2.13891 11.52392,-2.61556 13.28542,-6.83907 33.99133,-24.43895 44.53681,-37.85598 4.80224,-6.1099 10.0401,-11.39932 11.701,-11.81618 1.7736,-0.44514 4.79055,0.28295 7.35548,1.77513 8.56008,4.97993 5.94208,15.09864 -8.27693,31.99082 -14.24616,16.92443 -41.61072,37.29422 -57.69514,42.94744 -11.11022,3.90493 -13.07063,3.52099 -19.6636,-3.85112 z"
       id="path149923"
       transform="scale(0.26458333)" />
    <path
       style="fill:#6600cc;fill-opacity:1;stroke:#000000;stroke-width:5.00000003;stroke-opacity:1;stroke-miterlimit:4;stroke-dasharray:none"
       d="m 793.14194,442.88021 c -6.31812,-4.98051 -15.65959,-18.32127 -34.45106,-49.20032 -21.04196,-34.57716 -31.87746,-51.38 -41.04596,-63.65085 -9.57576,-12.81591 -12.31318,-15.48413 -15.88572,-15.48413 -1.67034,0 -8.97865,4.23723 -16.24068,9.41606 -7.26204,5.17883 -14.99921,10.3359 -17.19371,11.46016 -2.1945,1.12426 -10.6832,6.53205 -18.86378,12.01731 -17.90612,12.00647 -24.65677,13.75692 -29.46756,7.64099 -1.5805,-2.00929 -2.87364,-4.17983 -2.87364,-4.82342 0,-3.11558 11.96051,-12.69133 49.20998,-39.3982 22.31075,-15.99621 50.44024,-36.38655 62.50999,-45.31187 25.03516,-18.51297 32.56278,-22.66774 43.02596,-23.74763 9.46604,-0.97698 14.16402,1.60443 14.16402,7.78274 0,5.40734 -5.72424,10.8128 -20.20855,19.08311 -9.82159,5.60799 -28.40558,18.82383 -38.65167,27.48683 l -3.66524,3.09893 4.81915,5.98499 c 8.25888,10.25688 21.81807,31.12885 46.65685,71.81998 13.17246,21.57925 26.17874,42.71667 28.90283,46.97203 6.77056,10.57642 7.47595,15.58205 2.72269,19.32097 -4.73664,3.72585 -8.3012,3.60202 -13.4639,-0.46768 z"
       id="path149962"
       transform="scale(0.26458333)" />
  </g>
</svg>
