<?xml version="1.0" encoding="UTF-8" standalone="no"?>
<!-- Created with Inkscape (http://www.inkscape.org/) -->

<svg
   width="1200"
   height="1000"
   viewBox="0 0 317.5 264.58333"
   version="1.1"
   id="svg3837"
   sodipodi:docname="ready.svg"
   inkscape:version="1.1.1 (3bf5ae0, 2021-09-20)"
   xmlns:inkscape="http://www.inkscape.org/namespaces/inkscape"
   xmlns:sodipodi="http://sodipodi.sourceforge.net/DTD/sodipodi-0.dtd"
   xmlns="http://www.w3.org/2000/svg"
   xmlns:svg="http://www.w3.org/2000/svg">
  <sodipodi:namedview
     id="namedview3839"
     pagecolor="#505050"
     bordercolor="#ffffff"
     borderopacity="1"
     inkscape:pageshadow="0"
     inkscape:pageopacity="0"
     inkscape:pagecheckerboard="1"
     inkscape:document-units="px"
     showgrid="false"
     units="px"
     width="1200px"
     inkscape:zoom="0.75187991"
     inkscape:cx="359.0999"
     inkscape:cy="500.74486"
     inkscape:window-width="1920"
     inkscape:window-height="1016"
     inkscape:window-x="0"
     inkscape:window-y="27"
     inkscape:window-maximized="1"
     inkscape:current-layer="layer1" />
  <defs
     id="defs3834" />
  <g
     inkscape:label="Layer 1"
     inkscape:groupmode="layer"
     id="layer1">
    <text
       xml:space="preserve"
       style="font-style:normal;font-weight:normal;font-size:10.5833px;line-height:1.25;font-family:sans-serif;fill:#000000;fill-opacity:1;stroke:none;stroke-width:0.264583"
       x="138.69537"
       y="49.807274"
       id="text29921"><tspan
         sodipodi:role="line"
         id="tspan29919"
         style="stroke-width:0.264583"
         x="138.69537"
         y="49.807274" /></text>
    <text
       xml:space="preserve"
       style="font-style:normal;font-weight:normal;font-size:65.2069px;line-height:1.25;font-family:sans-serif;fill:#000000;fill-opacity:1;stroke:none;stroke-width:1.63017"
       x="-193.02203"
       y="74.442604"
       id="text48417"
       transform="rotate(-26.896734)"><tspan
         sodipodi:role="line"
         id="tspan48415"
         style="font-style:normal;font-variant:normal;font-weight:bold;font-stretch:normal;font-family:Purisa;-inkscape-font-specification:'Purisa Bold';stroke-width:1.63017"
         x="-193.02203"
         y="74.442604">SET</tspan></text>
    <text
       xml:space="preserve"
       style="font-style:normal;font-weight:normal;font-size:45.8611px;line-height:1.25;font-family:sans-serif;fill:#000000;fill-opacity:1;stroke:none;stroke-width:0.598998"
       x="-92.81324"
       y="207.51825"
       id="text71995"><tspan
         sodipodi:role="line"
         id="tspan71993"
         style="font-style:normal;font-variant:normal;font-weight:bold;font-stretch:normal;font-size:45.8611px;font-family:'Mukti Narrow';-inkscape-font-specification:'Mukti Narrow Bold';stroke-width:0.598998"
         x="-92.81324"
         y="207.51825">GO!</tspan></text>
    <path
       style="fill:#ff3232;stroke:#000000;stroke-width:5.00000003;fill-opacity:1;stroke-opacity:1;stroke-miterlimit:4;stroke-dasharray:none;stroke-dashoffset:0;stroke-linejoin:round;stroke-linecap:square"
       d="m 127.90144,211.60164 v -48.90349 l 30.56468,0.0277 c 20.51263,0.0186 32.05152,0.79184 35.08562,2.35113 16.34544,8.40024 17.53049,35.46836 1.9411,44.33733 -6.72541,3.82616 -6.82192,4.75282 -0.78156,7.50498 6.15882,2.80615 8.4263,9.14074 8.4263,23.54026 0,7.53158 1.04074,13.17079 2.92801,15.86524 2.92728,4.17927 2.92522,4.18032 -8.2447,4.18032 -13.05152,0 -13.4249,-0.58374 -13.46666,-21.05351 -0.0335,-16.40812 -2.57554,-18.44547 -23.01504,-18.44547 h -14.62872 v 19.74949 19.74949 h -9.40451 -9.40452 z m 56.4271,-9.40451 c 2.32874,-2.32874 3.76181,-6.26968 3.76181,-10.34497 0,-11.38554 -4.71682,-14.10678 -24.45174,-14.10678 h -16.92814 v 14.10678 14.10677 h 16.92814 c 14.42026,0 17.48543,-0.5573 20.68993,-3.7618 z"
       id="path137872"
       transform="scale(0.26458333)" />
    <path
       style="fill:#ff3232;fill-opacity:1;stroke:#000000;stroke-width:5.00000003;stroke-opacity:1;stroke-miterlimit:4;stroke-dasharray:none;stroke-dashoffset:0;stroke-linejoin:round;stroke-linecap:square"
       d="m 240.75565,262.90981 c -6.94957,-2.61136 -13.88289,-9.22828 -17.106,-16.32537 -3.91444,-8.61935 -4.69759,-26.19555 -1.65527,-37.14874 2.43162,-8.75448 14.48351,-19.78478 23.45641,-21.46811 21.83195,-4.0957 37.94165,8.92076 41.47185,33.5088 l 1.28273,8.93429 H 262.3535 236.50164 l 1.12935,7.05339 c 1.43903,8.98755 7.09464,13.63655 16.58917,13.63655 5.48268,0 8.53638,-1.22072 11.76296,-4.70226 3.29478,-3.55513 6.2554,-4.70226 12.13606,-4.70226 4.27798,0 7.77815,0.78147 7.77815,1.73659 0,3.73748 -10.57708,14.02206 -17.79077,17.29879 -7.269,3.30185 -21.37176,4.42504 -27.35091,2.17833 z m 27.40619,-48.95704 c -2.65102,-11.28428 -17.49794,-17.63339 -24.60801,-10.52332 -3.06367,3.06367 -6.55999,10.49195 -6.55999,13.93735 0,0.96715 7.28622,1.75846 16.19159,1.75846 h 16.19158 z"
       id="path138098"
       transform="scale(0.26458333)" />
    <path
       style="fill:#ff3232;fill-opacity:1;stroke:#000000;stroke-width:5.00000003;stroke-opacity:1;stroke-miterlimit:4;stroke-dasharray:none;stroke-dashoffset:0;stroke-linejoin:round;stroke-linecap:square"
       d="m 309.40863,262.48882 c -15.11758,-6.18751 -15.89468,-30.92817 -1.20997,-38.52193 2.92023,-1.51011 10.90991,-3.72092 17.75485,-4.91292 13.43857,-2.34023 17.00426,-4.88568 16.04509,-11.45421 -1.23395,-8.45022 -20.78032,-8.79426 -24.59005,-0.43282 -1.67093,3.66729 -3.43303,4.4347 -10.18274,4.4347 -9.07383,0 -9.60141,-1.10073 -5.08717,-10.61379 3.83518,-8.08203 11.38451,-12.08992 25.11858,-13.33528 13.40503,-1.21553 27.24682,4.18077 30.12207,11.74326 1.0303,2.7099 1.87328,15.93092 1.87328,29.38005 0,13.44912 0.87619,26.09012 1.94708,28.0911 1.804,3.37081 1.25799,3.63816 -7.43015,3.63816 -6.59458,0 -9.87125,-0.88275 -11.042,-2.97478 -1.45907,-2.60722 -2.54883,-2.37482 -8.82,1.88091 -7.29653,4.95156 -16.95564,6.16494 -24.49887,3.07755 z m 23.11639,-12.59341 c 5.21988,-1.39828 9.79942,-9.65123 9.79942,-17.65987 0,-5.63733 -0.25782,-5.83393 -6.11294,-4.66122 -12.07432,2.41834 -18.39905,5.07714 -20.23415,8.50605 -2.68177,5.01094 -2.34364,7.01946 1.89534,11.25844 3.91128,3.91128 7.35326,4.51185 14.65233,2.5566 z"
       id="path138137"
       transform="scale(0.26458333)" />
    <path
       style="fill:#ff3232;fill-opacity:1;stroke:#000000;stroke-width:5.00000003;stroke-opacity:1;stroke-miterlimit:4;stroke-dasharray:none;stroke-dashoffset:0;stroke-linejoin:round;stroke-linecap:square"
       d="m 392.16838,260.87914 c -7.92551,-5.05248 -12.17738,-10.27155 -15.14351,-18.5883 -5.67667,-15.9169 -2.20606,-34.64552 8.50713,-45.90743 10.65124,-11.19677 24.17098,-12.1388 35.64542,-2.4837 l 5.78768,4.87001 v -18.03578 -18.03579 h 8.46406 8.46407 v 48.90349 48.9035 h -8.46407 c -6.26968,0 -8.46406,-0.73147 -8.46406,-2.82136 0,-3.86143 -1.81158,-3.54222 -6.87079,1.21066 -6.09154,5.7227 -20.46047,6.74391 -27.92593,1.9847 z m 28.76667,-16.29647 c 7.49762,-9.53168 6.63535,-30.49482 -1.59278,-38.72295 -4.84051,-4.8405 -15.65101,-4.8405 -20.49151,0 -8.59616,8.59616 -9.06411,30.80428 -0.82274,39.04566 6.15862,6.15861 17.93937,5.99265 22.90703,-0.32271 z"
       id="path138176"
       transform="scale(0.26458333)" />
    <path
       style="fill:#ff3232;fill-opacity:1;stroke:#000000;stroke-width:5.00000003;stroke-opacity:1;stroke-miterlimit:4;stroke-dasharray:none;stroke-dashoffset:0;stroke-linejoin:round;stroke-linecap:square"
       d="m 468.8152,291.23481 c -1.29312,-0.52179 -2.35113,-3.41739 -2.35113,-6.43467 0,-4.59776 0.76132,-5.48597 4.70226,-5.48597 5.94232,0 12.22587,-6.16026 12.22587,-11.98598 0,-2.4543 -5.92484,-20.82005 -13.16632,-40.81279 -7.24148,-19.99273 -13.16633,-36.64984 -13.16633,-37.0158 0,-0.36596 4.3441,-0.40955 9.65356,-0.0969 l 9.65356,0.56852 7.7448,25.85435 c 4.25964,14.21989 8.25831,25.85798 8.88594,25.86242 0.62762,0.005 4.46287,-11.63001 8.52277,-25.85434 l 7.38163,-25.86243 8.87559,-0.57328 c 4.88157,-0.3153 8.87558,-0.25416 8.87558,0.13587 0,3.72672 -32.8362,93.2567 -35.13441,95.79619 -4.45171,4.91908 -17.03534,8.19188 -22.70337,5.90478 z"
       id="path138215"
       transform="scale(0.26458333)" />
    <path
       style="fill:#32d232;fill-opacity:1;stroke:none;stroke-width:1.69543;stroke-opacity:1"
       d="m 392.68732,178.51882 c -4.64516,-3.62515 -6.30422,-7.22021 -4.73363,-10.2574 0.56132,-1.08548 2.13856,-2.09986 3.26504,-2.09986 1.51934,0 2.4688,2.25321 1.86734,4.4315 -0.32542,1.17858 -0.28087,1.44318 0.35741,2.1226 1.39979,1.49001 2.22857,1.39313 6.50991,-0.76099 2.17923,-1.09647 4.57692,-2.51972 5.32821,-3.1628 1.6999,-1.45505 3.67431,-5.07059 3.67431,-6.72841 0,-1.74232 -1.47216,-4.44248 -2.64743,-4.8558 -1.281,-0.4505 -9.0345,0.28089 -11.28406,1.06443 -4.40461,1.53418 -17.07745,-1.30334 -19.0128,-4.25707 -1.05624,-1.61202 -1.40441,-4.44767 -0.91705,-7.4688 0.94295,-5.84531 3.48031,-10.88864 6.79735,-13.51061 0.95739,-0.75677 3.56343,-2.28286 5.7912,-3.39129 3.69238,-1.83716 4.2421,-2.01127 6.21761,-1.9693 2.32562,0.0494 5.34487,1.11587 6.37183,2.25065 0.32257,0.35644 0.61098,1.17315 0.64091,1.81491 l 0.0544,1.16683 -4.0468,-0.11967 c -3.48375,-0.10301 -4.33001,-0.0132 -6.08237,0.64566 -2.35003,0.88355 -5.59901,3.69489 -7.23183,6.25772 -3.03105,4.75742 -3.31368,11.02259 -0.55798,12.36906 1.48351,0.72486 7.76785,0.5833 13.40881,-0.30203 2.55152,-0.40046 5.51285,-0.72811 6.58073,-0.72811 6.4651,0 10.1389,2.94797 11.15091,8.94781 0.86079,5.10334 -0.60241,8.45425 -5.36341,12.28293 -2.36421,1.90124 -12.59034,8.33037 -13.24552,8.32741 -0.13358,-8e-4 -1.43547,-0.93182 -2.89309,-2.06937 z"
       id="path149884" />
    <path
       style="fill:#32d232;fill-opacity:1;stroke:none;stroke-width:1.69543;stroke-opacity:1"
       d="m 429.24012,160.58195 c -0.84049,-0.93982 -3.73912,-5.4133 -6.4414,-9.94106 -2.70228,-4.52776 -6.56855,-10.92429 -8.59171,-14.21452 -3.96192,-6.44318 -5.13707,-8.75077 -5.51353,-10.82666 -0.2397,-1.32179 0.32705,-3.42512 0.92293,-3.42512 0.16148,0 1.46083,-1.46476 2.88745,-3.25503 4.26862,-5.35671 8.08124,-8.47112 13.6916,-11.18423 1.92495,-0.93088 3.36792,-1.39605 4.33064,-1.39605 1.34351,0 2.28834,0.46453 2.28834,1.12506 0,0.65855 -2.88089,3.39161 -5.98223,5.67528 -3.59119,2.64436 -8.95986,7.64685 -10.60271,9.87954 -1.74725,2.37456 -1.53605,3.10208 2.84522,9.80056 2.12029,3.24168 3.99598,5.89397 4.16821,5.89397 0.17223,0 0.6148,-0.33647 0.9835,-0.74772 1.01315,-1.13008 9.17159,-7.6301 11.20261,-8.92538 2.60063,-1.65855 3.13263,-1.75593 4.26618,-0.7809 1.91324,1.6457 0.65208,3.33585 -7.8785,10.55846 -2.96802,2.51295 -5.47382,4.77072 -5.56843,5.01727 -0.15296,0.3986 4.59119,9.68411 5.77484,11.30284 0.44107,0.60321 0.60536,0.56592 3.04903,-0.69203 3.5151,-1.8095 8.99354,-6.46614 11.7837,-10.01606 1.27059,-1.61658 2.65644,-3.01607 3.09589,-3.12637 0.46926,-0.11777 1.2675,0.0749 1.94614,0.46967 2.26485,1.31761 1.57217,3.99485 -2.18994,8.46424 -3.7693,4.47792 -11.0095,9.86743 -15.26517,11.36318 -2.93958,1.03318 -3.45827,0.93159 -5.20266,-1.01894 z"
       id="path149923" />
    <path
       style="fill:#32d232;fill-opacity:1;stroke:none;stroke-width:1.69543;stroke-opacity:1"
       d="m 490.99951,133.60865 c -1.67166,-1.31776 -4.14326,-4.84751 -9.11517,-13.01759 -5.56735,-9.14854 -8.43425,-13.59429 -10.86008,-16.84095 -2.53358,-3.39088 -3.25786,-4.096844 -4.2031,-4.096844 -0.44194,0 -2.3756,1.121104 -4.29701,2.491334 -1.92141,1.37023 -3.96854,2.73471 -4.54917,3.03217 -0.58063,0.29746 -2.82659,1.72827 -4.99104,3.17958 -4.73766,3.17671 -6.52377,3.63985 -7.79662,2.02167 -0.41818,-0.53162 -0.76032,-1.10591 -0.76032,-1.27619 0,-0.82433 3.16455,-3.35792 13.02014,-10.424109 5.90305,-4.23233 13.34565,-9.627274 16.5391,-11.988765 6.62389,-4.898223 8.61557,-5.997506 11.38395,-6.283227 2.50456,-0.258493 3.74757,0.424505 3.74757,2.059183 0,1.430692 -1.51454,2.860887 -5.34685,5.049073 -2.59863,1.48378 -7.51564,4.980471 -10.22659,7.272557 l -0.96976,0.819925 1.27507,1.583529 c 2.18516,2.713799 5.7727,8.236174 12.34462,19.002374 3.48522,5.7095 6.92646,11.30211 7.64721,12.42801 1.79138,2.79835 1.97801,4.12275 0.72038,5.11201 -1.25324,0.9858 -2.19636,0.95303 -3.56233,-0.12374 z"
       id="path149962" />
    <path
       style="fill:#32d232;fill-opacity:1;stroke:none;stroke-width:1.69543;stroke-opacity:1"
       d="m 482.44027,193.41783 c -5.31506,-1.48518 -9.62216,-6.20119 -10.92287,-11.95989 -0.50209,-2.22293 -0.50375,-7.56931 -0.003,-9.80356 0.88891,-3.96649 3.60135,-7.8656 6.95767,-10.00161 4.776,-3.03949 12.64369,-3.04005 17.41867,-0.001 2.59108,1.64897 5.16255,5.41364 5.18379,7.58911 0.007,0.75945 -0.11407,0.79177 -2.97624,0.79177 h -2.98396 l -0.70298,-1.37795 c -0.83897,-1.64452 -2.29938,-2.7539 -4.49522,-3.41476 -4.81433,-1.4489 -9.58219,0.81769 -11.40836,5.42341 -0.65508,1.65214 -0.79756,2.69533 -0.80305,5.87937 -0.006,3.42629 0.097,4.09313 0.89636,5.80628 1.23796,2.65323 2.46794,4.00677 4.61184,5.07512 2.02776,1.01048 4.67394,1.19872 7.01038,0.49871 2.67792,-0.80233 5.54967,-4.1733 5.57279,-6.54155 0.008,-0.77131 -0.0877,-0.79176 -3.68718,-0.79176 h -3.6949 v -2.63922 -2.63922 h 6.51007 6.51007 v 8.79739 8.7974 h -1.89778 c -2.09506,0 -2.12876,-0.0348 -2.51257,-2.59423 -0.13431,-0.89569 -0.32503,-1.62852 -0.42381,-1.62852 -0.0988,0 -0.79902,0.7037 -1.55609,1.56377 -2.80383,3.18532 -7.93375,4.47605 -12.60359,3.17117 z"
       id="path150204" />
    <path
       style="fill:#32d232;fill-opacity:1;stroke:none;stroke-width:1.69543;stroke-opacity:1"
       d="m 518.69294,193.57692 c -5.37555,-1.05374 -9.88364,-5.68025 -11.44141,-11.74196 -0.68608,-2.6697 -0.69308,-7.89601 -0.0141,-10.50289 2.14113,-8.22035 9.22542,-13.01784 17.49318,-11.84639 5.52824,0.78328 9.20197,3.40712 11.67803,8.34064 1.91871,3.823 2.51204,9.46601 1.43594,13.65674 -2.33425,9.09038 -9.94766,13.89808 -19.15166,12.09386 z m 8.37002,-6.39637 c 3.20099,-2.11837 4.63418,-5.40834 4.63418,-10.63807 0,-5.5217 -1.61883,-8.92437 -5.09704,-10.7136 -2.29241,-1.17925 -5.96532,-1.23185 -8.09905,-0.11599 -3.74852,1.96033 -5.80104,6.70035 -5.32833,12.30511 0.39675,4.70425 2.16305,7.86833 5.269,9.43869 1.57346,0.79554 2.17829,0.90467 4.48376,0.80897 2.21186,-0.0918 2.9153,-0.2763 4.13748,-1.08511 z"
       id="path150243" />
    <path
       style="fill:#32d232;fill-opacity:1;stroke:none;stroke-width:1.69543;stroke-opacity:1"
       d="m 547.36949,182.96458 c -0.57505,-1.79552 -1.94842,-14.97259 -1.94842,-18.69436 v -4.44278 h 3.34301 3.34301 l 0.009,4.48667 c 0.006,2.92075 -0.32613,7.03512 -0.95179,11.7885 l -0.9611,7.30184 h -1.34659 c -0.76753,0 -1.40716,-0.18915 -1.48746,-0.43987 z"
       id="path150282" />
    <path
       style="fill:#32d232;fill-opacity:1;stroke:none;stroke-width:1.69543;stroke-opacity:1"
       d="m 545.42107,189.73857 v -3.16706 h 3.34301 3.34301 v 3.16706 3.16706 h -3.34301 -3.34301 z"
       id="path150321" />
  </g>
</svg>
