<?xml version="1.0" encoding="UTF-8" standalone="no"?>
<!-- Created with Inkscape (http://www.inkscape.org/) -->

<svg
   width="1200"
   height="1000"
   viewBox="0 0 317.49999 264.58334"
   version="1.1"
   id="svg416"
   sodipodi:docname="set_background.svg"
   inkscape:version="1.1.1 (3bf5ae0, 2021-09-20)"
   xmlns:inkscape="http://www.inkscape.org/namespaces/inkscape"
   xmlns:sodipodi="http://sodipodi.sourceforge.net/DTD/sodipodi-0.dtd"
   xmlns="http://www.w3.org/2000/svg"
   xmlns:svg="http://www.w3.org/2000/svg">
  <sodipodi:namedview
     id="namedview418"
     pagecolor="#505050"
     bordercolor="#ffffff"
     borderopacity="1"
     inkscape:pageshadow="0"
     inkscape:pageopacity="0"
     inkscape:pagecheckerboard="false"
     inkscape:document-units="px"
     showgrid="true"
     inkscape:zoom="0.75187991"
     inkscape:cx="599.16484"
     inkscape:cy="494.09486"
     inkscape:window-width="1920"
     inkscape:window-height="1016"
     inkscape:window-x="0"
     inkscape:window-y="27"
     inkscape:window-maximized="1"
     inkscape:current-layer="layer1"
     units="px"
     height="1122.5196px"
     width="1200px"
     showguides="false"
     showborder="true" />
  <defs
     id="defs413" />
  <g
     inkscape:label="Layer 1"
     inkscape:groupmode="layer"
     id="layer1">
    <rect
       style="fill:#ffe680;stroke-width:0.700043"
       id="rect442"
       width="317.5"
       height="264.58359"
       x="0"
       y="0" />
    <path
       style="fill:#0000ff;fill-rule:evenodd;stroke-width:0.32918"
       d="m 14.616655,263.31661 c -2.9456,-1.39723 -7.2400169,-2.65817 -11.3953116,-3.3459 l -3.20949051,-0.5312 v -3.23656 -3.23659 h 0.90524142 c 1.33626579,0 6.06931009,0.87512 8.93434319,1.65067 5.5577445,1.50445 10.8137545,3.9126 15.7586025,7.22016 1.660112,1.11043 3.106136,2.16094 3.21338,2.33449 0.121888,0.1972 -2.064499,0.30475 -5.831941,0.28682 l -6.026932,-0.0287 z"
       id="path3982" />
    <path
       style="fill:#0000ff;fill-rule:evenodd;stroke-width:0.32918"
       d="M 37.317461,261.56879 C 28.455046,253.08507 15.822477,247.2049 3.2213434,245.69783 l -3.20949051,-0.38386 v -3.39503 -3.39503 l 1.06983021,0.12964 c 0.588406,0.0713 2.4770693,0.29884 4.1970256,0.50569 6.3074633,0.75859 14.3420323,3.22455 20.5736583,6.31442 8.241844,4.08663 17.033014,11.0732 22.164915,17.61503 l 1.097492,1.39901 -4.389279,-0.0152 -4.389274,-0.0152 z"
       id="path4021" />
    <path
       style="fill:#0000ff;fill-rule:evenodd;stroke-width:0.32918"
       d="m 56.385153,261.60731 c -3.50157,-4.93554 -9.013534,-10.65364 -14.238452,-14.77093 -5.411755,-4.26452 -13.700863,-8.86595 -20.409064,-11.32945 -5.83517,-2.14288 -15.9169704,-4.26635 -20.2557984,-4.26635 H 0.01185289 v -3.47129 -3.47129 l 1.06983021,0.16427 c 0.588406,0.0904 2.1808088,0.25719 3.5386692,0.37072 3.7591377,0.31424 9.2735707,1.37672 13.6680067,2.63342 15.230478,4.35558 29.040919,13.12897 39.11045,24.84573 3.007902,3.49995 6.331247,7.98449 7.986035,10.77642 l 0.829206,1.39901 h -3.892719 -3.892716 z"
       id="path4060" />
    <path
       style="fill:#0000ff;fill-rule:evenodd;stroke-width:0.32918"
       d="M 73.879481,262.77673 C 69.717681,254.56379 60.369574,243.33164 52.257724,236.79727 38.074754,225.37235 20.324698,218.25339 3.3859322,217.19638 l -3.37407931,-0.21055 v -3.43257 -3.43254 l 2.22195551,0.20727 c 14.4269376,1.34578 24.9691236,4.21316 36.3620286,9.89011 18.101792,9.01995 32.236132,22.82766 42.031307,41.06004 l 1.724268,3.20949 h -3.802468 -3.802482 z"
       id="path4099" />
    <path
       style="fill:#0000ff;fill-rule:evenodd;stroke-width:0.32918"
       d="M 88.95325,261.10105 C 79.20035,240.42488 61.932251,223.09703 40.994579,212.9764 28.857231,207.10958 14.667588,203.43886 1.8223344,202.84296 L 0.176443,202.7666 0.08263794,199.39252 c -0.08491348,-3.05427 -0.03811271,-3.37406 0.49376743,-3.37382 0.32316675,0 2.21701073,0.14848 4.20854083,0.3296 11.4954058,1.04548 21.1156428,3.27903 31.2575748,7.25715 26.398741,10.35481 47.867773,30.55993 59.50031,55.99744 1.048225,2.29222 1.905869,4.32901 1.905869,4.52621 0,0.23579 -1.180813,0.35853 -3.449,0.35853 h -3.448994 z"
       id="path4138" />
    <path
       style="fill:#0000ff;fill-rule:evenodd;stroke-width:0.32918"
       d="M 104.8625,262.10109 C 103.35074,258.17807 99.3001,249.94248 96.849344,245.80911 88.726887,232.10999 77.069662,219.43661 64.1969,210.31035 50.147471,200.34987 34.300117,193.63697 17.293726,190.44227 12.976238,189.63121 5.8330272,188.77828 3.3056544,188.77201 c -3.36742722,-0.008 -3.29380151,0.074 -3.29380151,-3.68559 v -3.28411 l 3.20949051,0.21887 c 31.6796556,2.16048 59.6685006,14.9984 81.5601126,37.40998 12.058381,12.34479 20.405644,25.34101 26.777354,41.69083 l 1.31163,3.36564 h -3.54414 -3.54413 z"
       id="path4177" />
    <path
       style="fill:#0000ff;fill-rule:evenodd;stroke-width:0.32918"
       d="m 120.65566,264.07616 c -4.40275,-12.57711 -8.94689,-21.82881 -15.64275,-31.84804 -16.598116,-24.83633 -42.061454,-43.55588 -71.137758,-52.29743 -8.6435,-2.59861 -19.603578,-4.66253 -27.2797276,-5.13714 -1.7199598,-0.10639 -3.904882,-0.27322 -4.8553834,-0.37083 l -1.72818811,-0.17746 v -3.30742 -3.30742 l 3.53866921,0.22312 c 41.4845379,2.61578 78.6220469,22.57237 103.2419979,55.47922 8.12171,10.8554 15.13652,24.1629 19.75874,37.48347 0.65002,1.87327 1.18186,3.46567 1.18186,3.53867 0,0.073 -1.56002,0.13271 -3.46671,0.13271 -2.47709,0 -3.50782,-0.11743 -3.61075,-0.41147 z"
       id="path4216" />
    <path
       style="fill:#0000ff;fill-rule:evenodd;stroke-width:0.32918"
       d="m 135.6329,264.40535 c 0,-0.0453 -0.8788,-2.68302 -1.95228,-5.86166 C 117.90119,211.81947 79.138719,176.3465 30.824945,164.41665 22.14215,162.27267 14.929936,161.21593 2.5629873,160.27572 l -2.55113441,-0.19395 v -3.30844 -3.30846 l 3.86784821,0.22756 c 47.3726279,2.78711 89.7715359,26.29772 116.9647389,64.85811 8.93477,12.66965 16.90514,29.31302 21.17128,44.2089 l 0.49494,1.72819 h -3.43863 c -1.89124,0 -3.43886,-0.037 -3.43913,-0.0823 z"
       id="path4255" />
    <path
       style="fill:#0000ff;fill-rule:evenodd;stroke-width:0.32918"
       d="m 149.96067,263.26239 c -0.40732,-2.17124 -3.80366,-12.29088 -5.83079,-17.37335 -20.93321,-52.48411 -68.929893,-90.0529 -125.519442,-98.24872 -3.959251,-0.57342 -8.50684,-1.01177 -15.7182718,-1.51513 l -2.88031331,-0.20103 v -3.30683 -3.30681 l 4.19702551,0.228 c 18.9392426,1.02891 37.0291456,5.07123 54.7259286,12.22889 6.347305,2.56724 18.140887,8.52817 23.913899,12.087 35.141674,21.6634 60.074844,53.79648 72.174454,93.01615 0.9138,2.96201 1.75566,5.88758 1.8708,6.50128 l 0.20931,1.11579 h -3.45638 -3.45637 z"
       id="path4294" />
    <path
       style="fill:#0000ff;fill-rule:evenodd;stroke-width:0.32918"
       d="M 164.59837,263.08862 C 157.17951,234.03843 142.95659,208.00519 122.86665,186.7041 94.621056,156.75568 56.663302,137.71291 15.812422,132.99682 11.921897,132.54766 2.8654211,131.84819 0.75250419,131.83365 c -0.71836597,-0.005 -0.7406513,-0.10419 -0.7406513,-3.29688 v -3.29178 l 2.88031331,0.003 c 6.0023788,0.007 18.3930618,1.40028 26.7457528,3.00729 30.735058,5.91322 58.262262,18.98885 82.800311,39.33078 5.30868,4.40086 17.02881,16.07991 21.46908,21.39383 14.66365,17.54875 25.68468,37.04986 32.84176,58.11157 1.48734,4.3769 4.0056,13.00876 4.859,16.65512 0.17122,0.73162 0.13168,0.74066 -3.23955,0.74066 h -3.41286 z"
       id="path4333" />
    <path
       style="fill:#ff0000;fill-rule:evenodd;stroke-width:0.32918"
       d="M 103.20931,127.34547 C 91.9955,126.48114 82.522412,125.0044 72.924894,122.6245 60.264804,119.48519 50.117118,115.70224 38.031976,109.61682 24.750155,102.92882 14.755342,96.323911 3.2368207,86.623033 L 0.04280629,83.933037 0.02736309,79.869777 0.01191989,75.80651 2.3984639,78.017969 C 19.289794,93.670053 40.517646,106.18775 62.555837,113.49177 c 10.462382,3.46749 22.55715,6.05104 34.399157,7.34796 7.382196,0.80848 24.548116,0.80848 31.930316,0 19.783,-2.1666 37.8039,-7.33176 55.30198,-15.85072 30.04643,-14.628073 55.30194,-38.199215 71.93888,-67.14101 2.72217,-4.735509 7.70261,-15.031555 9.84059,-20.343434 1.80991,-4.49679 5.11212,-14.2634671 5.47296,-16.1869225 l 0.21775,-1.16061776 h 3.09055 c 1.69981,0 3.09057,0.13593975 3.09057,0.30211169 0,0.79567627 -3.23175,10.89629157 -4.96493,15.51746257 -19.90502,53.07341 -65.77255,93.57667 -121.11044,106.94644 -6.54783,1.58196 -15.13565,3.06772 -22.05496,3.81568 -4.82677,0.52175 -22.38542,0.9238 -26.49887,0.60675 z"
       id="path6437" />
    <path
       style="fill:#ff0000;fill-rule:evenodd;stroke-width:0.32918"
       d="M 100.57589,113.6898 C 64.458162,110.60561 30.371365,94.913673 4.2088784,69.326985 L 0.01185289,65.222338 V 60.939297 56.656268 L 4.7398541,61.571419 C 28.281868,86.045283 58.999266,101.92904 91.852662,106.61686 c 8.674938,1.23782 15.492838,1.6286 24.675638,1.41433 11.5348,-0.26915 20.90522,-1.50108 31.78101,-4.17825 40.4342,-9.953243 75.72806,-36.748332 96.55963,-73.308072 4.19713,-7.366016 8.87768,-17.932069 11.67495,-26.3553996 l 1.33912,-4.03244266 h 3.06501 c 1.68574,0 3.06499,0.0657385 3.06499,0.14612115 0,0.46513085 -3.51861,10.66538911 -4.80438,13.92765111 -3.56967,9.056939 -9.90771,21.04053 -15.69206,29.669639 -13.14559,19.610605 -32.07137,37.231822 -52.91036,49.26324 -18.34857,10.593543 -39.32859,17.517043 -60.89802,20.096593 -5.28078,0.63153 -23.60311,0.90168 -29.1323,0.42955 z"
       id="path6476" />
    <path
       style="fill:#ff0000;fill-rule:evenodd;stroke-width:0.32918"
       d="M 105.84275,100.53758 C 66.377544,98.559389 28.903406,79.533858 2.8595362,48.253233 L 0.01185289,44.832956 v -4.94254 -4.942538 L 2.4182067,38.208426 C 12.045487,51.25313 24.139136,62.744048 37.702794,71.73445 c 6.778512,4.492998 10.00999,6.336481 17.01867,9.708735 14.815111,7.128338 30.117555,11.308973 47.006546,12.842237 5.47706,0.49725 17.84485,0.423769 23.74046,-0.141013 47.99417,-4.597798 90.48029,-34.18237 111.57416,-77.693031 2.56356,-5.287887 6.56133,-14.9983885 6.56133,-15.93731476 0,-0.23154065 1.09918,-0.3570375 3.12719,-0.3570375 1.89824,0 3.12719,0.13144294 3.12719,0.3344533 0,0.18395042 -0.67545,2.19786466 -1.50102,4.47536076 -4.88411,13.4739242 -11.68248,26.0605342 -20.2492,37.4896662 -8.78582,11.721418 -21.22527,23.715245 -33.55176,32.349816 -19.00901,13.315594 -41.45714,21.93649 -64.84817,24.904068 -3.81604,0.48413 -15.68334,1.22536 -17.94023,1.12056 -0.54315,-0.0253 -3.20949,-0.15731 -5.92521,-0.29337 z"
       id="path6515" />
    <path
       style="fill:#ff0000;fill-rule:evenodd;stroke-width:0.32918"
       d="M 106.50111,87.164265 C 82.462925,85.939095 58.31849,77.412549 38.186503,63.039123 32.280971,58.822813 27.562831,54.760071 21.390143,48.57594 13.282821,40.453585 6.64307,32.03074 1.2221909,22.991897 l -1.21033801,-2.018136 0.005261,-6.211337 0.005261,-6.211337 2.25468221,4.288539 C 8.6792576,25.016992 15.766644,34.67786 25.350834,44.291642 c 6.103365,6.122207 10.039351,9.492764 16.302197,13.960293 27.893444,19.897459 61.876659,27.292722 95.118149,20.69916 28.69563,-5.691868 54.67162,-21.56048 73.48013,-44.888652 6.97089,-8.646014 13.82363,-20.270763 17.90105,-30.3667426 l 1.42915,-3.53867466 h 3.06113 c 1.6836,0 3.06348,0.11109689 3.06637,0.2468856 0.017,0.76635186 -3.5263,8.98838336 -6.13427,14.23698466 -10.21077,20.549375 -25.76641,38.05028 -45.17404,50.823123 -6.37361,4.194679 -9.8022,6.141706 -16.24828,9.227034 -19.28891,9.23239 -40.60836,13.545719 -61.65122,12.473212 z"
       id="path6554" />
    <path
       style="fill:#ff0000;fill-rule:evenodd;stroke-width:0.32918"
       d="M 105.84275,73.677427 C 89.316712,72.359757 75.687206,68.623922 61.537072,61.533263 37.969767,49.723652 18.524953,29.765595 7.1208019,5.680667 5.9823538,3.2763386 4.9586742,1.0499248 4.8459567,0.73308552 4.6595326,0.20907506 4.9300731,0.15885335 7.8401737,0.17729196 l 3.1991603,0.0202274 2.5437,5.16430114 C 26.565641,31.719537 50.044363,52.450622 77.697987,61.973607 c 27.630263,9.514949 58.024883,7.47066 84.214923,-5.664145 11.20673,-5.620403 20.45219,-12.32294 29.52889,-21.407111 9.42696,-9.434703 16.17788,-18.903817 21.54856,-30.2247534 l 2.13965,-4.5102445 3.197,-0.004921 3.197,-0.004921 -1.09371,2.5511353 C 209.63969,27.878016 189.39693,49.180668 164.50491,61.56224 c -13.91119,6.919582 -27.38487,10.689317 -42.8616,11.992043 -3.62389,0.305032 -12.64059,0.375588 -15.80056,0.123619 z"
       id="path6593" />
    <path
       style="fill:#ff0000;fill-rule:evenodd;stroke-width:0.32918"
       d="M 104.69062,60.182503 C 84.940612,58.286929 67.124925,51.332754 51.034524,39.238386 45.772821,35.283425 36.34581,26.076179 32.281466,20.922518 29.236355,17.061256 25.23994,11.170358 22.995356,7.2343732 21.408849,4.4523491 19.433381,0.62375166 19.433381,0.33100179 c 0,-0.0956888 1.444275,-0.17043284 3.209498,-0.16609388 l 3.209488,0.007975 1.645895,3.03028089 c 4.338482,7.9876712 11.140795,16.8427252 18.142548,23.6174492 4.970336,4.809172 8.306483,7.488171 14.281881,11.468656 12.319459,8.206547 25.306359,13.129887 40.653199,15.41164 6.03902,0.897867 19.77223,0.8186 26.0051,-0.150109 28.05254,-4.359911 52.21764,-19.74151 67.78017,-43.143557 1.64626,-2.4755591 3.6598,-5.7928103 4.47453,-7.3716681 l 1.48128,-2.87065728 3.2095,-0.004242 c 1.76522,-0.002029 3.2095,0.0728485 3.2095,0.16667071 0,0.52769956 -3.72919,7.46799247 -5.81656,10.82505467 -13.13789,21.129263 -33.90802,37.163806 -57.96934,44.752341 -9.5291,3.00531 -17.27463,4.183643 -28.3841,4.318097 -4.61672,0.05586 -9.06063,0.03759 -9.87535,-0.04061 z"
       id="path6632" />
    <path
       style="fill:#ff0000;fill-rule:evenodd;stroke-width:0.32918"
       d="M 103.20931,46.517753 C 93.955687,45.47568 83.099281,42.237312 74.241606,37.876945 58.753581,30.252662 46.063395,18.826046 36.72246,4.0935775 35.541691,2.2312705 34.575602,0.58368928 34.575602,0.43229058 c 0,-0.1513987 1.47385,-0.27526484 3.275227,-0.27526484 h 3.275237 l 2.303349,3.37407906 c 8.471823,12.4100672 19.518122,22.1280992 32.558516,28.6435002 12.160563,6.075811 23.75495,8.804818 37.378509,8.797894 13.35212,-0.007 25.20709,-2.886393 37.47443,-9.102665 12.96169,-6.568122 24.51704,-16.88257 32.495,-29.0054791 l 1.78167,-2.70732916 h 3.42953 3.42956 l -0.73381,1.23442336 c -0.40358,0.6789303 -1.82625,2.895417 -3.16147,4.9255232 -6.79746,10.3349907 -17.39486,20.6115377 -28.08875,27.2382937 -10.7694,6.673573 -25.16811,11.651936 -37.59566,12.99874 -3.77204,0.408787 -15.4313,0.386755 -19.18763,-0.03626 z"
       id="path6671" />
    <path
       style="fill:#ff0000;fill-rule:evenodd;stroke-width:0.32918"
       d="M 106.99487,33.393685 C 92.475587,32.017445 79.149181,26.885423 67.658044,18.245009 63.879806,15.404083 60.859723,12.663531 57.083248,8.6489802 54.366864,5.7613621 50.376169,0.82119273 50.376169,0.3461501 c 0,-0.10402082 1.593977,-0.18912436 3.542176,-0.18912436 h 3.542186 l 1.45298,1.82088546 c 2.010519,2.5195777 8.58897,8.8229918 11.553189,11.0701478 7.968475,6.040855 17.515806,10.557601 27.020012,12.782901 8.918998,2.088289 20.327808,2.265338 29.258868,0.454057 14.8995,-3.021706 29.25706,-11.328757 39.19076,-22.6751346 l 3.02297,-3.45285666 h 3.60198 3.60198 l -1.09028,1.52235066 c -10.889,15.2041946 -28.45576,26.5597436 -47.0107,30.3887686 -6.50279,1.341917 -15.15278,1.886168 -21.06742,1.32554 z"
       id="path6710" />
    <path
       style="fill:#ff0000;fill-rule:evenodd;stroke-width:0.32918"
       d="M 106.66569,19.867397 C 94.319725,18.446574 82.410356,13.325892 72.924894,5.3598298 71.295462,3.9914064 69.376737,2.2609595 68.661062,1.5144041 L 67.359837,0.15702574 h 4.152425 4.152425 l 3.238607,2.41282836 c 9.142568,6.8114074 18.355912,10.3702079 29.607626,11.4364089 13.75224,1.303147 28.9708,-3.360049 40.0947,-12.2856397 l 1.9487,-1.56359756 4.30769,0.0152731 4.30766,0.0152731 -2.30426,2.14525026 c -7.32418,6.818786 -15.17019,11.5743038 -24.03003,14.5647668 -8.39909,2.834947 -17.93688,3.917356 -26.16969,2.969889 z"
       id="path6749" />
    <path
       style="fill:#ff0000;fill-rule:evenodd;stroke-width:0.32918"
       d="M 106.83029,6.3913449 C 101.65827,5.6960124 95.721762,3.800371 90.999675,1.3363418 L 88.725462,0.1496271 98.929994,0.32212525 c 5.612496,0.0948744 11.241456,0.26218689 12.508786,0.37179904 1.26734,0.10962048 4.37808,0.0218393 6.91274,-0.19512314 2.53469,-0.21692832 7.86738,-0.34554088 11.85043,-0.28580606 l 7.24193,0.10861952 -3.12719,1.52289699 c -3.67188,1.7881433 -7.3536,3.0433725 -11.59308,3.9524838 -3.54839,0.7609203 -12.23745,1.0858606 -15.89332,0.5943514 z"
       id="path6788" />
    <path
       style="fill:#00ff00;fill-rule:evenodd;stroke-width:0.32918"
       d="m 196.57509,259.13848 c -2.01897,-10.58063 -2.67031,-17.62625 -2.67031,-28.88543 0,-15.96762 1.87994,-28.8825 6.41879,-44.0963 14.4786,-48.53072 52.79379,-87.442161 102.40924,-104.002846 4.66651,-1.557595 13.30711,-3.978235 14.20847,-3.980454 0.32096,-6.25e-4 0.40113,0.69242 0.32917,2.846309 l -0.095,2.847347 -4.11475,1.083188 c -25.57021,6.73125 -50.59582,21.128936 -69.46586,39.964956 -24.71566,24.67114 -39.43456,55.44971 -43.3289,90.60481 -0.68281,6.1639 -0.77284,22.17299 -0.15781,28.06472 0.57012,5.46178 1.58619,12.12591 2.53455,16.62352 0.43903,2.08208 0.79899,3.89665 0.79991,4.03245 6.3e-4,0.13575 -1.31419,0.24688 -2.92249,0.24688 h -2.92419 z"
       id="path7061" />
    <path
       style="fill:#00ff00;fill-rule:evenodd;stroke-width:0.32918"
       d="m 209.76974,261.44274 c -3.43055,-14.96992 -4.36485,-32.53593 -2.53434,-47.64864 6.53639,-53.9647 42.61924,-98.93417 95.05521,-118.46579 3.58818,-1.336538 14.2027,-4.647098 14.8998,-4.647098 0.0823,0 0.14951,1.311189 0.14951,2.913753 v 2.913759 l -2.22196,0.594101 c -1.22206,0.326775 -4.59203,1.393982 -7.4888,2.371608 -50.38114,17.002827 -86.854,60.131897 -94.15778,111.341337 -2.36359,16.57213 -1.74502,33.19468 1.82318,48.99154 0.54315,2.40466 0.98755,4.44144 0.98755,4.5262 0,0.0847 -1.30828,0.1541 -2.9073,0.1541 h -2.90732 z"
       id="path7100" />
    <path
       style="fill:#00ff00;fill-rule:evenodd;stroke-width:0.32918"
       d="m 222.41812,260.78436 c -5.80256,-24.31977 -4.72295,-48.54438 3.2018,-71.84327 12.28785,-36.12648 39.2852,-64.69305 75.58103,-79.97425 4.21601,-1.77501 12.86219,-4.79949 15.06916,-5.27127 l 1.06981,-0.22871 -0.007,2.90648 -0.007,2.90647 -3.53235,1.0992 c -23.74664,7.3895 -46.25134,22.76136 -61.87443,42.26344 -15.00555,18.73121 -23.75918,39.98099 -26.81801,65.1018 -0.55503,4.55826 -0.54768,20.42918 0.0119,25.18218 0.6456,5.48588 1.88606,12.48473 3.00352,16.94624 0.55132,2.20128 1.00243,4.14015 1.00243,4.30864 0,0.16849 -1.30915,0.30632 -2.9092,0.30632 h -2.90922 z"
       id="path7139" />
    <path
       style="fill:#00ff00;fill-rule:evenodd;stroke-width:0.32918"
       d="m 236.25577,264.24075 c -0.0798,-0.13575 -0.67472,-2.3207 -1.32203,-4.85537 -5.26078,-20.59997 -4.93802,-41.23368 0.96415,-61.63528 9.78131,-33.81028 34.58472,-61.83305 67.61655,-76.39279 4.00082,-1.76347 12.75323,-5.00016 13.52106,-5.00016 0.16748,0 0.30442,1.30613 0.30442,2.9025 v 2.90249 l -1.89275,0.58847 c -3.23341,1.00527 -9.92936,3.80862 -14.40158,6.02941 -36.71011,18.22925 -60.49188,52.96754 -63.72161,93.07894 -0.68521,8.51 -0.0735,20.14112 1.51371,28.77964 0.49075,2.67101 2.81655,12.03547 3.29656,13.27297 0.20271,0.52264 -0.0528,0.57606 -2.75497,0.57606 -1.63812,0 -3.04371,-0.11114 -3.12351,-0.24688 z"
       id="path7178" />
    <path
       style="fill:#00ff00;fill-rule:evenodd;stroke-width:0.32918"
       d="m 248.27989,260.94896 c -2.07103,-7.14208 -3.18059,-12.51106 -4.06468,-19.66844 -0.51665,-4.18274 -0.5232,-17.41326 -0.0102,-21.7258 2.59108,-21.80516 10.85305,-40.98964 24.80868,-57.6063 3.61823,-4.30814 11.35245,-11.70363 16.00793,-15.3068 7.99232,-6.1858 18.65841,-12.298 27.3812,-15.69073 5.55887,-2.16215 4.97874,-2.30522 4.86807,1.20064 l -0.095,3.00883 -3.1272,1.24793 c -13.12952,5.23937 -24.61937,12.81453 -34.74447,22.90671 -8.51448,8.48677 -14.09835,16.17192 -19.25354,26.49888 -6.73189,13.48545 -9.98554,26.49419 -10.41704,41.64909 -0.27862,9.78578 0.56175,18.03329 2.70782,26.57502 0.73841,2.93902 2.49868,8.83321 2.99785,10.03817 0.1293,0.31212 -0.57842,0.41147 -2.93117,0.41147 h -3.10161 z"
       id="path7217" />
    <path
       style="fill:#00ff00;fill-rule:evenodd;stroke-width:0.32918"
       d="m 261.12584,259.46767 c -5.64432,-17.03579 -6.39295,-34.21542 -2.22949,-51.16204 3.154,-12.83773 9.21097,-25.18117 17.49801,-35.6589 3.05234,-3.85926 12.14646,-12.87601 15.92802,-15.79251 3.96619,-3.05893 8.97988,-6.38046 13.27161,-8.79241 3.36103,-1.88888 10.75137,-5.37035 11.39999,-5.37035 0.2158,0 0.34594,1.0974 0.34594,2.91681 v 2.9168 l -2.7157,1.23382 c -9.03576,4.10518 -18.41516,10.54595 -25.88099,17.77233 -14.04678,13.5962 -22.94302,30.89223 -25.91179,50.3776 -0.75396,4.94844 -0.86238,18.092 -0.18873,22.87794 0.99308,7.05545 3.08346,15.27155 5.31425,20.88718 0.54655,1.37593 0.99375,2.57186 0.99375,2.65768 0,0.0859 -1.3864,0.15595 -3.08084,0.15595 h -3.08081 z"
       id="path7256" />
    <path
       style="fill:#00ff00;fill-rule:evenodd;stroke-width:0.32918"
       d="m 275.23861,261.81721 c -11.3727,-27.06247 -7.70674,-56.66271 9.93936,-80.25367 2.8712,-3.8385 11.20452,-12.26787 15.08244,-15.25631 4.02953,-3.10525 9.42459,-6.55738 13.54085,-8.66435 l 3.53866,-1.81131 v 3.11406 3.11408 l -2.7157,1.48118 c -18.752,10.22756 -32.83136,28.26444 -37.9221,48.58157 -1.60006,6.38594 -1.98649,9.88065 -1.98649,17.96597 0,8.43096 0.37989,11.58378 2.30053,19.0924 1.10818,4.3324 3.3283,10.48609 4.90749,13.60251 l 0.86365,1.70429 -3.21506,-0.003 -3.21503,-0.003 z"
       id="path7295" />
    <path
       style="fill:#00ff00;fill-rule:evenodd;stroke-width:0.32918"
       d="m 289.57137,263.05687 c -0.46116,-0.78691 -1.45586,-2.8237 -2.21046,-4.52621 -8.36919,-18.88235 -8.19432,-39.34347 0.49068,-57.40995 3.8404,-7.98881 7.50752,-13.14697 13.82043,-19.43977 4.25942,-4.24586 8.22774,-7.4334 13.03451,-10.46988 l 2.46883,-1.55962 0.0972,3.22584 c 0.0918,3.04605 0.0555,3.25336 -0.65225,3.7196 -15.37306,10.12718 -25.59092,25.38264 -28.77251,42.95784 -0.71263,3.93659 -0.97764,13.36675 -0.49162,17.49431 1.05682,8.97536 4.48458,19.18454 8.74286,26.03959 l 0.86905,1.39901 h -3.27916 -3.27917 z"
       id="path7334" />
    <path
       style="fill:#00ff00;fill-rule:evenodd;stroke-width:0.32918"
       d="m 303.28846,261.9365 c -9.20319,-14.0206 -11.94096,-31.22625 -7.47715,-46.99027 2.41932,-8.54399 7.31147,-17.05468 13.56741,-23.60268 2.36768,-2.47822 7.32039,-6.84637 7.76259,-6.84637 0.10926,0 0.19861,1.56627 0.19861,3.48063 v 3.48061 l -1.80686,1.6514 c -2.28259,2.08615 -5.49929,5.9447 -7.7216,9.26237 -9.67814,14.44826 -10.96417,33.84508 -3.3248,50.14707 1.32299,2.82322 4.21951,7.50264 6.08385,9.82873 1.80343,2.25005 1.90831,2.13964 -2.033,2.13964 h -3.57445 z"
       id="path7373" />
    <path
       style="fill:#00ff00;fill-rule:evenodd;stroke-width:0.32918"
       d="m 315.12928,257.24569 c -3.85604,-5.2731 -6.76103,-11.80433 -8.1992,-18.434 -0.85667,-3.94906 -0.85551,-13.17767 0.003,-17.1173 1.49307,-6.85841 5.15136,-14.55788 9.20353,-19.37041 l 1.2042,-1.43016 v 4.72816 4.72817 l -1.3117,2.61097 c -4.86029,9.6747 -5.3966,21.36107 -1.44971,31.58935 0.63339,1.64145 1.51781,3.61015 1.96536,4.37488 0.77994,1.33273 0.80994,1.59233 0.7226,6.25441 l -0.0911,4.86397 z"
       id="path7412" />
  </g>
</svg>
