<?xml version="1.0" encoding="UTF-8" standalone="no"?>
<!-- Created with Inkscape (http://www.inkscape.org/) -->

<svg
   width="1200"
   height="1000"
   viewBox="0 0 317.5 264.58333"
   version="1.1"
   id="svg302"
   inkscape:version="1.1.1 (3bf5ae0, 2021-09-20)"
   sodipodi:docname="set_getter.svg"
   xmlns:inkscape="http://www.inkscape.org/namespaces/inkscape"
   xmlns:sodipodi="http://sodipodi.sourceforge.net/DTD/sodipodi-0.dtd"
   xmlns="http://www.w3.org/2000/svg"
   xmlns:svg="http://www.w3.org/2000/svg">
  <sodipodi:namedview
     id="namedview304"
     pagecolor="#505050"
     bordercolor="#ffffff"
     borderopacity="1"
     inkscape:pageshadow="0"
     inkscape:pageopacity="0"
     inkscape:pagecheckerboard="1"
     inkscape:document-units="px"
     showgrid="false"
     units="px"
     inkscape:snap-global="false"
     inkscape:zoom="0.75187991"
     inkscape:cx="101.74497"
     inkscape:cy="455.52487"
     inkscape:window-width="1920"
     inkscape:window-height="1016"
     inkscape:window-x="0"
     inkscape:window-y="27"
     inkscape:window-maximized="1"
     inkscape:current-layer="layer1" />
  <defs
     id="defs299" />
  <g
     inkscape:label="Layer 1"
     inkscape:groupmode="layer"
     id="layer1">
    <path
       style="fill:#000000;stroke-width:0.376388"
       d="m 185.35469,153.71142 c -13.84465,-4.03678 -26.0271,-3.67971 -37.54917,1.10055 -6.79717,2.81999 -13.97793,8.211 -19.68153,14.77606 -1.36184,1.5675 -2.54383,2.88664 -2.62666,2.93141 -0.0828,0.0447 -1.20508,-1.71999 -2.49389,-3.92171 -2.87576,-4.91275 -6.3974,-8.98217 -9.88885,-11.42695 -3.37387,-2.36242 -9.4663,-4.30874 -14.075393,-4.49654 -6.00045,-0.24449 -14.14565,1.20526 -21.03185,3.74329 -1.75848,0.64814 -3.23738,1.09197 -3.28645,0.98628 -0.049,-0.10575 0.93874,-1.40084 2.1951,-2.87817 3.22086,-3.78729 5.30902,-7.36417 6.55354,-11.22577 3.24083,-10.05585 -1.12707,-19.17514 -13.77638,-28.7623 -1.89583,-1.4369 -3.42046,-2.70055 -3.38805,-2.80814 0.0324,-0.10758 2.05555,-0.69366 4.49587,-1.30237 8.61152,-2.14805 10.70515,-2.96547 18.71982,-7.30887 6.85777,-3.716461 7.64454,-4.227151 10.637633,-6.904941 6.00403,-5.37154 10.52827,-11.587499 13.78656,-18.941641 1.78077,-4.019332 4.37265,-12.687287 5.03215,-16.828983 l 0.38698,-2.430274 2.88666,1.533899 c 5.33076,2.832614 10.15916,4.886493 15.26044,6.491374 15.8303,4.980291 27.48917,2.372331 38.44937,-8.600698 2.43822,-2.441064 4.71617,-5.212543 13.93055,-16.948656 l 2.18345,-2.780983 3.03232,5.275844 c 5.10833,8.887815 8.29643,12.880568 13.11144,16.420675 8.26005,6.072993 19.05234,5.586753 32.13933,-1.448026 l 2.7333,-1.468962 -2.12943,3.207342 c -7.33533,11.048394 -10.13458,21.139473 -8.38573,30.229859 0.31862,1.65614 1.0195,3.41948 2.45575,6.17831 2.19592,4.217581 4.29427,6.752471 8.39841,10.144211 1.1884,0.9821 2.00896,1.8677 1.82344,1.96797 -0.18551,0.10034 -1.96318,0.59 -3.95039,1.08826 -12.67339,3.17771 -25.05051,8.53957 -32.25584,13.97352 -9.26959,6.99069 -13.89083,14.02772 -17.57679,26.76524 l -1.45528,5.02896 -4.6603,-1.35883 z"
       id="path35703" />
    <path
       style="fill:#ff0000;stroke-width:0.351896"
       d="m 184.0675,150.86502 c -13.07107,-3.73734 -24.57281,-3.40676 -35.45107,1.01892 -6.41737,2.61081 -13.1969,7.60193 -18.58181,13.68001 -1.28574,1.45123 -2.40169,2.67252 -2.47989,2.71397 -0.0782,0.0414 -1.13774,-1.59241 -2.35454,-3.63081 -2.71507,-4.54834 -6.03995,-8.3159 -9.33631,-10.57933 -3.18535,-2.18719 -8.93736,-3.98913 -13.28891,-4.163 -5.665169,-0.22636 -13.355246,1.11585 -19.856669,3.46562 -1.660228,0.60006 -3.056495,1.01097 -3.102814,0.91312 -0.04623,-0.0979 0.886283,-1.29693 2.072442,-2.66467 3.040892,-3.50636 5.012369,-6.81792 6.187358,-10.39308 3.059741,-9.30994 -1.064094,-17.75279 -13.006612,-26.62881 -1.789897,-1.33031 -3.229336,-2.50023 -3.198744,-2.59984 0.0306,-0.0996 1.940693,-0.6422 4.244666,-1.20576 8.130334,-1.98871 10.106984,-2.7455 17.673821,-6.76672 6.474582,-3.44078 7.217392,-3.91359 10.043242,-6.39275 5.66855,-4.973097 9.93999,-10.727977 13.01622,-17.53661 1.68127,-3.72119 4.12832,-11.746182 4.75098,-15.580659 l 0.36536,-2.250003 2.72537,1.420119 c 5.03289,2.622499 9.5915,4.524027 14.40774,6.009863 14.94577,4.610867 25.95318,2.196358 36.30097,-7.962724 2.30198,-2.259993 4.45265,-4.825892 13.15217,-15.691454 l 2.06144,-2.574698 2.86288,4.884497 c 4.8229,8.228543 7.83286,11.925126 12.37882,15.202638 7.79851,5.622516 17.98777,5.172344 30.34351,-1.340616 l 2.58058,-1.359999 -2.01045,2.969431 c -6.92546,10.228857 -9.5683,19.571409 -7.91717,27.987494 0.30082,1.533292 0.96254,3.165839 2.31854,5.720032 2.07322,3.904729 4.05432,6.251589 7.92914,9.391739 1.12199,0.90925 1.8967,1.72916 1.72155,1.82199 -0.17515,0.0929 -1.85349,0.54624 -3.72966,1.00754 -11.96525,2.94199 -23.65078,7.90613 -30.45351,12.937 -8.75164,6.47215 -13.11466,12.9872 -16.59466,24.77988 l -1.37396,4.65593 -4.3999,-1.25804 z"
       id="path1759" />
    <path
       style="fill:#00ff00;stroke-width:0.351896"
       d="m 183.89207,147.63976 c -6.68196,-2.17643 -15.79245,-3.12239 -22.73089,-2.36018 -11.49175,1.26241 -21.34819,6.39667 -29.94178,15.59675 -1.61301,1.72685 -2.98764,3.16882 -3.05475,3.20438 -0.0673,0.0356 -1.13747,-1.68216 -2.37856,-3.8172 -2.53572,-4.3622 -4.23119,-6.33386 -7.46923,-8.68603 -7.42817,-5.39592 -19.025201,-5.44657 -33.535104,-0.1465 l -1.655388,0.60469 1.732092,-1.87062 c 5.561075,-6.00574 8.229446,-12.21319 7.632594,-17.75572 -0.183678,-1.70569 -0.556875,-2.70549 -2.109816,-5.65234 -2.416472,-4.58537 -4.563808,-6.84921 -10.917641,-11.50962 -1.547961,-1.13541 -2.790826,-2.1414 -2.761916,-2.23553 0.0289,-0.0941 1.236678,-0.43182 2.683915,-0.75039 7.896984,-1.73833 16.323872,-5.13339 22.124154,-8.91348 8.42434,-5.490206 14.46007,-12.485006 18.60014,-21.555696 1.22357,-2.680776 3.56083,-10.254434 3.98524,-12.913777 0.17138,-1.073818 0.39564,-2.002491 0.49837,-2.063718 0.10272,-0.06124 0.89312,0.275964 1.75644,0.749309 0.86331,0.473349 3.30965,1.611246 5.4363,2.528657 12.10858,5.223493 21.98609,6.315611 30.54005,3.376681 6.83724,-2.349105 11.95984,-6.783649 21.79099,-18.864109 2.69542,-3.312125 5.01206,-6.081042 5.14808,-6.153146 0.13603,-0.07211 1.64328,2.310175 3.34946,5.293957 4.27894,7.483009 7.5125,11.13274 12.25173,13.828614 6.83438,3.887677 16.37401,2.928514 27.11161,-2.725949 l 1.91309,-1.007305 -1.89118,2.818802 c -10.95302,16.325553 -10.54974,29.301624 1.20321,38.71478 1.31431,1.05265 2.3735,1.95899 2.35377,2.01407 -0.0198,0.0551 -2.06806,0.66189 -4.55181,1.34845 -9.36711,2.58922 -13.37496,4.15023 -20.96272,8.16469 -5.64053,2.98429 -7.44063,4.07813 -9.27706,5.63748 -3.25008,2.75973 -5.60353,5.34825 -7.75233,8.52666 -2.38824,3.53259 -3.80573,6.63693 -5.70618,12.4966 l -1.52218,4.69333 -1.89265,-0.61648 z"
       id="path2145" />
    <path
       style="fill:#0000ff;stroke-width:0.351896"
       d="m 179.66446,143.55943 c -3.93112,-0.9795 -10.97892,-1.79037 -14.85653,-1.7093 -3.90543,0.0817 -9.6292,1.10772 -13.55649,2.43017 -6.72322,2.26393 -15.17008,7.94156 -20.07591,13.49421 -0.872,0.98695 -1.68757,1.8486 -1.81237,1.91477 -0.12482,0.0661 -1.03912,-1.19664 -2.03178,-2.8062 -0.99266,-1.60958 -2.49591,-3.70933 -3.34056,-4.66613 -6.68613,-7.57389 -17.17288,-9.01298 -31.350128,-4.30216 -5.524234,1.8356 -5.353543,1.84596 -3.428994,-0.20818 4.774901,-5.09642 7.160312,-10.17945 7.023833,-14.9669 -0.08322,-2.9195 -0.132404,-3.08584 -1.852169,-6.26449 -2.077849,-3.84044 -4.122099,-5.98237 -9.225921,-9.66658 -1.749708,-1.26304 -3.166721,-2.34644 -3.148908,-2.40758 0.01783,-0.0611 1.766253,-0.58325 3.885417,-1.1603 6.29981,-1.71544 10.183598,-3.22112 15.29373,-5.92912 13.00995,-6.89408 20.20585,-15.643946 24.55712,-29.859161 1.5296,-4.997084 1.98177,-6.078495 2.42259,-5.793961 1.59294,1.028162 7.49979,3.350945 11.9227,4.688451 12.63753,3.821613 22.07633,2.54088 30.73883,-4.170908 3.58138,-2.774872 5.34584,-4.590253 11.58184,-11.916091 3.04276,-3.574528 5.64684,-6.559878 5.78686,-6.634097 0.14001,-0.07421 1.4936,2.031073 3.00799,4.678399 1.6565,2.895758 3.4583,5.629713 4.52274,6.862549 2.26667,2.625285 6.21945,5.555665 8.82153,6.539818 5.82088,2.201541 13.97812,0.885478 22.50481,-3.630851 l 2.72044,-1.440928 -2.35813,3.403629 c -4.38104,6.3234 -6.90562,12.306198 -7.36498,17.453667 -0.58427,6.547385 2.46438,12.783714 8.54551,17.480734 1.06088,0.81941 1.87886,1.51632 1.81777,1.54871 -0.0611,0.0324 -1.87763,0.55707 -4.03673,1.16595 -8.21053,2.31543 -13.28791,4.29981 -19.90452,7.7792 -7.0238,3.69356 -9.50122,5.50471 -13.46261,9.84222 -3.8259,4.18913 -6.97296,10.04228 -8.83664,16.43499 -0.38569,1.32305 -0.80493,2.46049 -0.93163,2.52766 -0.1267,0.0672 -1.73712,-0.25332 -3.57871,-0.71219 z"
       id="path2399" />
    <path
       style="fill:#ffdd55;stroke-width:0.351896"
       d="m 179.55501,140.74035 c -1.80406,-0.65918 -9.36752,-1.68863 -12.68786,-1.72691 -13.10897,-0.15113 -25.01048,4.94244 -34.50498,14.76734 l -2.15542,2.23042 -1.70831,-2.68835 c -3.1411,-4.94311 -6.00334,-7.46208 -10.16873,-8.94917 -5.54392,-1.97924 -13.8316,-1.30518 -22.658641,1.8429 -3.836335,1.36819 -3.925145,1.34206 -2.110648,-0.62095 4.71365,-5.09944 7.085159,-10.39001 6.535509,-14.57999 -0.341395,-2.60247 -1.806733,-5.53273 -3.94661,-7.89208 -1.138493,-1.25527 -6.066107,-5.13117 -9.002606,-7.08115 -0.113181,-0.0752 1.336219,-0.5374 3.220877,-1.02722 9.19221,-2.389 18.865389,-7.20439 24.754499,-12.32299 6.33184,-5.503394 10.8391,-12.523589 13.72701,-21.380159 0.90512,-2.775841 1.71495,-5.012286 1.79961,-4.969901 3.94481,1.974909 13.6687,5.090206 17.12953,5.487882 8.31645,0.955599 13.65539,-0.05404 19.89211,-3.761802 4.46716,-2.655735 7.27223,-5.239577 13.99154,-12.888074 2.87095,-3.267967 5.31899,-5.994279 5.4401,-6.058471 0.1211,-0.0642 1.22957,1.574646 2.46328,3.641861 4.36088,7.307117 8.16126,10.890042 13.0965,12.347122 5.30067,1.564969 10.7139,0.698866 18.16173,-2.905833 l 4.67156,-2.260995 -2.33743,3.283262 c -6.33981,8.905222 -8.39918,16.322921 -6.2672,22.574103 0.93769,2.749355 2.88632,5.338925 6.00057,7.974285 1.31308,1.11115 2.30207,2.06551 2.19777,2.1208 -0.10431,0.0553 -2.04787,0.65175 -4.31903,1.32546 -9.69108,2.87474 -20.13871,7.64645 -25.3307,11.5692 -6.24969,4.72186 -10.298,10.34529 -13.34962,18.54369 -0.74089,1.99042 -1.4025,3.64834 -1.47025,3.68426 -0.0677,0.0359 -0.54663,-0.0894 -1.06416,-0.27854 z"
       id="path2627" />
    <path
       style="fill:#000000;stroke-width:0.351896"
       d="m 120.20995,144.17545 c -3.74698,-3.03933 -4.6474,-6.45111 -2.06396,-7.82054 1.721,-0.91227 2.72373,0.25849 2.31246,2.69998 -0.1397,0.82938 -0.0361,1.12458 0.5302,1.51119 1.10085,0.75152 1.43516,0.67764 4.67413,-1.03278 3.27269,-1.72824 4.267,-2.66263 5.36176,-5.03858 0.4949,-1.07408 0.52437,-1.71343 0.1305,-2.83196 -0.28479,-0.80874 -0.79147,-1.6348 -1.15106,-1.8766 -0.82701,-0.5561 -5.42066,-0.3017 -7.79079,0.43148 -2.89144,0.89444 -8.65138,0.23713 -11.91751,-1.36001 -1.83509,-0.89736 -2.33656,-1.80004 -2.45263,-4.41495 -0.0946,-2.13076 1.31291,-6.89767 2.61887,-8.86966 1.33065,-2.00928 4.35146,-4.27435 7.20285,-5.40085 3.36552,-1.32961 7.7427,-0.20798 7.734,1.9818 -0.003,0.87563 -0.0302,0.89431 -1.12754,0.78888 -3.83883,-0.36881 -4.51488,-0.25004 -6.9219,1.21609 -3.39703,2.06915 -5.44373,5.40804 -5.39064,8.79407 0.0619,3.9455 1.81198,4.45189 10.61854,3.07246 4.8041,-0.75251 6.44567,-0.74945 8.33962,0.0155 2.7737,1.1203 4.35564,4.24002 3.99869,7.88573 -0.32463,3.31562 -2.60197,5.71863 -9.3388,9.85424 l -3.33168,2.04523 z"
       id="path23238" />
    <path
       style="fill:#000000;stroke-width:0.351896"
       d="m 148.22125,132.40252 c -1.60723,0.39045 -1.93565,0.30197 -2.93756,-0.79141 -0.50092,-0.54666 -3.90668,-5.7578 -7.56835,-11.58032 -8.40433,-13.36397 -8.1185,-12.28226 -4.45037,-16.84255 3.13834,-3.901619 5.02791,-5.529468 8.68304,-7.480345 2.85583,-1.524278 4.39664,-1.848978 4.83647,-1.019242 0.37341,0.704433 -0.42333,1.587044 -4.1042,4.546562 -6.56648,5.279625 -8.55999,8.117415 -7.08168,10.080885 0.37262,0.49489 1.6806,2.39878 2.90665,4.23084 2.12625,3.17723 2.25495,3.30644 2.78789,2.79854 1.33504,-1.27233 5.36424,-4.65268 7.13581,-5.98669 2.12006,-1.59641 3.28304,-1.86628 3.80437,-0.88281 0.62471,1.17854 -0.31984,2.45663 -4.63849,6.27652 -1.56588,1.38503 -3.29456,2.94192 -3.84151,3.45976 l -0.99445,0.94154 2.01709,3.7937 c 1.10938,2.08654 2.24533,3.92408 2.52432,4.08344 1.08079,0.61732 6.50097,-3.59979 9.86263,-7.67352 1.84481,-2.23558 2.36177,-2.48271 3.64922,-1.74449 1.0069,0.57735 0.7704,2.04882 -0.67302,4.18754 -2.41132,3.57288 -9.02122,8.89838 -11.91786,9.60205 z"
       id="path23277" />
    <path
       style="fill:#000000;stroke-width:0.351896"
       d="m 188.15837,112.6034 c -1.34207,-0.55269 -3.29353,-3.06058 -7.57983,-9.74116 -4.81772,-7.508824 -7.18489,-10.93397 -8.8136,-12.752737 -0.98662,-1.101755 -1.0758,-1.122418 -2.22192,-0.514877 -0.65673,0.348119 -2.14405,1.305885 -3.30514,2.128367 -6.12604,4.339491 -7.97864,5.49755 -8.99446,5.622457 -1.9265,0.236886 -2.58769,-1.327333 -1.1326,-2.679488 0.41003,-0.381021 2.565,-2.037626 4.78884,-3.681346 2.22384,-1.643723 7.09497,-5.310915 10.82477,-8.149315 8.00616,-6.092759 9.73386,-7.104927 11.76091,-6.890131 3.24724,0.344093 2.5621,1.99622 -2.05187,4.947816 -1.7762,1.136246 -3.84931,2.587064 -4.60693,3.224044 -2.89724,2.435908 -2.74327,2.184968 -1.94029,3.162209 1.65743,2.017098 3.93656,5.397685 9.49177,14.078941 4.23873,6.62396 5.85692,9.37135 5.85466,9.94016 -0.004,0.92273 -1.1901,1.66919 -2.07431,1.30506 z"
       id="path23316" />
    <path
       style="fill:#000000;stroke-width:0.351896"
       d="m 206.14732,89.808306 c -0.27276,-0.237774 -2.17114,-2.950401 -4.21861,-6.028063 -2.91515,-4.381941 -3.68361,-5.719628 -3.54261,-6.166849 0.13518,-0.428782 0.83881,-0.82106 2.82354,-1.574131 1.45392,-0.551665 2.74298,-0.972472 2.86458,-0.935129 0.45396,0.139422 3.81704,12.90817 3.7332,14.173951 -0.0415,0.626315 -1.1454,0.978886 -1.6601,0.530221 z"
       id="path23355" />
    <path
       style="fill:#000000;stroke-width:0.351896"
       d="m 211.2553,98.799982 c -1.69184,0.233365 -2.57487,-0.04737 -3.06655,-0.974907 -0.45265,-0.853931 -0.43249,-2.428066 0.0454,-3.54888 0.70707,-1.658123 3.77478,-2.01726 4.56105,-0.533963 0.77342,1.459072 0.58855,4.775046 -0.2723,4.884223 -0.0648,0.008 -0.63525,0.08632 -1.26765,0.173527 z"
       id="path23394" />
  </g>
</svg>
