<?xml version="1.0" encoding="UTF-8" standalone="no"?>
<!-- Created with Inkscape (http://www.inkscape.org/) -->

<svg
   width="210mm"
   height="297mm"
   viewBox="0 0 210 297"
   version="1.1"
   id="svg416"
   xmlns:inkscape="http://www.inkscape.org/namespaces/inkscape"
   xmlns:sodipodi="http://sodipodi.sourceforge.net/DTD/sodipodi-0.dtd"
   xmlns="http://www.w3.org/2000/svg"
   xmlns:svg="http://www.w3.org/2000/svg">
  <sodipodi:namedview
     id="namedview418"
     pagecolor="#505050"
     bordercolor="#ffffff"
     borderopacity="1"
     inkscape:pageshadow="0"
     inkscape:pageopacity="0"
     inkscape:pagecheckerboard="1"
     inkscape:document-units="mm"
     showgrid="false"
     inkscape:zoom="2.1266375"
     inkscape:cx="354.78542"
     inkscape:cy="297.88809"
     inkscape:window-width="1920"
     inkscape:window-height="1016"
     inkscape:window-x="0"
     inkscape:window-y="27"
     inkscape:window-maximized="1"
     inkscape:current-layer="layer1" />
  <defs
     id="defs413" />
  <g
     inkscape:label="Layer 1"
     inkscape:groupmode="layer"
     id="layer1">
    <rect
       style="fill:#ffe680;stroke-width:0.264583"
       id="rect442"
       width="120"
       height="100"
       x="19.217472"
       y="46.90691" />
    <path
       style="fill:#0000ff;fill-rule:evenodd;stroke-width:0.470226"
       d="M 93.512609,553.42886 C 89.304868,551.43295 83.170367,549.63173 77.2346,548.64931 l -4.584702,-0.75882 v -4.62337 -4.62338 l 1.293121,6.5e-4 c 1.908833,9.5e-4 8.669907,1.25008 12.762558,2.35794 7.939143,2.14907 15.447263,5.58908 22.510893,10.31387 2.37144,1.58623 4.43706,3.08687 4.59026,3.33475 0.17412,0.28173 -2.9491,0.43535 -8.33083,0.40976 l -8.609369,-0.0409 z"
       id="path3982"
       transform="scale(0.26458333)" />
    <path
       style="fill:#0000ff;fill-rule:evenodd;stroke-width:0.470226"
       d="M 125.94032,550.93213 C 113.28051,538.8133 95.235105,530.41359 77.2346,528.26075 l -4.584702,-0.54832 v -4.84975 -4.84975 l 1.528234,0.18512 c 0.840529,0.10181 3.53845,0.42688 5.99538,0.72238 9.010103,1.08364 20.487348,4.60621 29.389118,9.02005 11.77333,5.83767 24.33137,15.81784 31.6622,25.16271 l 1.56775,1.99846 -6.27001,-0.0208 -6.27,-0.0208 z"
       id="path4021"
       transform="scale(0.26458333)" />
    <path
       style="fill:#0000ff;fill-rule:evenodd;stroke-width:0.470226"
       d="m 153.17819,550.98717 c -5.00193,-7.05034 -12.87568,-15.21853 -20.33938,-21.1 -7.7306,-6.09179 -19.57145,-12.66486 -29.154,-16.18392 -8.335441,-3.06108 -22.737121,-6.09441 -28.935063,-6.09441 h -2.099849 v -4.95868 -4.95868 l 1.528234,0.23475 c 0.840529,0.12911 3.115247,0.36742 5.054928,0.52957 5.369864,0.44891 13.247139,1.96664 19.524514,3.76183 21.756476,6.22186 41.484456,18.75446 55.868606,35.49164 4.29674,4.99962 9.04408,11.40571 11.40792,15.39392 l 1.1845,1.99846 h -5.56068 -5.56068 z"
       id="path4060"
       transform="scale(0.26458333)" />
    <path
       style="fill:#0000ff;fill-rule:evenodd;stroke-width:0.470226"
       d="m 178.16854,552.65763 c -5.94506,-11.732 -19.29867,-27.77693 -30.88631,-37.11118 -20.26013,-16.32026 -45.61578,-26.48957 -69.812517,-27.99948 l -4.819815,-0.30076 v -4.90335 -4.90334 l 3.174025,0.29608 c 20.608633,1.92242 35.667967,6.01841 51.942537,14.12784 25.8581,12.8848 46.04876,32.60887 60.041,58.65351 l 2.46309,4.5847 h -5.43176 -5.43178 z"
       id="path4099"
       transform="scale(0.26458333)" />
    <path
       style="fill:#0000ff;fill-rule:evenodd;stroke-width:0.470226"
       d="M 199.70116,550.26397 C 185.76931,520.72845 161.10213,495.97594 131.19302,481.5188 113.85503,473.13816 93.585364,467.89462 75.23614,467.04337 l -2.351129,-0.10907 -0.134006,-4.81982 c -0.121305,-4.36297 -0.05445,-4.81978 0.705338,-4.81942 0.46164,2.2e-4 3.166964,0.21208 6.01183,0.47081 16.420991,1.49344 30.163337,4.68403 44.650907,10.36672 37.71015,14.79165 68.3783,43.65428 84.99518,79.99128 1.49737,3.27439 2.7225,6.18392 2.7225,6.46561 0,0.33682 -1.68677,0.51217 -4.92684,0.51217 h -4.92683 z"
       id="path4138"
       transform="scale(0.26458333)" />
    <path
       style="fill:#0000ff;fill-rule:evenodd;stroke-width:0.470226"
       d="m 222.42726,551.69251 c -2.15952,-5.60397 -7.9458,-17.36835 -11.44666,-23.27279 -11.60279,-19.56893 -28.25494,-37.67263 -46.64346,-50.70932 -20.06937,-14.22835 -42.70704,-23.81761 -67.000383,-28.38118 -6.167455,-1.15857 -16.371411,-2.37699 -19.981719,-2.38594 -4.810313,-0.0119 -4.70514,0.10575 -4.70514,-5.26479 v -4.6913 l 4.584702,0.31266 c 45.25385,3.0862 85.23543,21.42493 116.50723,53.43946 17.22519,17.63431 29.14911,36.19915 38.25099,59.55457 l 1.87364,4.80777 h -5.06274 -5.06274 z"
       id="path4177"
       transform="scale(0.26458333)" />
    <path
       style="fill:#0000ff;fill-rule:evenodd;stroke-width:0.470226"
       d="m 244.98752,554.51387 c -6.28926,-17.96618 -12.78049,-31.18205 -22.34541,-45.49436 -23.71012,-35.47822 -60.08407,-62.21876 -101.61907,-74.7059 -12.34709,-3.71205 -28.003374,-6.66033 -38.968624,-7.3383 -2.456931,-0.15191 -5.578055,-0.39028 -6.935832,-0.52971 l -2.468686,-0.25351 v -4.72459 -4.7246 l 5.054928,0.31874 c 59.259954,3.73658 112.310254,32.24422 147.479424,79.25102 11.60173,15.50677 21.62226,34.51627 28.22502,53.54446 0.92855,2.67592 1.68827,4.95064 1.68827,5.05492 0,0.10429 -2.22846,0.18961 -4.95213,0.18961 -3.53848,0 -5.01087,-0.16779 -5.15789,-0.58778 z"
       id="path4216"
       transform="scale(0.26458333)" />
    <path
       style="fill:#0000ff;fill-rule:evenodd;stroke-width:0.470226"
       d="m 266.38224,554.98409 c -4e-4,-0.0647 -1.25535,-3.83261 -2.78879,-8.37324 -22.54065,-66.7447 -77.91217,-117.41719 -146.92758,-134.45874 -12.40322,-3.06265 -22.705746,-4.57217 -40.371721,-5.91525 l -3.644251,-0.27705 v -4.72606 -4.72606 l 5.525154,0.32506 c 67.670988,3.98133 128.237108,37.5658 167.082128,92.64861 12.76317,18.09836 24.14871,41.87311 30.24281,63.1516 l 0.70702,2.46869 h -4.91202 c -2.70162,0 -4.91235,-0.0529 -4.91275,-0.11756 z"
       id="path4255"
       transform="scale(0.26458333)" />
    <path
       style="fill:#0000ff;fill-rule:evenodd;stroke-width:0.470226"
       d="m 286.84922,553.35141 c -0.58186,-3.10156 -5.43345,-17.5573 -8.32918,-24.81752 C 248.61731,453.56132 180.05486,399.895 99.21766,388.18741 93.561938,387.3683 87.065784,386.74212 76.764375,386.0231 l -4.114477,-0.28719 v -4.72373 -4.72373 l 5.99538,0.32571 c 27.054382,1.46977 52.895502,7.24415 78.175052,17.46874 9.06702,3.66726 25.91394,12.18232 34.1606,17.26605 50.19928,30.94577 85.81588,76.84728 103.09996,132.87183 1.30536,4.23118 2.50794,8.41032 2.6724,9.28696 l 0.29901,1.59391 h -4.93737 -4.93737 z"
       id="path4294"
       transform="scale(0.26458333)" />
    <path
       style="fill:#0000ff;fill-rule:evenodd;stroke-width:0.470226"
       d="m 307.75894,553.10319 c -10.59772,-41.49768 -30.91493,-78.68565 -59.61307,-109.11388 -40.34834,-42.78077 -94.57035,-69.983 -152.92513,-76.71987 -5.557548,-0.6416 -18.494569,-1.64079 -21.512834,-1.66155 -1.026174,-0.007 -1.058008,-0.14875 -1.058008,-4.70953 v -4.70226 l 4.114477,0.005 c 8.574296,0.0101 26.274175,2.00028 38.205855,4.29585 43.9045,8.44693 83.22664,27.12523 118.27883,56.1833 7.58336,6.28656 24.32536,22.96985 30.66821,30.56068 20.94676,25.06808 36.69013,52.92503 46.91389,83.01132 2.12463,6.2523 5.72194,18.58277 6.94099,23.79154 0.24459,1.04509 0.18806,1.05801 -4.62762,1.05801 h -4.87522 z"
       id="path4333"
       transform="scale(0.26458333)" />
    <path
       style="fill:#ff0000;fill-rule:evenodd;stroke-width:0.470226"
       d="m 220.06571,359.19659 c -16.01875,-1.23467 -29.55089,-3.34416 -43.26078,-6.7438 -18.08472,-4.48446 -32.58052,-9.88833 -49.84394,-18.58124 -18.97285,-9.55368 -33.25027,-18.98866 -49.704281,-32.84619 l -4.562594,-3.84261 -0.02211,-5.80429 -0.02211,-5.8043 3.409138,3.15902 c 24.128977,22.35871 54.452597,40.24002 85.933777,50.67367 14.94534,4.95325 32.22251,8.6438 49.13861,10.49642 10.54535,1.15491 35.06656,1.15491 45.61191,0 28.25967,-3.09494 54.00222,-10.47329 78.99795,-22.64244 42.9208,-20.89595 78.99787,-54.56688 102.76345,-95.9097 3.88857,-6.76459 11.00303,-21.4723 14.05709,-29.06022 2.58544,-6.42358 7.30261,-20.3751 7.81806,-23.12272 l 0.31103,-1.65792 h 4.41481 c 2.42815,0 4.41482,0.1942 4.41482,0.43156 0,1.13661 -4.61651,15.56515 -7.0923,22.16641 -28.43399,75.81438 -93.95499,133.67255 -173.00421,152.77099 -9.35345,2.25981 -21.62102,4.3822 -31.50514,5.45064 -6.89495,0.74532 -31.97718,1.31962 -37.85318,0.86672 z"
       id="path6437"
       transform="scale(0.26458333)" />
    <path
       style="fill:#ff0000;fill-rule:evenodd;stroke-width:0.470226"
       d="M 216.3039,339.68973 C 164.71035,335.28404 116.01794,312.86839 78.645278,276.31828 l -5.99538,-5.86342 v -6.11824 -6.11823 l 6.753869,7.0212 c 33.629363,34.96046 77.508643,57.65012 124.439153,64.34659 12.392,1.7682 22.13126,2.32642 35.24873,2.02034 16.47726,-0.38448 29.86276,-2.14427 45.39862,-5.96856 57.75957,-14.21801 108.17625,-52.49431 137.93379,-104.71922 5.99552,-10.52222 12.68162,-25.61563 16.67746,-37.6482 l 1.9129,-5.76027 h 4.37832 c 2.40807,0 4.37831,0.0939 4.37831,0.20872 0,0.66443 -5.02628,15.23531 -6.86299,19.89539 -5.09921,12.93767 -14.15298,30.05601 -22.41583,42.38253 -18.77826,28.01339 -45.81341,53.18497 -75.58155,70.37161 -26.21061,15.1327 -56.18023,25.02278 -86.99179,28.7076 -7.5435,0.90214 -33.71663,1.28806 -41.61499,0.61361 z"
       id="path6476"
       transform="scale(0.26458333)" />
    <path
       style="fill:#ff0000;fill-rule:evenodd;stroke-width:0.470226"
       d="M 223.82752,320.90203 C 167.45215,318.07623 113.92099,290.8986 76.717766,246.21481 l -4.067868,-4.8858 v -7.06033 -7.06032 l 3.437436,4.65763 c 13.752404,18.63412 31.027976,35.04868 50.403426,47.8913 9.68299,6.41817 14.2991,9.05155 24.31088,13.86875 21.16313,10.1827 43.02242,16.15467 67.14805,18.34491 7.82389,0.71029 25.49107,0.60534 33.91284,-0.20145 68.55886,-6.56786 129.24953,-48.82888 159.38177,-110.98305 3.662,-7.55365 9.37275,-21.42492 9.37275,-22.76616 0,-0.33075 1.57016,-0.51002 4.46714,-0.51002 2.71159,0 4.46715,0.18776 4.46715,0.47776 0,0.26277 -0.96489,3.13961 -2.14418,6.39297 -6.97688,19.24725 -16.68824,37.22699 -28.92566,53.55329 -12.55037,16.74383 -30.31992,33.87679 -47.92811,46.21112 -27.15403,19.02107 -59.22082,31.33587 -92.6345,35.57499 -5.45114,0.69157 -22.40338,1.75041 -25.62731,1.60069 -0.77587,-0.036 -4.5847,-0.22461 -8.46406,-0.41906 z"
       id="path6515"
       transform="scale(0.26458333)" />
    <path
       style="fill:#ff0000;fill-rule:evenodd;stroke-width:0.470226"
       d="M 224.76797,301.7985 C 190.42984,300.04837 155.93993,287.86835 127.18173,267.33618 118.74578,261.31326 112.006,255.50971 103.18842,246.67579 91.607248,235.07316 82.122478,223.04128 74.378845,210.12946 l -1.728947,-2.88287 0.0074,-8.87278 0.0074,-8.87278 3.220775,6.1261 c 9.145434,17.39514 19.269645,31.19551 32.960497,44.92862 8.71855,8.74546 14.34104,13.56024 23.28741,19.94202 39.84531,28.42315 88.38975,38.98715 135.87465,29.56837 40.99121,-8.13073 78.09748,-30.79875 104.9651,-64.12261 9.95782,-12.35067 19.74685,-28.95641 25.57136,-43.37833 l 2.04152,-5.05493 h 4.37276 c 2.40502,0 4.37614,0.1587 4.38027,0.35267 0.0233,1.09472 -5.03727,12.83974 -8.76271,20.33727 -14.58588,29.3544 -36.80686,54.35412 -64.53035,72.59989 -9.10458,5.99202 -14.00227,8.77331 -23.21038,13.18065 -27.55389,13.1883 -58.00836,19.34981 -88.06772,17.81775 z"
       id="path6554"
       transform="scale(0.26458333)" />
    <path
       style="fill:#ff0000;fill-rule:evenodd;stroke-width:0.470226"
       d="m 223.82752,282.5328 c -23.60716,-1.88227 -43.07667,-7.21884 -63.2899,-17.34771 -33.66549,-16.86981 -61.442075,-45.37953 -77.732711,-79.7844 -1.626252,-3.43454 -3.088562,-6.61493 -3.249577,-7.06753 -0.266304,-0.74854 0.120155,-0.82028 4.277189,-0.79394 l 4.569944,0.0289 3.633632,7.37711 c 18.545433,37.65151 52.084383,67.26548 91.587113,80.86889 39.46936,13.59193 82.88755,10.6717 120.29957,-8.09113 16.00863,-8.02864 29.21562,-17.60309 42.18153,-30.57966 13.46623,-13.4773 23.10983,-27.00375 30.78173,-43.1755 l 3.05647,-6.4428 4.56687,-0.007 4.56686,-0.007 -1.56236,3.64425 c -15.4142,35.95398 -44.33063,66.38442 -79.88847,84.07127 -19.87189,9.88449 -39.11881,15.26949 -61.22705,17.13041 -5.17666,0.43573 -18.05687,0.53652 -22.57084,0.1766 z"
       id="path6593"
       transform="scale(0.26458333)" />
    <path
       style="fill:#ff0000;fill-rule:evenodd;stroke-width:0.470226"
       d="m 222.18173,263.25555 c -28.21255,-2.70779 -53.66196,-12.6417 -76.64682,-29.91828 -7.51625,-5.64959 -20.98258,-18.80197 -26.78842,-26.16388 -4.34989,-5.51574 -10.0587,-13.93078 -13.26505,-19.55326 -2.2663,-3.97407 -5.08822,-9.44315 -5.08822,-9.86134 0,-0.13669 2.06312,-0.24346 4.58471,-0.23727 l 4.5847,0.0113 2.35113,4.3287 c 6.19745,11.41024 15.91444,24.05952 25.91632,33.73709 7.10004,6.86981 11.86567,10.69671 20.40142,16.38276 17.59814,11.7229 36.14971,18.7558 58.0724,22.01524 8.62664,1.28259 28.2443,1.16936 37.14785,-0.21442 40.07258,-6.22805 74.592,-28.20038 96.82282,-61.62977 2.35166,-3.53629 5.22795,-8.27492 6.39176,-10.53029 l 2.11601,-4.10068 4.58471,-0.006 c 2.52158,-0.003 4.5847,0.10407 4.5847,0.23809 0,0.75381 -5.32707,10.66789 -8.30884,15.46339 -18.76726,30.18276 -48.43703,53.08781 -82.80822,63.92789 -13.61214,4.29303 -24.6765,5.97626 -40.54619,6.16832 -6.59491,0.0798 -12.94296,0.0537 -14.10677,-0.058 z"
       id="path6632"
       transform="scale(0.26458333)" />
    <path
       style="fill:#ff0000;fill-rule:evenodd;stroke-width:0.470226"
       d="m 220.06571,243.73571 c -13.21865,-1.48858 -28.72684,-6.11453 -41.37988,-12.34323 -22.12438,-10.89115 -40.25209,-27.21386 -53.59546,-48.25892 -1.68671,-2.66027 -3.06675,-5.01381 -3.06675,-5.23008 0,-0.21626 2.10537,-0.39321 4.67861,-0.39321 h 4.67862 l 3.29029,4.81981 c 12.10186,17.72755 27.88131,31.60958 46.50928,40.91671 17.37116,8.67918 33.93354,12.57752 53.39456,12.56763 19.07328,-0.01 36.00791,-4.12316 53.53158,-13.00299 18.51557,-9.38244 35.02217,-24.11644 46.41856,-41.43379 l 2.54508,-3.86737 h 4.89904 4.89905 l -1.04822,1.76335 c -0.57652,0.96984 -2.60877,4.13605 -4.51612,7.03602 -9.71005,14.76334 -24.84826,29.4432 -40.12428,38.9094 -15.38391,9.53307 -35.95222,16.64457 -53.70477,18.56846 -5.38829,0.58394 -22.04335,0.55247 -27.40919,-0.0518 z"
       id="path6671"
       transform="scale(0.26458333)" />
    <path
       style="fill:#ff0000;fill-rule:evenodd;stroke-width:0.470226"
       d="m 225.47331,224.98822 c -20.74055,-1.96593 -39.77709,-9.29693 -56.19199,-21.6396 -5.39715,-4.05821 -9.71128,-7.97304 -15.10591,-13.70775 -3.88031,-4.12491 -9.58095,-11.18185 -9.58095,-11.86044 0,-0.14859 2.27697,-0.27016 5.05994,-0.27016 h 5.05995 l 2.07556,2.6011 c 2.87199,3.59917 12.2692,12.60348 16.50353,15.8135 11.38283,8.62925 25.02103,15.08134 38.59763,18.26014 12.74064,2.98308 29.03792,3.23599 41.79579,0.64861 21.28367,-4.31645 41.7932,-16.18292 55.98334,-32.39101 l 4.31824,-4.93234 h 5.14537 5.14537 l -1.55745,2.17465 c -15.55473,21.71891 -40.64855,37.9401 -67.15397,43.40979 -9.28913,1.91691 -21.64548,2.69436 -30.09445,1.89351 z"
       id="path6710"
       transform="scale(0.26458333)" />
    <path
       style="fill:#ff0000;fill-rule:evenodd;stroke-width:0.470226"
       d="m 225.00308,205.66617 c -17.636,-2.02962 -34.64833,-9.34442 -48.19815,-20.72379 -2.32762,-1.95477 -5.06848,-4.42668 -6.09081,-5.49312 l -1.85878,-1.93899 h 5.93167 5.93167 l 4.62629,3.44668 c 13.06,9.72997 26.22111,14.81365 42.294,16.3367 19.64483,1.86152 41.38427,-4.79977 57.27459,-17.54981 l 2.78369,-2.23357 6.15343,0.0218 6.15343,0.0218 -3.29158,3.06445 c -10.46248,9.74051 -21.67037,16.53368 -34.32649,20.8055 -11.99796,4.04967 -25.62253,5.59587 -37.38296,4.24243 z"
       id="path6749"
       transform="scale(0.26458333)" />
    <path
       style="fill:#ff0000;fill-rule:evenodd;stroke-width:0.470226"
       d="m 225.2382,186.41588 c -7.38813,-0.99327 -15.86833,-3.70116 -22.61375,-7.22098 l -3.24868,-1.6952 14.577,0.24641 c 8.01736,0.13553 16.05822,0.37453 17.86859,0.53111 1.81037,0.15659 6.254,0.0312 9.87474,-0.27873 3.62074,-0.30988 11.2384,-0.4936 16.92813,-0.40827 l 10.34497,0.15516 -4.46714,2.17543 c -5.24521,2.55433 -10.50449,4.3474 -16.56051,5.64605 -5.06882,1.08696 -17.481,1.55113 -22.70335,0.84902 z"
       id="path6788"
       transform="scale(0.26458333)" />
    <path
       style="fill:#00ff00;fill-rule:evenodd;stroke-width:0.470226"
       d="m 353.43712,547.46048 c -2.88407,-15.11426 -3.81448,-25.17878 -3.81448,-41.26232 0,-22.80942 2.68545,-41.25809 9.16913,-62.99072 20.68241,-69.32524 75.41502,-124.90952 146.28982,-148.56615 6.66604,-2.225 19.00902,-5.68283 20.29658,-5.686 0.45848,-10e-4 0.573,0.9891 0.47022,4.0659 l -0.13586,4.06738 -5.87782,1.54731 c -36.52659,9.61546 -72.27526,30.18229 -99.23078,57.0892 -35.30592,35.24226 -56.3316,79.20889 -61.8946,129.4273 -0.97538,8.80502 -1.10401,31.67371 -0.22549,40.08993 0.81441,7.80204 2.26585,17.32163 3.62057,23.7464 0.62714,2.97418 1.14134,5.5663 1.14266,5.76027 10e-4,0.19397 -1.8773,0.35267 -4.17473,0.35267 h -4.17715 z"
       id="path7061"
       transform="scale(0.26458333)" />
    <path
       style="fill:#00ff00;fill-rule:evenodd;stroke-width:0.470226"
       d="m 372.28544,550.75206 c -4.90047,-21.38426 -6.2351,-46.47699 -3.62026,-68.0652 9.33712,-77.08756 60.88086,-141.32562 135.78477,-169.22618 5.12562,-1.90922 20.28829,-6.63829 21.28411,-6.63829 0.11747,0 0.21358,1.873 0.21358,4.16224 v 4.16224 l -3.17402,0.84868 c -1.74571,0.46678 -6.55965,1.99128 -10.69764,3.38779 -71.96859,24.28823 -124.06944,85.89731 -134.50276,159.04903 -3.37637,23.67298 -2.49273,47.418 2.60436,69.98353 0.7759,3.43501 1.41072,6.34453 1.41072,6.46561 0,0.12108 -1.86887,0.22014 -4.15305,0.22014 h -4.15305 z"
       id="path7100"
       transform="scale(0.26458333)" />
    <path
       style="fill:#00ff00;fill-rule:evenodd;stroke-width:0.470226"
       d="m 390.35343,549.81161 c -8.28884,-34.74035 -6.74664,-69.34478 4.57373,-102.6268 17.55298,-51.606 56.11823,-92.41283 107.96623,-114.24175 6.02247,-2.53557 18.3734,-6.85598 21.52602,-7.5299 l 1.52823,-0.32669 -0.009,4.15184 -0.009,4.15184 -5.04588,1.57017 c -33.92169,10.55576 -66.06926,32.51419 -88.38659,60.37255 -21.43517,26.75718 -33.93958,57.11209 -38.30906,92.9967 -0.79286,6.51141 -0.78236,29.18272 0.0167,35.97228 0.92223,7.83649 2.6942,17.83421 4.29046,24.20742 0.78758,3.14446 1.43196,5.91411 1.43196,6.15479 0,0.24067 -1.87009,0.43759 -4.15575,0.43759 h -4.15576 z"
       id="path7139"
       transform="scale(0.26458333)" />
    <path
       style="fill:#00ff00;fill-rule:evenodd;stroke-width:0.470226"
       d="m 410.12029,554.74898 c -0.114,-0.19397 -0.96382,-3.31509 -1.88848,-6.93583 -7.51496,-29.42664 -7.05388,-58.90152 1.37727,-88.04483 13.97243,-48.29737 49.4037,-88.32738 96.58908,-109.12569 5.71509,-2.51908 18.21775,-7.14263 19.31461,-7.14263 0.23918,0 0.43487,1.86578 0.43487,4.14616 v 4.14616 l -2.70379,0.84062 c -4.61885,1.43601 -14.1839,5.44054 -20.57239,8.61288 -52.43979,26.04015 -86.41162,75.66317 -91.02524,132.96158 -0.97882,12.15635 -0.10494,28.7712 2.1623,41.11114 0.70102,3.81551 4.0234,17.19244 4.70907,18.96021 0.28958,0.7466 -0.0753,0.8229 -3.93542,0.8229 -2.34002,0 -4.34787,-0.1587 -4.46188,-0.35267 z"
       id="path7178"
       transform="scale(0.26458333)" />
    <path
       style="fill:#00ff00;fill-rule:evenodd;stroke-width:0.470226"
       d="m 427.29654,550.04672 c -2.95844,-10.20233 -4.54342,-17.87183 -5.80632,-28.096 -0.73803,-5.97496 -0.74738,-24.87455 -0.0154,-31.0349 3.70132,-31.14827 15.50341,-58.55295 35.43878,-82.28953 5.16858,-6.15411 16.2168,-16.71843 22.86706,-21.86551 11.41691,-8.83629 26.65325,-17.56744 39.11355,-22.4139 7.94076,-3.08858 7.11208,-3.29297 6.95397,1.7151 l -0.1357,4.29806 -4.46714,1.78263 c -18.75525,7.48436 -35.16832,18.30534 -49.63187,32.72181 -12.16278,12.1232 -20.13925,23.10131 -27.50334,37.85318 -9.61638,19.26371 -14.26418,37.84642 -14.88056,59.49496 -0.398,13.9788 0.80244,25.7602 3.86806,37.9619 1.05481,4.19835 3.56933,12.61809 4.28238,14.33935 0.1847,0.44586 -0.82625,0.58778 -4.18711,0.58778 h -4.4306 z"
       id="path7217"
       transform="scale(0.26458333)" />
    <path
       style="fill:#00ff00;fill-rule:evenodd;stroke-width:0.470226"
       d="m 445.64675,547.9307 c -8.0628,-24.33529 -9.13221,-48.87609 -3.18477,-73.08399 4.50543,-18.33848 13.15772,-35.97083 24.99559,-50.93808 4.36023,-5.51289 17.35103,-18.39315 22.75291,-22.55933 5.66565,-4.36961 12.8276,-9.11437 18.95826,-12.55978 4.80119,-2.69825 15.35814,-7.67145 16.28471,-7.67145 0.30826,0 0.49419,1.56762 0.49419,4.1666 v 4.1666 l -3.87936,1.76249 c -12.90742,5.86417 -26.30575,15.06471 -36.97056,25.38744 -20.06558,19.42193 -32.77369,44.12898 -37.01455,71.96349 -1.077,7.06874 -1.23188,25.84405 -0.26959,32.6807 1.4186,10.07859 4.40468,21.81513 7.5913,29.83697 0.78076,1.96545 1.41956,3.67384 1.41956,3.79642 0,0.12257 -1.98041,0.22287 -4.4009,0.22287 h -4.4009 z"
       id="path7256"
       transform="scale(0.26458333)" />
    <path
       style="fill:#00ff00;fill-rule:evenodd;stroke-width:0.470226"
       d="m 465.80662,551.28702 c -16.24572,-38.65826 -11.00895,-80.94167 14.19821,-114.64091 4.10147,-5.48322 16.00546,-17.52443 21.54501,-21.79335 5.75609,-4.43579 13.46286,-9.3671 19.34288,-12.37686 l 5.05492,-2.58743 v 4.44838 4.44839 l -3.87936,2.11585 c -26.78692,14.60988 -46.89902,40.37524 -54.17105,69.39788 -2.28569,9.1222 -2.83767,14.11432 -2.83767,25.66407 0,12.04345 0.54267,16.54721 3.28623,27.27311 1.58302,6.18876 4.75443,14.97921 7.0103,19.43095 l 1.23368,2.43455 -4.59262,-0.006 -4.59263,-0.006 z"
       id="path7295"
       transform="scale(0.26458333)" />
    <path
       style="fill:#00ff00;fill-rule:evenodd;stroke-width:0.470226"
       d="m 486.28073,553.05784 c -0.65877,-1.12411 -2.07969,-4.03363 -3.15762,-6.46561 -11.95524,-26.97312 -11.70543,-56.20143 0.70092,-82.00906 5.48596,-11.41186 10.72439,-18.78021 19.74225,-27.76935 6.08452,-6.06513 11.75322,-10.61848 18.61956,-14.95604 l 3.52669,-2.22787 0.13899,4.60805 c 0.13124,4.35122 0.0793,4.64735 -0.93172,5.31338 -21.96013,14.46649 -36.55619,36.25863 -41.10104,61.36448 -1.01798,5.62334 -1.39653,19.09416 -0.70228,24.99028 1.50967,12.82115 6.40617,27.40478 12.48904,37.19709 l 1.24142,1.99846 h -4.68423 -4.68422 z"
       id="path7334"
       transform="scale(0.26458333)" />
    <path
       style="fill:#00ff00;fill-rule:evenodd;stroke-width:0.470226"
       d="m 505.87537,551.4574 c -13.1466,-20.02817 -17.05749,-44.60611 -10.68103,-67.12475 3.45599,-12.20491 10.44435,-24.36226 19.38083,-33.71596 3.38218,-3.5401 10.45706,-9.77993 11.08871,-9.77993 0.15607,0 0.28376,2.2374 0.28376,4.97201 v 4.972 l -2.5811,2.35899 c -3.26064,2.98003 -7.85563,8.4919 -11.03018,13.23112 -13.82505,20.6391 -15.66211,48.34708 -4.74942,71.63416 1.88988,4.03291 6.0275,10.71738 8.6907,14.04014 2.57614,3.21415 2.72596,3.05647 -2.90414,3.05647 h -5.10603 z"
       id="path7373"
       transform="scale(0.26458333)" />
    <path
       style="fill:#00ff00;fill-rule:evenodd;stroke-width:0.470226"
       d="m 522.78973,544.75668 c -5.50826,-7.53253 -9.65801,-16.86228 -11.7124,-26.33265 -1.22373,-5.64115 -1.22207,-18.82405 0.003,-24.45175 2.13282,-9.7971 7.35859,-20.79565 13.14706,-27.67026 l 1.72017,-2.04295 v 6.75409 6.75409 l -1.87371,3.72974 c -6.94282,13.82011 -7.70895,30.51388 -2.0709,45.12478 0.90481,2.34479 2.16818,5.15704 2.8075,6.24945 1.11414,1.90376 1.15699,2.27463 1.0322,8.93429 l -0.1302,6.94809 z"
       id="path7412"
       transform="scale(0.26458333)" />
  </g>
</svg>
