<?xml version="1.0" encoding="UTF-8" standalone="no"?>
<!-- Created with Inkscape (http://www.inkscape.org/) -->

<svg
   width="1200"
   height="1000"
   viewBox="0 0 317.5 264.58333"
   version="1.1"
   id="svg302"
   inkscape:version="1.1.1 (3bf5ae0, 2021-09-20)"
   sodipodi:docname="set_getter.svg"
   xmlns:inkscape="http://www.inkscape.org/namespaces/inkscape"
   xmlns:sodipodi="http://sodipodi.sourceforge.net/DTD/sodipodi-0.dtd"
   xmlns="http://www.w3.org/2000/svg"
   xmlns:svg="http://www.w3.org/2000/svg">
  <sodipodi:namedview
     id="namedview304"
     pagecolor="#505050"
     bordercolor="#ffffff"
     borderopacity="1"
     inkscape:pageshadow="0"
     inkscape:pageopacity="0"
     inkscape:pagecheckerboard="1"
     inkscape:document-units="px"
     showgrid="false"
     units="px"
     inkscape:snap-global="false"
     inkscape:zoom="0.75187991"
     inkscape:cx="101.74497"
     inkscape:cy="455.52487"
     inkscape:window-width="1920"
     inkscape:window-height="1016"
     inkscape:window-x="0"
     inkscape:window-y="27"
     inkscape:window-maximized="1"
     inkscape:current-layer="layer1" />
  <defs
     id="defs299" />
  <g
     inkscape:label="Layer 1"
     inkscape:groupmode="layer"
     id="layer1">
    <path
       style="fill:#000000;stroke-width:0.376388"
       d="m 184.55591,149.30808 c -13.45159,-5.1985 -25.62033,-5.87782 -37.50689,-2.09383 -7.01219,2.23227 -14.62504,6.99366 -20.86582,13.05038 -1.4901,1.44612 -2.7799,2.66006 -2.86624,2.69764 -0.0863,0.0374 -1.05458,-1.81617 -2.15166,-4.11944 -2.44794,-5.13932 -5.61109,-9.49325 -8.88218,-12.22583 -3.16096,-2.64054 -9.06598,-5.09748 -13.642448,-5.67622 -5.957983,-0.75343 -14.196908,-9.9e-4 -21.273853,1.94277 -1.80719,0.49639 -3.318449,0.81296 -3.358363,0.70348 -0.0399,-0.1095 1.054373,-1.31601 2.431711,-2.68126 3.530998,-3.49993 5.915522,-6.88645 7.483647,-10.62835 4.083522,-9.74412 0.506234,-19.20156 -11.282756,-29.82881 -1.766883,-1.592778 -3.178631,-2.981406 -3.137194,-3.085849 0.0414,-0.104482 2.107053,-0.516506 4.590264,-0.915666 8.762895,-1.408604 10.91841,-2.04518 19.273135,-5.691898 7.148747,-3.120344 7.976057,-3.562341 11.185847,-5.976143 6.43871,-4.841976 11.47474,-10.651047 15.34609,-17.701753 2.11584,-3.853495 5.43483,-12.269877 6.44384,-16.340571 l 0.59208,-2.388599 2.74589,1.773615 c 5.07081,3.275301 9.70724,5.732011 14.65371,7.764517 15.3499,6.307318 27.1882,4.699395 39.04111,-5.302714 2.6368,-2.225076 5.142,-4.792978 15.32022,-15.703746 l 2.41184,-2.585411 2.57309,5.514407 c 4.3347,9.289708 7.17203,13.538907 11.66883,17.47532 7.71419,6.752856 18.50876,7.185344 32.14614,1.287953 l 2.84823,-1.231412 -2.39423,3.014817 c -8.24755,10.385189 -11.89407,20.201937 -10.92392,29.408043 0.17676,1.677222 0.72527,3.493734 1.92193,6.364617 1.82962,4.388913 3.705,7.092923 7.50613,10.821103 1.10066,1.07953 1.843,2.03165 1.64963,2.11579 -0.19347,0.0839 -2.00621,0.42107 -4.02857,0.74868 -12.89756,2.08941 -25.6855,6.38025 -33.32647,11.18235 -9.83004,6.17781 -15.03248,12.79675 -19.78735,25.17502 l -1.87731,4.88713 -4.528,-1.74988 z"
       id="path35703" />
    <path
       style="fill:#ff2a2a;fill-opacity:1;stroke-width:0.351896"
       d="m 183.51523,146.3626 c -12.70627,-4.83442 -24.1945,-5.48229 -35.40945,-1.99689 -6.616,2.05611 -13.79509,6.45316 -19.67695,12.05173 -1.4044,1.33673 -2.62008,2.45879 -2.70152,2.49345 -0.0814,0.0345 -0.99833,-1.68332 -2.03753,-3.81774 -2.3188,-4.76259 -5.31155,-8.79902 -8.40367,-11.33434 -2.988,-2.44993 -8.56611,-4.73407 -12.88714,-5.27705 -5.625448,-0.70689 -13.401768,-0.0229 -20.079324,1.76595 -1.705211,0.45683 -3.131347,0.74762 -3.169177,0.64619 -0.03787,-0.10143 0.993266,-1.21694 2.291349,-2.47895 3.32782,-3.23531 5.573534,-6.36739 7.048044,-9.82979 3.839703,-9.0163 0.448131,-17.779 -10.69701,-27.63765 -1.670398,-1.477574 -3.005223,-2.765568 -2.96628,-2.86222 0.03893,-0.09668 1.988244,-0.47498 4.331768,-0.840741 8.269907,-1.290721 10.303715,-1.876827 18.184852,-5.240589 6.743518,-2.878222 7.523808,-3.286204 10.550088,-5.516298 6.07059,-4.473481 10.81556,-9.844624 14.45916,-16.367263 1.99137,-3.564882 5.11142,-11.352943 6.05763,-15.120648 l 0.5552,-2.210819 2.59487,1.646544 c 4.79186,3.040646 9.17241,5.322622 13.845,7.212301 14.49995,5.864065 25.67271,4.393541 36.84625,-4.849587 2.48568,-2.056238 4.84658,-4.430117 14.43785,-14.517227 l 2.27275,-2.390239 2.4375,5.110077 c 4.10632,8.608572 6.79131,12.547531 11.04235,16.199441 7.2926,6.264791 17.48326,6.681986 30.3477,1.242391 l 2.68679,-1.135844 -2.25547,2.787865 c -7.76952,9.603447 -11.1966,18.687661 -10.26652,27.213602 0.16945,1.553309 0.69006,3.236183 1.82414,5.896343 1.73396,4.066761 3.50849,6.573471 7.10249,10.031491 1.04067,1.00129 1.74292,1.88406 1.56052,1.96167 -0.18246,0.0776 -1.8932,0.38678 -3.80178,0.687 -12.17195,1.91472 -24.23701,5.86803 -31.44259,10.30272 -9.2699,5.70515 -14.17071,11.82594 -18.64009,23.28029 l -1.76459,4.52236 -4.2771,-1.62734 z"
       id="path1759" />
    <path
       style="fill:#6600cc;fill-opacity:1;stroke-width:0.351896"
       d="m 183.61447,143.1341 c -6.47288,-2.73629 -15.47005,-4.45291 -22.44816,-4.28299 -11.55746,0.28144 -21.8145,4.55968 -31.1587,12.99633 -1.7539,1.58355 -3.24608,2.90351 -3.31597,2.93323 -0.07,0.0301 -0.99043,-1.77272 -2.04562,-4.00548 -2.15591,-4.56188 -3.67773,-6.67047 -6.7042,-9.28926 -6.94285,-6.00754 -18.493638,-7.04336 -33.401395,-2.9953 l -1.700785,0.46186 1.884772,-1.7167 c 6.051244,-5.51152 9.237389,-11.4698 9.113624,-17.04301 -0.03809,-1.71512 -0.32499,-2.74302 -1.621931,-5.81115 -2.018135,-4.77412 -3.965362,-7.21221 -9.900238,-12.39564 -1.445891,-1.26282 -2.598791,-2.370767 -2.561987,-2.462109 0.03683,-0.09127 1.268899,-0.325179 2.737967,-0.519632 8.016128,-1.061075 16.701005,-3.72786 22.801493,-7.001453 8.86035,-4.754573 15.46857,-11.211247 20.36437,-19.897372 1.44693,-2.567118 4.41923,-9.914797 5.06807,-12.528466 0.26199,-1.05538 0.56435,-1.961639 0.6719,-2.013917 0.10754,-0.05232 0.86645,0.35085 1.68642,0.895838 0.81997,0.544991 3.16079,1.886625 5.2018,2.981413 11.62097,6.233415 21.36997,8.160836 30.14271,5.959334 7.01211,-1.759682 12.49297,-5.742947 23.315,-16.94441 2.96709,-3.071125 5.51061,-5.633197 5.65226,-5.693479 0.14185,-0.05982 1.44106,2.441443 2.88754,5.559402 3.62767,7.81951 6.53944,11.730783 11.03247,14.819581 6.47935,4.454312 16.06598,4.30916 27.24519,-0.412535 l 1.99175,-0.841128 -2.12384,2.647916 c -12.30053,15.335894 -13.00123,28.2993 -2.09058,38.677017 1.22012,1.16052 2.19847,2.15357 2.17413,2.20678 -0.0245,0.0532 -2.11682,0.48378 -4.64992,0.95683 -9.55323,1.78397 -13.67922,2.9988 -21.58063,6.35405 -5.8737,2.49424 -7.76023,3.43118 -9.72251,4.82886 -3.47281,2.47361 -6.03768,4.8528 -8.44876,7.83714 -2.67977,3.3169 -4.35589,6.28958 -6.74734,11.96658 l -1.91545,4.54703 -1.83343,-0.77507 z"
       id="path2145" />
    <path
       style="fill:#32d232;fill-opacity:1;stroke-width:0.351896"
       d="m 179.74883,138.70932 c -3.83368,-1.30996 -10.7871,-2.71672 -14.65757,-2.96541 -3.89825,-0.25042 -9.6885,0.28556 -13.71395,1.26955 -6.89126,1.6845 -15.78999,6.6239 -21.14986,11.73964 -0.95271,0.9093 -1.83853,1.69853 -1.96851,1.75386 -0.12998,0.0553 -0.93369,-1.2806 -1.786,-2.96869 -0.85231,-1.68809 -2.17172,-3.90798 -2.93202,-4.93309 -6.01843,-8.11459 -16.34499,-10.4395 -30.871223,-6.95029 -5.660221,1.3596 -5.49103,1.38442 -3.398911,-0.49877 5.190657,-4.67229 7.999326,-9.53426 8.270106,-14.316 0.16514,-2.91601 0.13027,-3.08593 -1.3132,-6.3992 -1.744031,-4.0031 -3.598895,-6.31098 -8.371226,-10.41551 -1.63607,-1.40714 -2.955905,-2.60703 -2.932963,-2.66643 0.02294,-0.0594 1.809419,-0.43107 3.969953,-0.82598 6.422786,-1.173966 10.420456,-2.344208 15.742194,-4.608235 13.54867,-5.763752 21.46199,-13.870572 27.00533,-27.664667 1.94865,-4.849054 2.49107,-5.888138 2.90612,-5.567172 1.49982,1.159791 7.18795,3.976053 11.48123,5.684513 12.26712,4.881556 21.7806,4.407425 30.98205,-1.544071 3.8042,-2.46054 5.71653,-4.119438 12.55242,-10.888945 3.33547,-3.303075 6.18379,-6.056366 6.32961,-6.118417 0.14568,-0.06236 1.31562,2.150628 2.59961,4.917057 1.40447,3.02603 2.96746,5.90319 3.9233,7.222008 2.03541,2.808379 5.72492,6.064017 8.23397,7.265699 5.61277,2.688151 13.85234,2.069933 22.73193,-1.705579 l 2.83303,-1.204583 -2.6388,3.190964 c -4.90246,5.928299 -7.92625,11.674958 -8.8213,16.764781 -1.13847,6.474068 1.36928,12.94688 7.02939,18.143587 0.98741,0.90659 1.74323,1.67047 1.67961,1.69755 -0.0638,0.0266 -1.91818,0.39553 -4.12121,0.81876 -8.37756,1.60944 -13.60519,3.15524 -20.4935,6.05986 -7.31223,3.08342 -9.93458,4.67753 -14.25018,8.66277 -4.16801,3.84891 -7.801,9.4135 -10.2011,15.62474 -0.49671,1.2855 -1.01108,2.38321 -1.14303,2.43937 -0.13201,0.056 -1.70931,-0.4 -3.50525,-1.01368 z"
       id="path2399" />
    <path
       style="fill:#ffdd55;stroke-width:0.351896"
       d="m 179.8793,135.89114 c -1.74153,-0.81009 -9.19017,-2.47844 -12.49525,-2.7987 -13.04873,-1.2644 -25.33997,2.79953 -35.63492,11.7822 l -2.33714,2.03922 -1.47371,-2.82378 c -2.70974,-5.19212 -5.34761,-7.94518 -9.37158,-9.78081 -5.35572,-2.44312 -13.67071,-2.47566 -22.733298,-0.089 -3.938706,1.03727 -4.024974,1.0037 -2.050254,-0.79805 5.129884,-4.68049 7.942322,-9.75043 7.750662,-13.97196 -0.11903,-2.62207 -1.33009,-5.66625 -3.261778,-8.19887 -1.02772,-1.34747 -5.608185,-5.62803 -8.368388,-7.82047 -0.106374,-0.0846 1.377044,-0.42193 3.296505,-0.74983 9.361961,-1.59934 19.409301,-5.575426 25.712021,-10.175149 6.77654,-4.9455 11.86398,-11.557354 15.49395,-20.136524 1.1377,-2.688897 2.13462,-4.848441 2.21537,-4.799021 3.76276,2.302945 13.18678,6.233174 16.60131,6.923458 8.20519,1.658759 13.6106,1.106397 20.13981,-2.058044 4.67664,-2.266576 7.69111,-4.602738 15.03598,-11.652668 3.13824,-3.012218 5.80907,-5.520672 5.93519,-5.574337 0.12609,-0.05377 1.09134,1.673413 2.14494,3.837988 3.72426,7.651213 7.20647,11.544081 12.00006,13.415223 5.14853,2.009684 10.61578,1.60665 18.34295,-1.352196 l 4.84687,-1.855648 -2.60794,3.07278 c -7.07352,8.33436 -9.75569,15.550256 -8.16256,21.959978 0.7007,2.819083 2.42226,5.564863 5.30133,8.4553 1.21392,1.2187 2.11825,2.25364 2.00963,2.29986 -0.10872,0.046 -2.09585,0.4754 -4.41604,0.9537 -9.90028,2.04094 -20.71557,5.9077 -26.22209,9.37512 -6.62828,4.17378 -11.13975,9.4329 -14.87692,17.34238 -0.90733,1.92027 -1.70741,3.51597 -1.77797,3.54601 -0.0704,0.0303 -0.53705,-0.13552 -1.03664,-0.36795 z"
       id="path2627" />
    <path
       style="fill:#000000;stroke-width:0.351896"
       d="m 120.45697,134.27152 c -3.47519,-3.34671 -4.08247,-6.82265 -1.39201,-7.96763 1.79229,-0.76272 2.69192,0.48898 2.07468,2.8867 -0.20966,0.81451 -0.13151,1.11744 0.3999,1.55077 1.03301,0.84234 1.37239,0.79714 4.74497,-0.6319 3.4077,-1.44392 4.4778,-2.29045 5.77048,-4.56479 0.58437,-1.02815 0.66806,-1.66269 0.37065,-2.81064 -0.21501,-0.83002 -0.65012,-1.69597 -0.98745,-1.96762 -0.77677,-0.62434 -5.37542,-0.76117 -7.79928,-0.23203 -2.95698,0.64554 -8.64025,-0.49879 -11.75886,-2.36766 -1.75222,-1.05004 -2.17517,-1.99206 -2.06865,-4.60738 0.0868,-2.13109 1.89423,-6.76118 3.36302,-8.61507 1.49656,-1.88895 4.6989,-3.88917 7.63569,-4.76933 3.46633,-1.038842 7.73237,0.45064 7.53765,2.63176 -0.0774,0.87221 -0.10608,0.88851 -1.19049,0.69023 -3.79361,-0.69365 -4.47731,-0.63275 -7.00019,0.62357 -3.56056,1.77303 -5.88355,4.92595 -6.11834,8.30424 -0.27356,3.9365 1.42716,4.58975 10.31908,3.96357 4.85067,-0.3416 6.48604,-0.19908 8.30814,0.72402 2.66849,1.35193 3.97965,4.59478 3.31422,8.19697 -0.60517,3.27605 -3.07845,5.47687 -10.1423,9.02513 l -3.49341,1.75476 z"
       id="path23238" />
    <path
       style="fill:#000000;stroke-width:0.351896"
       d="m 149.36728,124.92116 c -1.6346,0.25248 -1.95431,0.13642 -2.85969,-1.03814 -0.45267,-0.58724 -3.40334,-6.06892 -6.55706,-12.1815 -7.23846,-14.02972 -7.04557,-12.92764 -3.00323,-17.159769 3.45849,-3.620857 5.47954,-5.082274 9.28721,-6.715537 2.97501,-1.276117 4.53784,-1.468725 4.90558,-0.604621 0.31221,0.733619 -0.55664,1.545341 -4.47566,4.181403 -6.99132,4.702605 -9.21874,7.360756 -7.9126,9.442734 0.32923,0.52476 1.47071,2.5329 2.53666,4.46251 1.84861,3.3464 1.96587,3.48608 2.54003,3.02529 1.43832,-1.15429 5.74016,-4.18008 7.61867,-5.35874 2.24804,-1.4105 3.42973,-1.58059 3.86562,-0.55637 0.52235,1.22734 -0.52741,2.42056 -5.15501,5.85971 -1.67789,1.24697 -3.5326,2.65135 -4.12158,3.12085 l -1.07085,0.85365 1.68746,3.95136 c 0.92807,2.17326 1.9038,4.10067 2.16825,4.28315 1.02442,0.70692 6.78331,-3.03441 10.47895,-6.80779 2.02808,-2.07074 2.56417,-2.27306 3.78423,-1.42814 0.95421,0.66082 0.59354,2.10687 -1.02638,4.11522 -2.70618,3.35508 -9.74466,8.0997 -12.69061,8.55471 z"
       id="path23277" />
    <path
       style="fill:#000000;stroke-width:0.351896"
       d="m 190.84223,108.58693 c -1.29026,-0.66473 -3.02158,-3.32936 -6.72476,-10.349966 -4.1623,-7.891013 -6.2299,-11.504904 -7.69818,-13.455479 -0.88944,-1.1816 -0.97654,-1.20976 -2.17014,-0.701796 -0.68391,0.291089 -2.24725,1.118984 -3.47402,1.839845 -6.4726,3.803292 -8.4169,4.799752 -9.43966,4.837901 -1.93965,0.07234 -2.46555,-1.542392 -0.90084,-2.766029 0.44093,-0.344809 2.72885,-1.812323 5.08432,-3.261152 2.35545,-1.448826 7.52056,-4.688876 11.47804,-7.200109 8.49488,-5.390468 10.30233,-6.252183 12.3038,-5.865934 3.20626,0.618754 2.38322,2.206687 -2.46484,4.755577 -1.86632,0.981226 -4.05521,2.250657 -4.86421,2.820955 -3.09373,2.180936 -2.919,1.94399 -2.20195,2.985925 1.48005,2.150629 3.46371,5.712629 8.26122,14.834505 3.66059,6.960157 5.0395,9.835087 4.98891,10.401667 -0.0824,0.91905 -1.32762,1.56203 -2.17769,1.12409 z"
       id="path23316" />
    <path
       style="fill:#000000;stroke-width:0.351896"
       d="m 210.70293,87.402708 c -0.25157,-0.26009 -1.9126,-3.124208 -3.69118,-6.364703 -2.53229,-4.613785 -3.18432,-6.011925 -3.00583,-6.445548 0.17113,-0.415747 0.90554,-0.746822 2.94709,-1.32854 1.49553,-0.426134 2.81568,-0.73589 2.93367,-0.688354 0.44047,0.17749 2.70648,13.185813 2.5154,14.43989 -0.0946,0.620528 -1.22443,0.878026 -1.69915,0.387255 z"
       id="path23355" />
    <path
       style="fill:#000000;stroke-width:0.351896"
       d="m 215.02846,96.795872 c -1.70556,0.08877 -2.56154,-0.26597 -2.97263,-1.231934 -0.37842,-0.889322 -0.22463,-2.456037 0.34677,-3.532192 0.84539,-1.592048 3.93252,-1.689235 4.58992,-0.1445 0.64663,1.519518 0.18071,4.80779 -0.68631,4.843428 -0.0652,0.0025 -0.64028,0.03204 -1.27781,0.0652 z"
       id="path23394" />
    <rect
       style="fill:#000000;stroke-width:0.264583"
       id="rect154465"
       width="81.846252"
       height="135.80188"
       x="-96.318954"
       y="2.1225431" />
    <path
       style="fill:#ffdd55;stroke-width:1.33;fill-opacity:1"
       d="M -363.7549,264.66993 V 8.6449976 h 154.27996 154.279955 V 264.66993 520.69485 H -209.47494 -363.7549 Z"
       id="path154504"
       transform="scale(0.26458333)" />
  </g>
</svg>
