<?xml version="1.0" encoding="UTF-8" standalone="no"?>
<!-- Created with Inkscape (http://www.inkscape.org/) -->

<svg
   width="1200"
   height="1000"
   viewBox="0 0 317.49999 264.58334"
   version="1.1"
   id="svg24564"
   inkscape:version="1.1.1 (3bf5ae0, 2021-09-20)"
   sodipodi:docname="set_background_2.svg"
   xmlns:inkscape="http://www.inkscape.org/namespaces/inkscape"
   xmlns:sodipodi="http://sodipodi.sourceforge.net/DTD/sodipodi-0.dtd"
   xmlns="http://www.w3.org/2000/svg"
   xmlns:svg="http://www.w3.org/2000/svg">
  <sodipodi:namedview
     id="namedview24566"
     pagecolor="#505050"
     bordercolor="#ffffff"
     borderopacity="1"
     inkscape:pageshadow="0"
     inkscape:pageopacity="0"
     inkscape:pagecheckerboard="1"
     inkscape:document-units="px"
     showgrid="false"
     units="px"
     inkscape:connector-spacing="0"
     inkscape:zoom="0.75187991"
     inkscape:cx="420.27988"
     inkscape:cy="366.4149"
     inkscape:window-width="1920"
     inkscape:window-height="1016"
     inkscape:window-x="0"
     inkscape:window-y="27"
     inkscape:window-maximized="1"
     inkscape:current-layer="layer1"
     inkscape:snap-global="false" />
  <defs
     id="defs24561" />
  <g
     inkscape:label="Layer 1"
     inkscape:groupmode="layer"
     id="layer1">
    <path
       style="fill:none;stroke:#000000;stroke-width:0.264583px;stroke-linecap:butt;stroke-linejoin:miter;stroke-opacity:1;opacity:1"
       d="M -42.818012,52.806438 85.914015,-21.761419"
       id="path75164" />
    <path
       style="fill:none;stroke:#000000;stroke-width:0.264583px;stroke-linecap:butt;stroke-linejoin:miter;stroke-opacity:1;opacity:1"
       d="M 107.6439,-11.499214 -46.909428,108.24612"
       id="path75166" />
    <path
       style="fill:none;stroke:#000000;stroke-width:0.264583px;stroke-linecap:butt;stroke-linejoin:miter;stroke-opacity:1;opacity:1"
       d="M -17.829403,118.35476 162.31346,-10.77782"
       id="path75168" />
    <path
       style="fill:none;stroke:#000000;stroke-width:0.264583px;stroke-linecap:butt;stroke-linejoin:miter;stroke-opacity:1;opacity:1"
       d="M 187.45197,-13.553039 -41.190883,181.65548"
       id="path75170" />
    <path
       style="fill:none;stroke:#000000;stroke-width:0.264583px;stroke-linecap:butt;stroke-linejoin:miter;stroke-opacity:1;opacity:1"
       d="M -22.963634,185.3581 260.85561,-18.931352"
       id="path75172" />
    <path
       style="fill:none;stroke:#000000;stroke-width:0.264583px;stroke-linecap:butt;stroke-linejoin:miter;stroke-opacity:1;opacity:1"
       d="M 269.77678,-10.16266 -18.618411,243.5211"
       id="path75174" />
    <path
       style="fill:none;stroke:#000000;stroke-width:0.264583px;stroke-linecap:butt;stroke-linejoin:miter;stroke-opacity:1;opacity:1"
       d="M -5.5418569,272.9638 335.64959,-9.1238754"
       id="path75176" />
    <path
       style="fill:none;stroke:#000000;stroke-width:0.264583px;stroke-linecap:butt;stroke-linejoin:miter;stroke-opacity:1;opacity:1"
       d="M 325.93036,21.861252 27.561635,317.46766"
       id="path75178" />
    <path
       style="fill:none;stroke:#000000;stroke-width:0.264583px;stroke-linecap:butt;stroke-linejoin:miter;stroke-opacity:1;opacity:1"
       d="M 328.88076,65.281394 120.68482,296.52047"
       id="path75184" />
    <path
       style="fill:none;stroke:#000000;stroke-width:0.264583px;stroke-linecap:butt;stroke-linejoin:miter;stroke-opacity:1;opacity:1"
       d="M 179.03495,285.73357 330.92501,93.706605"
       id="path75186" />
    <path
       style="fill:none;stroke:#000000;stroke-width:0.264583px;stroke-linecap:butt;stroke-linejoin:miter;stroke-opacity:1;opacity:1"
       d="M 327.30797,159.33381 205.68544,272.57499"
       id="path75190" />
    <path
       style="fill:none;stroke:#000000;stroke-width:0.264583px;stroke-linecap:butt;stroke-linejoin:miter;stroke-opacity:1;opacity:1"
       d="m 247.38246,274.35114 88.84133,-84.40679"
       id="path75192" />
    <path
       style="fill:none;stroke:#000000;stroke-width:0.264583px;stroke-linecap:butt;stroke-linejoin:miter;stroke-opacity:1;opacity:1"
       d="M -11.888365,-9.1848293 -2.4513128,316.76628"
       id="path90585" />
    <path
       style="fill:none;stroke:#000000;stroke-width:0.264583px;stroke-linecap:butt;stroke-linejoin:miter;stroke-opacity:1;opacity:1"
       d="M -5.5418569,272.9638 322.89612,269.30035 319.39108,-3.7942451 -11.888365,-9.1848293"
       id="path90589" />
    <path
       style="opacity:1;fill:#ff2a2a;fill-opacity:1;stroke:#000000;stroke-width:3.53798;stroke-miterlimit:4;stroke-dasharray:none;stroke-opacity:0.986238"
       d="M -40.167005,80.438413 C -40.847578,54.818231 -41.949376,18.744829 -42.615444,0.27529844 l -1.211033,-33.58096544 91.976894,1.392871 c 50.587291,0.76608 111.863873,1.911805 136.170193,2.546057 L 228.5139,-28.213553 98.739501,46.855353 C 27.363576,88.143252 -32.811213,123.07093 -34.982253,124.47241 l -3.947345,2.54815 z"
       id="path90761"
       transform="scale(0.26458333)" />
    <path
       style="opacity:1;fill:#ff2a2a;fill-opacity:1;stroke:#000000;stroke-width:3.53798;stroke-miterlimit:4;stroke-dasharray:none;stroke-opacity:0.986238"
       d="m -27.034669,531.77419 c -0.674929,-22.47211 -1.753936,-56.15382 -2.397795,-74.84828 l -1.170651,-33.9899 311.443955,-223.25807 311.44396,-223.258066 39.03828,1.445094 39.03827,1.445093 L 324.36548,274.68969 C 134.06775,437.14848 -22.570246,570.64604 -23.718958,571.35094 c -1.492219,0.9157 -2.438955,-10.38467 -3.315711,-39.57675 z"
       id="path95573"
       transform="scale(0.26458333)" />
    <path
       style="opacity:1;fill:#ff2a2a;fill-opacity:1;stroke:#000000;stroke-width:3.53798;stroke-miterlimit:4;stroke-dasharray:none;stroke-opacity:0.986238"
       d="m -14.06193,979.53556 c -0.724877,-23.56509 -1.454711,-56.77788 -1.621854,-73.80619 l -0.303896,-30.96059 505.96304,-445.39124 505.96305,-445.391236 93.10469,1.006273 c 51.2076,0.553449 98.3948,1.473078 104.8604,2.04362 l 11.7556,1.037347 V 1.8175378 15.561533 L 598.59754,517.33126 C 264.71366,793.30459 -9.4270448,1019.839 -10.604019,1020.7411 c -1.57624,1.208 -2.487133,-9.6465 -3.457911,-41.20554 z"
       id="path95612"
       transform="scale(0.26458333)" />
    <path
       style="opacity:1;fill:#ff2a2a;fill-opacity:1;stroke:#000000;stroke-width:3.53798;stroke-miterlimit:4;stroke-dasharray:none;stroke-opacity:0.986238"
       d="m 563.54018,1003.7981 c 10.2297,-11.3537 159.52615,-177.17874 331.76989,-368.50009 l 313.17043,-347.85702 1.6395,56.75255 1.6395,56.75255 L 968.72371,708.317 c -133.6697,169.05399 -244.44033,308.7572 -246.15697,310.4516 -2.7609,2.7252 -13.19191,3.2303 -90.37358,4.3766 l -87.25243,1.2959 z"
       id="path95651"
       transform="scale(0.26458333)" />
    <path
       style="opacity:1;fill:#ff2a2a;fill-opacity:1;stroke:#000000;stroke-width:3.53798;stroke-miterlimit:4;stroke-dasharray:none;stroke-opacity:0.986238"
       d="m 959.32797,1015.8488 c 1.51479,-1.4632 59.46343,-56.48523 128.77473,-122.27113 l 126.0205,-119.61073 1.166,7.06581 c 0.6413,3.8862 1.7265,58.34699 2.4116,121.02397 l 1.2457,113.95818 -74.8264,1.2446 c -41.1546,0.6845 -100.1884,1.2458 -131.1864,1.2472 -48.62666,0 -55.98201,-0.3625 -53.60573,-2.6579 z"
       id="path95690"
       transform="scale(0.26458333)" />
    <path
       style="opacity:1;fill:#6600cc;fill-opacity:1;stroke:#000000;stroke-width:3.53798;stroke-miterlimit:4;stroke-dasharray:none;stroke-opacity:0.986238"
       d="m -34.002785,288.16185 c -0.08059,-4.34897 -1.202692,-41.34029 -2.493567,-82.20292 -1.675041,-53.0234 -1.767724,-74.89333 -0.323704,-76.38302 1.112838,-1.14803 62.964615,-37.27911 137.448396,-80.291286 l 135.42505,-78.203954 73.09987,1.29334 73.09986,1.293341 L 174.19843,134.86821 -33.856263,296.06907 Z"
       id="path99022"
       transform="scale(0.26458333)" />
    <path
       style="opacity:1;fill:#6600cc;fill-opacity:1;stroke:#000000;stroke-width:3.53798;stroke-miterlimit:4;stroke-dasharray:none;stroke-opacity:0.986238"
       d="m -24.88986,616.51851 -0.886141,-37.20023 4.894161,-5.03365 c 2.691788,-2.76852 160.63297,-137.99646 350.98041,-300.50654 l 346.08624,-295.472858 78.0575,1.207516 c 42.93162,0.664133 94.95856,1.736626 115.61541,2.383318 l 37.55792,1.175802 L 447.59488,313.97633 C 194.69347,495.97377 -14.875888,646.86931 -18.114796,649.29976 l -5.888923,4.41898 z"
       id="path99061"
       transform="scale(0.26458333)" />
    <path
       style="opacity:1;fill:#6600cc;fill-opacity:1;stroke:#000000;stroke-width:3.53798;stroke-miterlimit:4;stroke-dasharray:none;stroke-opacity:0.986238"
       d="M -12.907393,1028.2994 C -12.532557,1027.297 261.58666,800.10714 596.24641,523.43312 l 608.47229,-503.043663 1.4262,22.721083 c 0.7844,12.496595 1.2076,31.608352 0.9404,42.47057 l -0.4857,19.74949 -415.67967,411.72329 C 562.2961,743.50169 352.81048,950.99623 325.39631,978.15287 l -49.84395,49.37573 -144.57063,1.2967 c -93.069934,0.8348 -144.327863,0.6474 -143.889123,-0.5259 z"
       id="path99100"
       transform="scale(0.26458333)" />
    <path
       style="opacity:1;fill:#6600cc;fill-opacity:1;stroke:#000000;stroke-width:3.53798;stroke-miterlimit:4;stroke-dasharray:none;stroke-opacity:0.986238"
       d="M 864.52449,844.9959 C 941.64865,747.49457 1051.0127,609.22589 1107.5558,537.73219 l 102.8056,-129.98855 1.3899,59.45467 c 0.7645,32.70007 1.1877,81.17927 0.9405,107.73155 l -0.4495,48.27688 L 997.91795,822.73889 783.5936,1022.2711 h -29.64742 -29.64742 z"
       id="path99139"
       transform="scale(0.26458333)" />
    <path
       style="opacity:1;fill:#32d232;fill-opacity:1;stroke:#000000;stroke-width:3.53798;stroke-miterlimit:4;stroke-dasharray:none;stroke-opacity:0.986238"
       d="m -30.82074,397.41887 c -0.608921,-11.681 -1.329416,-38.51895 -1.6011,-59.63992 L -32.915811,299.37719 177.20569,136.52227 387.3272,-26.332649 l 81.41854,1.337681 c 44.78019,0.735724 89.3839,1.582131 99.11934,1.880903 l 17.70081,0.543223 L 283.84865,193.60761 C 117.90418,312.50576 -20.533715,411.78203 -23.791097,414.22154 l -5.922514,4.43549 z"
       id="path99367"
       transform="scale(0.26458333)" />
    <path
       style="opacity:1;fill:#32d232;fill-opacity:1;stroke:#000000;stroke-width:3.53798;stroke-miterlimit:4;stroke-dasharray:none;stroke-opacity:0.986238"
       d="M -17.580433,853.45997 C -20.024418,818.0997 -23.212576,657.26821 -21.500847,655.68874 -20.537599,654.7999 190.36073,502.88589 447.16213,318.10205 l 466.91161,-335.970633 24.94465,0.24584 c 13.71956,0.135213 30.93016,0.770018 38.24581,1.410678 l 13.30113,1.164837 L 716.9381,225.70842 C 103.17211,765.74108 -15.333057,869.91787 -15.875268,869.91787 c -0.312207,0 -1.079532,-7.40605 -1.705165,-16.4579 z"
       id="path100960"
       transform="scale(0.26458333)" />
    <path
       style="opacity:1;fill:#32d232;fill-opacity:1;stroke:#000000;stroke-width:3.53798;stroke-miterlimit:4;stroke-dasharray:none;stroke-opacity:0.986238"
       d="M 383.26079,925.67754 C 438.85032,870.48211 646.84272,664.35987 845.46613,467.62812 l 361.13347,-357.69408 1.4021,62.58945 c 0.7712,34.4242 1.1944,73.30177 0.9405,86.39461 l -0.4617,23.80515 -333.50002,370.41122 -333.50003,370.41123 -69.01333,1.2408 c -37.95732,0.6824 -96.29791,1.2421 -129.64575,1.2436 h -60.63244 z"
       id="path100999"
       transform="scale(0.26458333)" />
    <path
       style="opacity:1;fill:#32d232;fill-opacity:1;stroke:#000000;stroke-width:3.53798;stroke-miterlimit:4;stroke-dasharray:none;stroke-opacity:0.986238"
       d="m 797.53444,1013.9069 c 3.60349,-3.5658 98.38692,-91.96758 210.62986,-196.44838 l 204.078,-189.96507 1.4358,8.24805 c 0.7898,4.53643 1.213,36.49623 0.9405,71.02176 l -0.4954,62.7737 -131.6632,125.33106 -131.66328,125.33108 -79.90705,0.095 -79.90705,0.096 z"
       id="path101038"
       transform="scale(0.26458333)" />
    <path
       style="opacity:1;fill:#ffff7c;fill-opacity:1;stroke:#000000;stroke-width:2.47621;stroke-miterlimit:4;stroke-dasharray:none;stroke-opacity:0.986238"
       d="m 89.803539,159.39148 v -278.70141 h 68.946501 68.94652 V 159.39148 438.0929 H 158.75004 89.803539 Z"
       id="path107649" />
    <path
       style="fill:#000000;stroke-width:0.376388"
       d="m 166.61418,97.74612 c -10.69436,-9.674733 -21.811,-14.670743 -34.26406,-15.398883 -7.34638,-0.42956 -16.16006,1.28665 -24.15715,4.70392 -1.90944,0.81591 -3.54866,1.48686 -3.64273,1.49099 -0.094,0.004 -0.33351,-2.07349 -0.53209,-4.61695 -0.44311,-5.67527 -1.83542,-10.8737 -3.90967,-14.59722 -2.004414,-3.59811 -6.636382,-8.00841 -10.701302,-10.18911 -5.29201,-2.83898 -13.25317,-5.08975 -20.55659,-5.81185 -1.86503,-0.18438 -3.38934,-0.43055 -3.38736,-0.54706 0.002,-0.11653 1.45603,-0.85063 3.23121,-1.63145 4.5509,-2.00169 7.99086,-4.30846 10.79605,-7.23962 7.30491,-7.63291 7.35531,-17.74417 0.15899,-31.89096 -1.07855,-2.1202699 -1.89874,-3.9226599 -1.82262,-4.0053099 0.0761,-0.0827 2.15218,0.27308 4.61346,0.79054 8.68551,1.8260199 10.92597,2.0043799 20.032682,1.5946999 7.79219,-0.35056 8.72296,-0.4666399 12.58468,-1.5695099 7.74645,-2.2122996 14.53007,-5.8302194 20.67147,-11.0247394 3.35651,-2.83902 9.47177,-9.5064597 11.87286,-12.9449807 l 1.40892,-2.01765 1.92768,2.640011 c 3.55984,4.8752701 7.00758,8.8306397 10.89682,12.5011297 12.06908,11.3903094 23.69708,14.1326193 38.34758,9.0437698 3.25916,-1.13207 6.51834,-2.6313598 19.93115,-9.1687698 l 3.1783,-1.5491 0.42549,6.07029 c 0.71681,10.2261693 1.84249,15.2100393 4.62949,20.4967393 4.78105,9.06925 14.70331,13.34227 29.54839,12.72502 l 3.10036,-0.12865 -3.31579,1.95628 c -11.42203,6.7388 -18.34501,14.59615 -20.73922,23.53826 -0.43618,1.62913 -0.57523,3.52155 -0.48715,6.6306 0.13486,4.75309 0.91638,7.94965 3.12857,12.79259 0.64057,1.40232 0.9923,2.55726 0.78162,2.5665 -0.2107,0.009 -2.02383,-0.32603 -4.02923,-0.7451 -12.78947,-2.6725 -26.26569,-3.25057 -35.12021,-1.50644 -11.39125,2.24376 -18.62052,6.55808 -27.49638,16.409461 l -3.50433,3.889472 -3.59988,-3.25665 z"
       id="path35703" />
    <path
       style="fill:#ff0000;stroke-width:0.351896"
       d="m 166.69844,94.623337 c -10.12906,-9.06768 -20.62168,-13.79041 -32.34073,-14.55657 -6.91337,-0.45199 -15.19152,1.07956 -22.68932,4.19778 -1.79022,0.74451 -3.32732,1.35625 -3.41577,1.35941 -0.0884,0.003 -0.32861,-1.92931 -0.53369,-4.29439 -0.45758,-5.27728 -1.80462,-10.11823 -3.7825,-13.59344 -1.91128,-3.35817 -6.299984,-7.48998 -10.139262,-9.54574 -4.99826,-2.67633 -12.50301,-4.8252 -19.37806,-5.54874 -1.75565,-0.18475 -3.19125,-0.42448 -3.19021,-0.53273 0.001,-0.10826 1.36347,-0.78004 3.02766,-1.4929 4.26637,-1.82748 7.48554,-3.94647 10.10315,-6.65026 6.81641,-7.04085 6.79116,-16.43697 -0.0796,-29.63544 -1.02977,-1.97814 -1.81422,-3.65901 -1.74322,-3.73528 0.071,-0.0763 2.02638,0.26926 4.34528,0.76783 8.18303,1.75936 10.29178,1.94121 18.854952,1.62593 7.3271,-0.26978 8.20178,-0.37096 11.82633,-1.36811 7.27071,-2.0002399 13.62564,-5.3136595 19.36514,-10.0968393 3.13686,-2.6142 8.84118,-8.76638 11.07503,-11.9445597 l 1.31077,-1.8649 1.83224,2.4672501 c 3.38354,4.5562196 6.65504,8.2567496 10.33979,11.6957296 11.43449,10.6718493 22.39193,13.3038693 36.13615,8.6800493 3.05756,-1.0286199 6.11249,-2.3984999 18.6821,-8.3773793 l 2.9785,-1.41674999 0.44385,5.64422979 c 0.74775,9.5084295 1.84242,14.1480695 4.50197,19.0810795 4.56242,8.4625 13.92637,12.50477 27.88578,12.03784 l 2.91539,-0.0973 -3.10489,1.79415 c -10.69556,6.18035 -17.15111,13.4325 -19.33892,21.72528 -0.39859,1.51083 -0.51579,3.26849 -0.41059,6.15839 0.16102,4.41806 0.91912,7.39427 3.03479,11.91076 0.61261,1.30778 0.95177,2.38361 0.75367,2.39068 -0.19814,0.007 -1.90604,-0.31753 -3.79541,-0.72138 -12.04945,-2.5755 -24.72984,-3.20955 -33.04621,-1.65236 -10.69891,2.00329 -17.46803,5.96068 -25.74619,15.05187 l -3.26835,3.589343 -3.40958,-3.052313 z"
       id="path1759" />
    <path
       style="fill:#00ff00;stroke-width:0.351896"
       d="m 167.94833,91.644937 c -5.06194,-4.87464 -12.84594,-9.70219 -19.42127,-12.04483 -10.89035,-3.87999 -21.99933,-3.56263 -33.7467,0.96402 -2.20497,0.84965 -4.07113,1.54703 -4.14703,1.54973 -0.0761,0.003 -0.28919,-2.00994 -0.47394,-4.47257 -0.37747,-5.03152 -1.04235,-7.54548 -2.92902,-11.07508 -4.32812,-8.09698 -14.740082,-13.2043 -30.108232,-14.76886 l -1.75332,-0.17847 2.37487,-0.92703 c 7.62472,-2.97624 12.73487,-7.39654 14.61702,-12.64377 0.57922,-1.61481 0.67983,-2.67724 0.56883,-6.00638 -0.17277,-5.18027 -1.11668,-8.15433 -4.79921,-15.12065 -0.89716,-1.69718 -1.57631,-3.14476 -1.50921,-3.21684 0.0671,-0.072 1.30114,0.15126 2.74229,0.49631 7.8638,1.88278 16.927472,2.50626 23.795992,1.63689 9.97584,-1.26268 18.45932,-4.92162 26.1433,-11.2756793 2.27095,-1.87789 7.67949,-7.67191 9.22207,-9.87933 0.62288,-0.89134 1.22999,-1.629 1.34914,-1.63925 0.11915,-0.0103 0.68311,0.63811 1.25325,1.4408 0.57013,0.80269 2.2745,2.89423 3.78746,4.64786004 8.61443,9.98469936 17.02473,15.27852926 26.00365,16.36786926 7.17691,0.87071 13.72135,-0.88328 27.83938,-7.4612999 3.87076,-1.8035096 7.16363,-3.2836194 7.31748,-3.2891194 0.15386,-0.005 0.47017,2.7957498 0.70292,6.2250093 0.58374,8.60023 1.90004,13.29531 4.98735,17.78937 4.45217,6.48082 13.4538,9.7816 25.58263,9.3808 l 2.1609,-0.0713 -2.93185,1.71068 c -16.98025,9.90776 -22.28107,21.75859 -15.81527,35.35759 0.72306,1.52075 1.28044,2.7985 1.23865,2.83945 -0.0419,0.0409 -2.14957,-0.30713 -4.68391,-0.7735 -9.55788,-1.75889 -13.84515,-2.10372 -22.42419,-1.80366 -6.37745,0.2231 -8.47446,0.42156 -10.80734,1.02299 -4.1287,1.06443 -7.37595,2.36616 -10.69654,4.28795 -3.69062,2.13594 -6.32091,4.31029 -10.58835,8.75285 l -3.41803,3.5583 -1.43378,-1.38075 z"
       id="path2145" />
    <path
       style="fill:#0000ff;stroke-width:0.351896"
       d="m 165.92561,86.128567 c -3.10939,-2.59709 -9.09651,-6.40279 -12.62065,-8.02231 -3.54945,-1.63109 -9.14706,-3.20622 -13.25773,-3.73052 -7.03714,-0.89758 -17.11506,0.52389 -23.95249,3.37847 -1.21533,0.50738 -2.32519,0.92665 -2.46636,0.93171 -0.14115,0.005 -0.41262,-1.53018 -0.60321,-3.4116 -0.19058,-1.88143 -0.62661,-4.42674 -0.96894,-5.65626 -2.70987,-9.73266 -11.51688,-15.60459 -26.328552,-17.55411 -5.77144,-0.75963 -5.62239,-0.67581 -2.99427,-1.68395 6.5205,-2.50125 10.88529,-6.03339 12.85207,-10.40032 1.1994,-2.66305 1.22775,-2.83418 1.06783,-6.44469 -0.19325,-4.36224 -1.09761,-7.18163 -4.08157,-12.72404 -1.02297,-1.90008 -1.82501,-3.49332 -1.7823,-3.54055 0.0427,-0.0472 1.8437,0.24615 4.00222,0.65192 6.416802,1.20626 10.568302,1.54673 16.347942,1.3407 14.71436,-0.52429 25.0077,-5.25592 35.12712,-16.1464193 3.55729,-3.82834996 4.43612,-4.60396 4.70854,-4.15555 0.98444,1.62033001 5.28512,6.2883398 8.68072,9.4221794 9.70221,8.9542799 18.75347,11.9217199 29.47678,9.6639199 4.43338,-0.93344 6.81326,-1.79664 15.62141,-5.66602 4.29781,-1.888 7.94376,-3.4373699 8.10213,-3.4430299 0.15836,-0.006 0.45732,2.4792999 0.66437,5.5221399 0.22648,3.32838 0.6543,6.5746 1.0739,8.1484 0.89351,3.35135 3.17088,7.71314 5.08247,9.73433 4.27625,4.5214 12.1899,6.8977 21.83276,6.55592 l 3.07656,-0.10905 -3.60724,2.03306 c -6.70167,3.7771 -11.5844,8.05803 -14.2444,12.48881 -3.38342,5.63579 -3.36246,12.57738 0.0588,19.45761 0.59684,1.20028 1.02862,2.18432 0.95952,2.1868 -0.0691,0.002 -1.93249,-0.31832 -4.14083,-0.71288 -8.39778,-1.50041 -13.83212,-1.93115 -21.30386,-1.68862 -7.93157,0.25749 -10.95107,0.8057 -16.40839,2.97921 -5.27067,2.09915 -10.65686,5.99175 -15.12387,10.92995 -0.92448,1.02203 -1.79814,1.86243 -1.94145,1.86756 -0.14333,0.005 -1.45235,-0.98612 -2.90898,-2.20277 z"
       id="path2399" />
    <path
       style="fill:#ffdd55;stroke-width:0.351896"
       d="m 167.05757,83.544417 c -1.33543,-1.3805 -7.6911,-5.60793 -10.66176,-7.0916 -11.72843,-5.85764 -24.65963,-6.4695 -37.49028,-1.77391 l -2.91279,1.06598 -0.36361,-3.16439 c -0.66859,-5.8184 -2.14435,-9.33405 -5.24296,-12.49008 -4.1241,-4.20051 -11.874894,-7.21136 -21.190792,-8.23171 -4.04879,-0.44346 -4.11729,-0.50573 -1.62796,-1.47992 6.46671,-2.53069 10.909568,-6.25563 12.243838,-10.26534 0.828744,-2.4905 0.789324,-5.76649 -0.10619,-8.82323 -0.47643,-1.62631 -3.218188,-7.26428 -5.009108,-10.30041 -0.069,-0.11706 1.43678,0.0997 3.346238,0.48161 9.313134,1.86269 20.118044,1.75224 27.650704,-0.28265 8.09894,-2.18785 15.21831,-6.53678 21.68224,-13.2447199 2.02592,-2.1024196 3.73068,-3.7611194 3.78835,-3.6860394 2.68724,3.4986594 10.07627,10.5457293 13.01648,12.4140693 7.06538,4.48965 12.3096,5.91154 19.53922,5.29774 5.17833,-0.43964 8.82988,-1.54004 18.2137,-5.48877 4.00942,-1.68717 7.40192,-3.07159 7.5389,-3.07648 0.13698,-0.005 0.41899,1.9534 0.6267,4.3518 0.73424,8.47774 2.58967,13.36011 6.39403,16.82516 4.08605,3.72161 9.33447,5.30507 17.60876,5.31261 l 5.18995,0.005 -3.53607,1.93379 c -9.59091,5.24507 -14.68136,11.02006 -15.49163,17.57491 -0.35635,2.88292 0.2666,6.06333 1.9183,9.79369 0.69642,1.57284 1.16968,2.86316 1.05171,2.86738 -0.11799,0.004 -2.12698,-0.30744 -4.46444,-0.69258 -9.97398,-1.6434 -21.45662,-1.91028 -27.84012,-0.64705 -7.68391,1.52055 -13.78071,4.81309 -20.10466,10.85741 -1.53535,1.46744 -2.85424,2.67033 -2.93088,2.67308 -0.0766,0.003 -0.45279,-0.31902 -0.83587,-0.71508 z"
       id="path2627" />
    <path
       style="fill:#000000;stroke-width:0.351896"
       d="m 112.16437,60.732737 c -2.04465,-4.36999 -1.36564,-7.83264 1.55645,-7.93715 1.94659,-0.0696 2.33777,1.4214 0.9021,3.43854 -0.48769,0.68524 -0.52332,0.99605 -0.18255,1.59107 0.66244,1.15664 0.99547,1.23609 4.65618,1.1109 3.69882,-0.1265 5.00125,-0.5332 7.02326,-2.19306 0.91407,-0.75036 1.21965,-1.31274 1.35348,-2.49101 0.0968,-0.85194 10e-4,-1.81631 -0.21655,-2.19082 -0.50136,-0.86129 -4.74539,-2.63739 -7.19785,-3.01223 -2.99188,-0.45728 -7.88732,-3.56271 -10.12881,-6.42525 -1.2594,-1.60834 -1.31659,-2.63937 -0.27969,-5.04272 0.8449,-1.95837 4.19187,-5.63292 6.22758,-6.83714 2.0742,-1.227 5.78072,-1.94644 8.83785,-1.71543 3.60836,0.27268 7.05703,3.19233 6.09343,5.15872 -0.38488,0.78651 -0.41751,0.79145 -1.35879,0.21764 -3.29289,-2.00736 -3.95299,-2.19558 -6.75855,-1.92706 -3.95949,0.37895 -7.25827,2.48969 -8.6884,5.55934 -1.6664,3.57686 -0.31285,4.79632 8.21266,7.39902 4.65079,1.4198 6.12641,2.13904 7.49655,3.65393 2.00658,2.2186 2.06822,5.71594 0.15582,8.84025 -1.73924,2.84144 -4.83705,4.00948 -12.70337,4.78995 l -3.89026,0.38596 z"
       id="path23238" />
    <path
       style="fill:#000000;stroke-width:0.351896"
       d="m 142.5052,62.366477 c -1.61648,-0.35021 -1.87334,-0.57316 -2.29755,-1.9942 -0.21209,-0.71047 -1.00181,-6.88555 -1.75494,-13.72239 -1.72857,-15.69205 -1.94353,-14.59406 3.34718,-17.09601 4.52656,-2.14057 6.93715,-2.78044 11.07724,-2.94033 3.23474,-0.12494 4.76276,0.25544 4.79633,1.19394 0.0285,0.79678 -1.07357,1.24313 -5.67706,2.29927 -8.21238,1.88411 -11.24459,3.56722 -10.77152,5.97903 0.11925,0.6079 0.46507,2.89176 0.76853,5.07523 0.52627,3.78666 0.58567,3.95909 1.28684,3.73473 1.7565,-0.56203 6.85707,-1.84478 9.03324,-2.27177 2.60424,-0.51098 3.76838,-0.24619 3.80818,0.86621 0.0477,1.33302 -1.36001,2.07067 -6.91285,3.62254 -2.01337,0.56268 -4.24823,1.20893 -4.96636,1.43611 l -1.30568,0.41308 0.15898,4.29366 c 0.0874,2.36151 0.30743,4.51059 0.48889,4.77574 0.70296,1.02714 7.42024,-0.40133 12.22285,-2.59928 2.63557,-1.20619 3.20856,-1.2029 4.04469,0.0232 0.65393,0.95894 -0.2011,2.17962 -2.43326,3.47386 -3.72897,2.16212 -12.00044,4.06855 -14.91373,3.43736 z"
       id="path23277" />
    <path
       style="fill:#000000;stroke-width:0.351896"
       d="m 187.0791,61.984167 c -0.96625,-1.08304 -1.6274,-4.19119 -2.568,-12.07267 -1.05722,-8.85862 -1.69204,-12.97349 -2.36358,-15.32075 -0.4068,-1.4219 -0.47802,-1.47941 -1.77438,-1.43304 -0.74281,0.0266 -2.49902,0.23911 -3.90266,0.47234 -7.40577,1.23049 -9.57805,1.46381 -10.54652,1.13282 -1.8367,-0.62773 -1.74886,-2.32367 0.15049,-2.90513 0.53522,-0.16385 3.19714,-0.71375 5.91541,-1.222 2.71826,-0.50825 8.70153,-1.68159 13.29618,-2.60741 9.86259,-1.98732 11.85882,-2.1439 13.58884,-1.0659 2.77142,1.72691 1.43388,2.91431 -4.00567,3.55606 -2.09402,0.24705 -4.59248,0.64753 -5.55214,0.88995 -3.6699,0.92708 -3.42185,0.76851 -3.12593,1.99823 0.61082,2.53824 1.18588,6.57458 2.3949,16.80996 0.92251,7.80978 1.17928,10.98794 0.92897,11.49873 -0.40634,0.82845 -1.7993,0.98236 -2.43591,0.26881 z"
       id="path23316" />
    <path
       style="fill:#000000;stroke-width:0.351896"
       d="m 213.21346,49.326617 c -0.14162,-0.33298 -0.66565,-3.60217 -1.1645,-7.26486 -0.71023,-5.21489 -0.81777,-6.75384 -0.49571,-7.09467 0.30878,-0.32678 1.11306,-0.37261 3.22746,-0.18389 1.5489,0.13825 2.89236,0.32228 2.98547,0.40895 0.34758,0.32358 -2.19976,13.27975 -2.82767,14.382 -0.3107,0.5454 -1.45779,0.38079 -1.72505,-0.24753 z"
       id="path23355" />
    <path
       style="fill:#000000;stroke-width:0.351896"
       d="m 213.88462,59.646077 c -1.62404,-0.52848 -2.29599,-1.16647 -2.33352,-2.2156 -0.0345,-0.96587 0.67066,-2.37335 1.58983,-3.17318 1.35988,-1.18323 4.27671,-0.16739 4.33672,1.51034 0.059,1.65033 -1.55463,4.55309 -2.37681,4.27558 -0.0618,-0.0211 -0.60922,-0.1996 -1.21627,-0.39716 z"
       id="path23394" />
  </g>
</svg>
