<?xml version="1.0" encoding="UTF-8" standalone="no"?>
<!-- Created with Inkscape (http://www.inkscape.org/) -->

<svg
   width="1200"
   height="1000"
   viewBox="0 0 317.49999 264.58334"
   version="1.1"
   id="svg416"
   sodipodi:docname="set_background.svg"
   inkscape:version="1.1.1 (3bf5ae0, 2021-09-20)"
   xmlns:inkscape="http://www.inkscape.org/namespaces/inkscape"
   xmlns:sodipodi="http://sodipodi.sourceforge.net/DTD/sodipodi-0.dtd"
   xmlns="http://www.w3.org/2000/svg"
   xmlns:svg="http://www.w3.org/2000/svg">
  <sodipodi:namedview
     id="namedview418"
     pagecolor="#505050"
     bordercolor="#ffffff"
     borderopacity="1"
     inkscape:pageshadow="0"
     inkscape:pageopacity="0"
     inkscape:pagecheckerboard="false"
     inkscape:document-units="px"
     showgrid="true"
     inkscape:zoom="0.75187991"
     inkscape:cx="599.16484"
     inkscape:cy="494.09486"
     inkscape:window-width="1920"
     inkscape:window-height="1016"
     inkscape:window-x="0"
     inkscape:window-y="27"
     inkscape:window-maximized="1"
     inkscape:current-layer="layer1"
     units="px"
     height="1122.5196px"
     width="1200px"
     showguides="false"
     showborder="true" />
  <defs
     id="defs413" />
  <g
     inkscape:label="Layer 1"
     inkscape:groupmode="layer"
     id="layer1">
    <rect
       style="fill:#ffe680;stroke-width:0.700043"
       id="rect442"
       width="317.5"
       height="264.58359"
       x="0"
       y="0" />
    <path
       style="fill:#0000ff;fill-rule:evenodd;stroke-width:0.32918"
       d="m 14.616655,263.31661 c -2.9456,-1.39723 -7.2400169,-2.65817 -11.3953116,-3.3459 l -3.20949051,-0.5312 v -3.23656 -3.23659 h 0.90524142 c 1.33626579,0 6.06931009,0.87512 8.93434319,1.65067 5.5577445,1.50445 10.8137545,3.9126 15.7586025,7.22016 1.660112,1.11043 3.106136,2.16094 3.21338,2.33449 0.121888,0.1972 -2.064499,0.30475 -5.831941,0.28682 l -6.026932,-0.0287 z"
       id="path3982" />
    <path
       style="fill:#0000ff;fill-rule:evenodd;stroke-width:0.32918"
       d="M 37.317461,261.56879 C 28.455046,253.08507 15.822477,247.2049 3.2213434,245.69783 l -3.20949051,-0.38386 v -3.39503 -3.39503 l 1.06983021,0.12964 c 0.588406,0.0713 2.4770693,0.29884 4.1970256,0.50569 6.3074633,0.75859 14.3420323,3.22455 20.5736583,6.31442 8.241844,4.08663 17.033014,11.0732 22.164915,17.61503 l 1.097492,1.39901 -4.389279,-0.0152 -4.389274,-0.0152 z"
       id="path4021" />
    <path
       style="fill:#0000ff;fill-rule:evenodd;stroke-width:0.32918"
       d="m 56.385153,261.60731 c -3.50157,-4.93554 -9.013534,-10.65364 -14.238452,-14.77093 -5.411755,-4.26452 -13.700863,-8.86595 -20.409064,-11.32945 -5.83517,-2.14288 -15.9169704,-4.26635 -20.2557984,-4.26635 H 0.01185289 v -3.47129 -3.47129 l 1.06983021,0.16427 c 0.588406,0.0904 2.1808088,0.25719 3.5386692,0.37072 3.7591377,0.31424 9.2735707,1.37672 13.6680067,2.63342 15.230478,4.35558 29.040919,13.12897 39.11045,24.84573 3.007902,3.49995 6.331247,7.98449 7.986035,10.77642 l 0.829206,1.39901 h -3.892719 -3.892716 z"
       id="path4060" />
    <path
       style="fill:#0000ff;fill-rule:evenodd;stroke-width:0.32918"
       d="M 73.879481,262.77673 C 69.717681,254.56379 60.369574,243.33164 52.257724,236.79727 38.074754,225.37235 20.324698,218.25339 3.3859322,217.19638 l -3.37407931,-0.21055 v -3.43257 -3.43254 l 2.22195551,0.20727 c 14.4269376,1.34578 24.9691236,4.21316 36.3620286,9.89011 18.101792,9.01995 32.236132,22.82766 42.031307,41.06004 l 1.724268,3.20949 h -3.802468 -3.802482 z"
       id="path4099" />
    <path
       style="fill:#0000ff;fill-rule:evenodd;stroke-width:0.32918"
       d="M 88.95325,261.10105 C 79.20035,240.42488 61.932251,223.09703 40.994579,212.9764 28.857231,207.10958 14.667588,203.43886 1.8223344,202.84296 L 0.176443,202.7666 0.08263794,199.39252 c -0.08491348,-3.05427 -0.03811271,-3.37406 0.49376743,-3.37382 0.32316675,0 2.21701073,0.14848 4.20854083,0.3296 11.4954058,1.04548 21.1156428,3.27903 31.2575748,7.25715 26.398741,10.35481 47.867773,30.55993 59.50031,55.99744 1.048225,2.29222 1.905869,4.32901 1.905869,4.52621 0,0.23579 -1.180813,0.35853 -3.449,0.35853 h -3.448994 z"
       id="path4138" />
    <path
       style="fill:#0000ff;fill-rule:evenodd;stroke-width:0.32918"
       d="M 104.8625,262.10109 C 103.35074,258.17807 99.3001,249.94248 96.849344,245.80911 88.726887,232.10999 77.069662,219.43661 64.1969,210.31035 50.147471,200.34987 34.300117,193.63697 17.293726,190.44227 12.976238,189.63121 5.8330272,188.77828 3.3056544,188.77201 c -3.36742722,-0.008 -3.29380151,0.074 -3.29380151,-3.68559 v -3.28411 l 3.20949051,0.21887 c 31.6796556,2.16048 59.6685006,14.9984 81.5601126,37.40998 12.058381,12.34479 20.405644,25.34101 26.777354,41.69083 l 1.31163,3.36564 h -3.54414 -3.54413 z"
       id="path4177" />
    <path
       style="fill:#0000ff;fill-rule:evenodd;stroke-width:0.32918"
       d="m 120.65566,264.07616 c -4.40275,-12.57711 -8.94689,-21.82881 -15.64275,-31.84804 -16.598116,-24.83633 -42.061454,-43.55588 -71.137758,-52.29743 -8.6435,-2.59861 -19.603578,-4.66253 -27.2797276,-5.13714 -1.7199598,-0.10639 -3.904882,-0.27322 -4.8553834,-0.37083 l -1.72818811,-0.17746 v -3.30742 -3.30742 l 3.53866921,0.22312 c 41.4845379,2.61578 78.6220469,22.57237 103.2419979,55.47922 8.12171,10.8554 15.13652,24.1629 19.75874,37.48347 0.65002,1.87327 1.18186,3.46567 1.18186,3.53867 0,0.073 -1.56002,0.13271 -3.46671,0.13271 -2.47709,0 -3.50782,-0.11743 -3.61075,-0.41147 z"
       id="path4216" />
    <path
       style="fill:#0000ff;fill-rule:evenodd;stroke-width:0.32918"
       d="m 135.6329,264.40535 c 0,-0.0453 -0.8788,-2.68302 -1.95228,-5.86166 C 117.90119,211.81947 79.138719,176.3465 30.824945,164.41665 22.14215,162.27267 14.929936,161.21593 2.5629873,160.27572 l -2.55113441,-0.19395 v -3.30844 -3.30846 l 3.86784821,0.22756 c 47.3726279,2.78711 89.7715359,26.29772 116.9647389,64.85811 8.93477,12.66965 16.90514,29.31302 21.17128,44.2089 l 0.49494,1.72819 h -3.43863 c -1.89124,0 -3.43886,-0.037 -3.43913,-0.0823 z"
       id="path4255" />
    <path
       style="fill:#0000ff;fill-rule:evenodd;stroke-width:0.32918"
       d="m 149.96067,263.26239 c -0.40732,-2.17124 -3.80366,-12.29088 -5.83079,-17.37335 -20.93321,-52.48411 -68.929893,-90.0529 -125.519442,-98.24872 -3.959251,-0.57342 -8.50684,-1.01177 -15.7182718,-1.51513 l -2.88031331,-0.20103 v -3.30683 -3.30681 l 4.19702551,0.228 c 18.9392426,1.02891 37.0291456,5.07123 54.7259286,12.22889 6.347305,2.56724 18.140887,8.52817 23.913899,12.087 35.141674,21.6634 60.074844,53.79648 72.174454,93.01615 0.9138,2.96201 1.75566,5.88758 1.8708,6.50128 l 0.20931,1.11579 h -3.45638 -3.45637 z"
       id="path4294" />
    <path
       style="fill:#0000ff;fill-rule:evenodd;stroke-width:0.32918"
       d="M 164.59837,263.08862 C 157.17951,234.03843 142.95659,208.00519 122.86665,186.7041 94.621056,156.75568 56.663302,137.71291 15.812422,132.99682 11.921897,132.54766 2.8654211,131.84819 0.75250419,131.83365 c -0.71836597,-0.005 -0.7406513,-0.10419 -0.7406513,-3.29688 v -3.29178 l 2.88031331,0.003 c 6.0023788,0.007 18.3930618,1.40028 26.7457528,3.00729 30.735058,5.91322 58.262262,18.98885 82.800311,39.33078 5.30868,4.40086 17.02881,16.07991 21.46908,21.39383 14.66365,17.54875 25.68468,37.04986 32.84176,58.11157 1.48734,4.3769 4.0056,13.00876 4.859,16.65512 0.17122,0.73162 0.13168,0.74066 -3.23955,0.74066 h -3.41286 z"
       id="path4333" />
    <path
       style="fill:#ff0000;fill-rule:evenodd;stroke-width:0.32918"
       d="M 103.20931,127.34547 C 91.9955,126.48114 82.522412,125.0044 72.924894,122.6245 60.264804,119.48519 50.117118,115.70224 38.031976,109.61682 24.750155,102.92882 14.755342,96.323911 3.2368207,86.623033 L 0.04280629,83.933037 0.02736309,79.869777 0.01191989,75.80651 2.3984639,78.017969 C 19.289794,93.670053 40.517646,106.18775 62.555837,113.49177 c 10.462382,3.46749 22.55715,6.05104 34.399157,7.34796 7.382196,0.80848 24.548116,0.80848 31.930316,0 19.783,-2.1666 37.8039,-7.33176 55.30198,-15.85072 30.04643,-14.628073 55.30194,-38.199215 71.93888,-67.14101 2.72217,-4.735509 7.70261,-15.031555 9.84059,-20.343434 1.80991,-4.49679 5.11212,-14.2634671 5.47296,-16.1869225 l 0.21775,-1.16061776 h 3.09055 c 1.69981,0 3.09057,0.13593975 3.09057,0.30211169 0,0.79567627 -3.23175,10.89629157 -4.96493,15.51746257 -19.90502,53.07341 -65.77255,93.57667 -121.11044,106.94644 -6.54783,1.58196 -15.13565,3.06772 -22.05496,3.81568 -4.82677,0.52175 -22.38542,0.9238 -26.49887,0.60675 z"
       id="path6437" />
    <path
       style="fill:#ff0000;fill-rule:evenodd;stroke-width:0.32918"
       d="M 100.57589,113.6898 C 64.458162,110.60561 30.371365,94.913673 4.2088784,69.326985 L 0.01185289,65.222338 V 60.939297 56.656268 L 4.7398541,61.571419 C 28.281868,86.045283 58.999266,101.92904 91.852662,106.61686 c 8.674938,1.23782 15.492838,1.6286 24.675638,1.41433 11.5348,-0.26915 20.90522,-1.50108 31.78101,-4.17825 40.4342,-9.953243 75.72806,-36.748332 96.55963,-73.308072 4.19713,-7.366016 8.87768,-17.932069 11.67495,-26.3553996 l 1.33912,-4.03244266 h 3.06501 c 1.68574,0 3.06499,0.0657385 3.06499,0.14612115 0,0.46513085 -3.51861,10.66538911 -4.80438,13.92765111 -3.56967,9.056939 -9.90771,21.04053 -15.69206,29.669639 -13.14559,19.610605 -32.07137,37.231822 -52.91036,49.26324 -18.34857,10.593543 -39.32859,17.517043 -60.89802,20.096593 -5.28078,0.63153 -23.60311,0.90168 -29.1323,0.42955 z"
       id="path6476" />
    <path
       style="fill:#ff0000;fill-rule:evenodd;stroke-width:0.32918"
       d="M 105.84275,100.53758 C 66.377544,98.559389 28.903406,79.533858 2.8595362,48.253233 L 0.01185289,44.832956 v -4.94254 -4.942538 L 2.4182067,38.208426 C 12.045487,51.25313 24.139136,62.744048 37.702794,71.73445 c 6.778512,4.492998 10.00999,6.336481 17.01867,9.708735 14.815111,7.128338 30.117555,11.308973 47.006546,12.842237 5.47706,0.49725 17.84485,0.423769 23.74046,-0.141013 47.99417,-4.597798 90.48029,-34.18237 111.57416,-77.693031 2.56356,-5.287887 6.56133,-14.9983885 6.56133,-15.93731476 0,-0.23154065 1.09918,-0.3570375 3.12719,-0.3570375 1.89824,0 3.12719,0.13144294 3.12719,0.3344533 0,0.18395042 -0.67545,2.19786466 -1.50102,4.47536076 -4.88411,13.4739242 -11.68248,26.0605342 -20.2492,37.4896662 -8.78582,11.721418 -21.22527,23.715245 -33.55176,32.349816 -19.00901,13.315594 -41.45714,21.93649 -64.84817,24.904068 -3.81604,0.48413 -15.68334,1.22536 -17.94023,1.12056 -0.54315,-0.0253 -3.20949,-0.15731 -5.92521,-0.29337 z"
       id="path6515" />
    <path
       style="fill:#ff0000;fill-rule:evenodd;stroke-width:0.32918"
       d="M 106.50111,87.164265 C 82.462925,85.939095 58.31849,77.412549 38.186503,63.039123 32.280971,58.822813 27.562831,54.760071 21.390143,48.57594 13.282821,40.453585 6.64307,32.03074 1.2221909,22.991897 l -1.21033801,-2.018136 0.005261,-6.211337 0.005261,-6.211337 2.25468221,4.288539 C 8.6792576,25.016992 15.766644,34.67786 25.350834,44.291642 c 6.103365,6.122207 10.039351,9.492764 16.302197,13.960293 27.893444,19.897459 61.876659,27.292722 95.118149,20.69916 28.69563,-5.691868 54.67162,-21.56048 73.48013,-44.888652 6.97089,-8.646014 13.82363,-20.270763 17.90105,-30.3667426 l 1.42915,-3.53867466 h 3.06113 c 1.6836,0 3.06348,0.11109689 3.06637,0.2468856 0.017,0.76635186 -3.5263,8.98838336 -6.13427,14.23698466 -10.21077,20.549375 -25.76641,38.05028 -45.17404,50.823123 -6.37361,4.194679 -9.8022,6.141706 -16.24828,9.227034 -19.28891,9.23239 -40.60836,13.545719 -61.65122,12.473212 z"
       id="path6554" />
    <path
       style="fill:#ff0000;fill-rule:evenodd;stroke-width:0.32918"
       d="M 105.84275,73.677427 C 89.316712,72.359757 75.687206,68.623922 61.537072,61.533263 37.969767,49.723652 18.524953,29.765595 7.1208019,5.680667 5.9823538,3.2763386 4.9586742,1.0499248 4.8459567,0.73308552 4.6595326,0.20907506 4.9300731,0.15885335 7.8401737,0.17729196 l 3.1991603,0.0202274 2.5437,5.16430114 C 26.565641,31.719537 50.044363,52.450622 77.697987,61.973607 c 27.630263,9.514949 58.024883,7.47066 84.214923,-5.664145 11.20673,-5.620403 20.45219,-12.32294 29.52889,-21.407111 9.42696,-9.434703 16.17788,-18.903817 21.54856,-30.2247534 l 2.13965,-4.5102445 3.197,-0.004921 3.197,-0.004921 -1.09371,2.5511353 C 209.63969,27.878016 189.39693,49.180668 164.50491,61.56224 c -13.91119,6.919582 -27.38487,10.689317 -42.8616,11.992043 -3.62389,0.305032 -12.64059,0.375588 -15.80056,0.123619 z"
       id="path6593" />
    <path
       style="fill:#ff0000;fill-rule:evenodd;stroke-width:0.32918"
       d="M 104.69062,60.182503 C 84.940612,58.286929 67.124925,51.332754 51.034524,39.238386 45.772821,35.283425 36.34581,26.076179 32.281466,20.922518 29.236355,17.061256 25.23994,11.170358 22.995356,7.2343732 21.408849,4.4523491 19.433381,0.62375166 19.433381,0.33100179 c 0,-0.0956888 1.444275,-0.17043284 3.209498,-0.16609388 l 3.209488,0.007975 1.645895,3.03028089 c 4.338482,7.9876712 11.140795,16.8427252 18.142548,23.6174492 4.970336,4.809172 8.306483,7.488171 14.281881,11.468656 12.319459,8.206547 25.306359,13.129887 40.653199,15.41164 6.03902,0.897867 19.77223,0.8186 26.0051,-0.150109 28.05254,-4.359911 52.21764,-19.74151 67.78017,-43.143557 1.64626,-2.4755591 3.6598,-5.7928103 4.47453,-7.3716681 l 1.48128,-2.87065728 3.2095,-0.004242 c 1.76522,-0.002029 3.2095,0.0728485 3.2095,0.16667071 0,0.52769956 -3.72919,7.46799247 -5.81656,10.82505467 -13.13789,21.129263 -33.90802,37.163806 -57.96934,44.752341 -9.5291,3.00531 -17.27463,4.183643 -28.3841,4.318097 -4.61672,0.05586 -9.06063,0.03759 -9.87535,-0.04061 z"
       id="path6632" />
    <path
       style="fill:#ff0000;fill-rule:evenodd;stroke-width:0.32918"
       d="M 103.20931,46.517753 C 93.955687,45.47568 83.099281,42.237312 74.241606,37.876945 58.753581,30.252662 46.063395,18.826046 36.72246,4.0935775 35.541691,2.2312705 34.575602,0.58368928 34.575602,0.43229058 c 0,-0.1513987 1.47385,-0.27526484 3.275227,-0.27526484 h 3.275237 l 2.303349,3.37407906 c 8.471823,12.4100672 19.518122,22.1280992 32.558516,28.6435002 12.160563,6.075811 23.75495,8.804818 37.378509,8.797894 13.35212,-0.007 25.20709,-2.886393 37.47443,-9.102665 12.96169,-6.568122 24.51704,-16.88257 32.495,-29.0054791 l 1.78167,-2.70732916 h 3.42953 3.42956 l -0.73381,1.23442336 c -0.40358,0.6789303 -1.82625,2.895417 -3.16147,4.9255232 -6.79746,10.3349907 -17.39486,20.6115377 -28.08875,27.2382937 -10.7694,6.673573 -25.16811,11.651936 -37.59566,12.99874 -3.77204,0.408787 -15.4313,0.386755 -19.18763,-0.03626 z"
       id="path6671" />
    <path
       style="fill:#ff0000;fill-rule:evenodd;stroke-width:0.32918"
       d="M 106.99487,33.393685 C 92.475587,32.017445 79.149181,26.885423 67.658044,18.245009 63.879806,15.404083 60.859723,12.663531 57.083248,8.6489802 54.366864,5.7613621 50.376169,0.82119273 50.376169,0.3461501 c 0,-0.10402082 1.593977,-0.18912436 3.542176,-0.18912436 h 3.542186 l 1.45298,1.82088546 c 2.010519,2.5195777 8.58897,8.8229918 11.553189,11.0701478 7.968475,6.040855 17.515806,10.557601 27.020012,12.782901 8.918998,2.088289 20.327808,2.265338 29.258868,0.454057 14.8995,-3.021706 29.25706,-11.328757 39.19076,-22.6751346 l 3.02297,-3.45285666 h 3.60198 3.60198 l -1.09028,1.52235066 c -10.889,15.2041946 -28.45576,26.5597436 -47.0107,30.3887686 -6.50279,1.341917 -15.15278,1.886168 -21.06742,1.32554 z"
       id="path6710" />
    <path
       style="fill:#ff0000;fill-rule:evenodd;stroke-width:0.32918"
       d="M 106.66569,19.867397 C 94.319725,18.446574 82.410356,13.325892 72.924894,5.3598298 71.295462,3.9914064 69.376737,2.2609595 68.661062,1.5144041 L 67.359837,0.15702574 h 4.152425 4.152425 l 3.238607,2.41282836 c 9.142568,6.8114074 18.355912,10.3702079 29.607626,11.4364089 13.75224,1.303147 28.9708,-3.360049 40.0947,-12.2856397 l 1.9487,-1.56359756 4.30769,0.0152731 4.30766,0.0152731 -2.30426,2.14525026 c -7.32418,6.818786 -15.17019,11.5743038 -24.03003,14.5647668 -8.39909,2.834947 -17.93688,3.917356 -26.16969,2.969889 z"
       id="path6749" />
    <path
       style="fill:#ff0000;fill-rule:evenodd;stroke-width:0.32918"
       d="M 106.83029,6.3913449 C 101.65827,5.6960124 95.721762,3.800371 90.999675,1.3363418 L 88.725462,0.1496271 98.929994,0.32212525 c 5.612496,0.0948744 11.241456,0.26218689 12.508786,0.37179904 1.26734,0.10962048 4.37808,0.0218393 6.91274,-0.19512314 2.53469,-0.21692832 7.86738,-0.34554088 11.85043,-0.28580606 l 7.24193,0.10861952 -3.12719,1.52289699 c -3.67188,1.7881433 -7.3536,3.0433725 -11.59308,3.9524838 -3.54839,0.7609203 -12.23745,1.0858606 -15.89332,0.5943514 z"
       id="path6788" />
    <path
       style="fill:#00ff00;fill-rule:evenodd;stroke-width:0.32918"
       d="m 196.57509,259.13848 c -2.01897,-10.58063 -2.67031,-17.62625 -2.67031,-28.88543 0,-15.96762 1.87994,-28.8825 6.41879,-44.0963 14.4786,-48.53072 52.79379,-87.442161 102.40924,-104.002846 4.66651,-1.557595 13.30711,-3.978235 14.20847,-3.980454 0.32096,-6.25e-4 0.40113,0.69242 0.32917,2.846309 l -0.095,2.847347 -4.11475,1.083188 c -25.57021,6.73125 -50.59582,21.128936 -69.46586,39.964956 -24.71566,24.67114 -39.43456,55.44971 -43.3289,90.60481 -0.68281,6.1639 -0.77284,22.17299 -0.15781,28.06472 0.57012,5.46178 1.58619,12.12591 2.53455,16.62352 0.43903,2.08208 0.79899,3.89665 0.79991,4.03245 6.3e-4,0.13575 -1.31419,0.24688 -2.92249,0.24688 h -2.92419 z"
       id="path7061" />
    <path
       style="fill:#00ff00;fill-rule:evenodd;stroke-width:0.32918"
       d="m 209.76974,261.44274 c -3.43055,-14.96992 -4.36485,-32.53593 -2.53434,-47.64864 6.53639,-53.9647 42.61924,-98.93417 95.05521,-118.46579 3.58818,-1.336538 14.2027,-4.647098 14.8998,-4.647098 0.0823,0 0.14951,1.311189 0.14951,2.913753 v 2.913759 l -2.22196,0.594101 c -1.22206,0.326775 -4.59203,1.393982 -7.4888,2.371608 -50.38114,17.002827 -86.854,60.131897 -94.15778,111.341337 -2.36359,16.57213 -1.74502,33.19468 1.82318,48.99154 0.54315,2.40466 0.98755,4.44144 0.98755,4.5262 0,0.0847 -1.30828,0.1541 -2.9073,0.1541 h -2.90732 z"
       id="path7100" />
    <path
       style="fill:#00ff00;fill-rule:evenodd;stroke-width:0.32918"
       d="m 222.41812,260.78436 c -5.80256,-24.31977 -4.72295,-48.54438 3.2018,-71.84327 12.28785,-36.12648 39.2852,-64.69305 75.58103,-79.97425 4.21601,-1.77501 12.86219,-4.79949 15.06916,-5.27127 l 1.06981,-0.22871 -0.007,2.90648 -0.007,2.90647 -3.53235,1.0992 c -23.74664,7.3895 -46.25134,22.76136 -61.87443,42.26344 -15.00555,18.73121 -23.75918,39.98099 -26.81801,65.1018 -0.55503,4.55826 -0.54768,20.42918 0.0119,25.18218 0.6456,5.48588 1.88606,12.48473 3.00352,16.94624 0.55132,2.20128 1.00243,4.14015 1.00243,4.30864 0,0.16849 -1.30915,0.30632 -2.9092,0.30632 h -2.90922 z"
       id="path7139" />
    <path
       style="fill:#00ff00;fill-rule:evenodd;stroke-width:0.32918"
       d="m 236.25577,264.24075 c -0.0798,-0.13575 -0.67472,-2.3207 -1.32203,-4.85537 -5.26078,-20.59997 -4.93802,-41.23368 0.96415,-61.63528 9.78131,-33.81028 34.58472,-61.83305 67.61655,-76.39279 4.00082,-1.76347 12.75323,-5.00016 13.52106,-5.00016 0.16748,0 0.30442,1.30613 0.30442,2.9025 v 2.90249 l -1.89275,0.58847 c -3.23341,1.00527 -9.92936,3.80862 -14.40158,6.02941 -36.71011,18.22925 -60.49188,52.96754 -63.72161,93.07894 -0.68521,8.51 -0.0735,20.14112 1.51371,28.77964 0.49075,2.67101 2.81655,12.03547 3.29656,13.27297 0.20271,0.52264 -0.0528,0.57606 -2.75497,0.57606 -1.63812,0 -3.04371,-0.11114 -3.12351,-0.24688 z"
       id="path7178" />
    <path
       style="fill:#00ff00;fill-rule:evenodd;stroke-width:0.32918"
       d="m 248.27989,260.94896 c -2.07103,-7.14208 -3.18059,-12.51106 -4.06468,-19.66844 -0.51665,-4.18274 -0.5232,-17.41326 -0.0102,-21.7258 2.59108,-21.80516 10.85305,-40.98964 24.80868,-57.6063 3.61823,-4.30814 11.35245,-11.70363 16.00793,-15.3068 7.99232,-6.1858 18.65841,-12.298 27.3812,-15.69073 5.55887,-2.16215 4.97874,-2.30522 4.86807,1.20064 l -0.095,3.00883 -3.1272,1.24793 c -13.12952,5.23937 -24.61937,12.81453 -34.74447,22.90671 -8.51448,8.48677 -14.09835,16.17192 -19.25354,26.49888 -6.73189,13.48545 -9.98554,26.49419 -10.41704,41.64909 -0.27862,9.78578 0.56175,18.03329 2.70782,26.57502 0.73841,2.93902 2.49868,8.83321 2.99785,10.03817 0.1293,0.31212 -0.57842,0.41147 -2.93117,0.41147 h -3.10161 z"
       id="path7217" />
    <path
       style="fill:#00ff00;fill-rule:evenodd;stroke-width:0.32918"
       d="m 261.12584,259.46767 c -5.64432,-17.03579 -6.39295,-34.21542 -2.22949,-51.16204 3.154,-12.83773 9.21097,-25.18117 17.49801,-35.6589 3.05234,-3.85926 12.14646,-12.87601 15.92802,-15.79251 3.96619,-3.05893 8.97988,-6.38046 13.27161,-8.79241 3.36103,-1.88888 10.75137,-5.37035 11.39999,-5.37035 0.2158,0 0.34594,1.0974 0.34594,2.91681 v 2.9168 l -2.7157,1.23382 c -9.03576,4.10518 -18.41516,10.54595 -25.88099,17.77233 -14.04678,13.5962 -22.94302,30.89223 -25.91179,50.3776 -0.75396,4.94844 -0.86238,18.092 -0.18873,22.87794 0.99308,7.05545 3.08346,15.27155 5.31425,20.88718 0.54655,1.37593 0.99375,2.57186 0.99375,2.65768 0,0.0859 -1.3864,0.15595 -3.08084,0.15595 h -3.08081 z"
       id="path7256" />
    <path
       style="fill:#00ff00;fill-rule:evenodd;stroke-width:0.32918"
       d="m 275.23861,261.81721 c -11.3727,-27.06247 -7.70674,-56.66271 9.93936,-80.25367 2.8712,-3.8385 11.20452,-12.26787 15.08244,-15.25631 4.02953,-3.10525 9.42459,-6.55738 13.54085,-8.66435 l 3.53866,-1.81131 v 3.11406 3.11408 l -2.7157,1.48118 c -18.752,10.22756 -32.83136,28.26444 -37.9221,48.58157 -1.60006,6.38594 -1.98649,9.88065 -1.98649,17.96597 0,8.43096 0.37989,11.58378 2.30053,19.0924 1.10818,4.3324 3.3283,10.48609 4.90749,13.60251 l 0.86365,1.70429 -3.21506,-0.003 -3.21503,-0.003 z"
       id="path7295" />
    <path
       style="fill:#00ff00;fill-rule:evenodd;stroke-width:0.32918"
       d="m 289.57137,263.05687 c -0.46116,-0.78691 -1.45586,-2.8237 -2.21046,-4.52621 -8.36919,-18.88235 -8.19432,-39.34347 0.49068,-57.40995 3.8404,-7.98881 7.50752,-13.14697 13.82043,-19.43977 4.25942,-4.24586 8.22774,-7.4334 13.03451,-10.46988 l 2.46883,-1.55962 0.0972,3.22584 c 0.0918,3.04605 0.0555,3.25336 -0.65225,3.7196 -15.37306,10.12718 -25.59092,25.38264 -28.77251,42.95784 -0.71263,3.93659 -0.97764,13.36675 -0.49162,17.49431 1.05682,8.97536 4.48458,19.18454 8.74286,26.03959 l 0.86905,1.39901 h -3.27916 -3.27917 z"
       id="path7334" />
    <path
       style="fill:#00ff00;fill-rule:evenodd;stroke-width:0.32918"
       d="m 303.28846,261.9365 c -9.20319,-14.0206 -11.94096,-31.22625 -7.47715,-46.99027 2.41932,-8.54399 7.31147,-17.05468 13.56741,-23.60268 2.36768,-2.47822 7.32039,-6.84637 7.76259,-6.84637 0.10926,0 0.19861,1.56627 0.19861,3.48063 v 3.48061 l -1.80686,1.6514 c -2.28259,2.08615 -5.49929,5.9447 -7.7216,9.26237 -9.67814,14.44826 -10.96417,33.84508 -3.3248,50.14707 1.32299,2.82322 4.21951,7.50264 6.08385,9.82873 1.80343,2.25005 1.90831,2.13964 -2.033,2.13964 h -3.57445 z"
       id="path7373" />
    <path
       style="fill:#00ff00;fill-rule:evenodd;stroke-width:0.32918"
       d="m 315.12928,257.24569 c -3.85604,-5.2731 -6.76103,-11.80433 -8.1992,-18.434 -0.85667,-3.94906 -0.85551,-13.17767 0.003,-17.1173 1.49307,-6.85841 5.15136,-14.55788 9.20353,-19.37041 l 1.2042,-1.43016 v 4.72816 4.72817 l -1.3117,2.61097 c -4.86029,9.6747 -5.3966,21.36107 -1.44971,31.58935 0.63339,1.64145 1.51781,3.61015 1.96536,4.37488 0.77994,1.33273 0.80994,1.59233 0.7226,6.25441 l -0.0911,4.86397 z"
       id="path7412" />
    <path
       style="fill:#ff0000;stroke-width:0.351896"
       d="m 102.41352,94.281051 c -13.504485,-1.56508 -24.79987,0.62892 -34.815033,6.762409 -5.908201,3.61829 -11.78722,9.6441 -16.113618,16.51598 -1.033001,1.64076 -1.935809,3.02707 -2.006239,3.08067 -0.0704,0.0535 -1.381235,-1.38652 -2.912904,-3.20025 -3.417646,-4.04706 -7.310223,-7.22467 -10.930395,-8.92275 -3.498251,-1.64088 -9.466528,-2.48481 -13.788563,-1.94972 -5.626719,0.69663 -12.996752,3.26985 -19.030292,6.64421 -1.54074,0.86171 -2.85175,1.49391 -2.91334,1.40488 -0.0615,-0.0891 0.6639,-1.42365 1.6122,-2.96585 2.43113,-3.95365 3.83865,-7.5414 4.41746,-11.25991 1.50726,-9.683249 -3.9329,-17.344344 -17.15829,-24.163155 -1.98218,-1.021989 -3.5925,-1.942624 -3.57849,-2.045881 0.014,-0.103271 1.81064,-0.948828 3.99252,-1.87906 7.69945,-3.282617 9.52697,-4.350359 16.34034,-9.547009 5.82988,-4.446532 6.48606,-5.033695 8.871795,-7.938844 4.785707,-5.827619 8.065902,-12.199764 9.995615,-19.417578 1.054661,-3.944823 2.166027,-12.260677 2.157723,-16.145371 l -0.0049,-2.279469 2.919815,0.958687 c 5.391958,1.77038 10.198849,2.906381 15.192447,3.590369 15.496161,2.12257 25.965356,-2.047418 34.526029,-13.7520634 1.904414,-2.603819 3.609848,-5.484912 10.429403,-17.6189909 l 1.615956,-2.8752847 3.618087,4.354748 c 6.095154,7.3361106 9.665454,10.4948286 14.683314,12.9906026 8.60806,4.281457 18.58896,2.182594 29.72303,-6.250404 l 2.32547,-1.761016 -1.50155,3.25649901 c -5.17244,11.21772939 -6.26303,20.86544939 -3.2671,28.90168739 0.54583,1.464089 1.46388,2.967505 3.21666,5.26759 2.6798,3.516221 5.01572,5.510214 9.34905,7.979434 1.25475,0.714975 2.15232,1.398194 1.99458,1.518237 -0.15775,0.120074 -1.74019,0.839983 -3.51654,1.599843 -11.32864,4.846011 -22.05291,11.641908 -27.94836,17.710713 -7.58444,7.807447 -10.83154,14.944539 -12.3503,27.145817 l -0.59963,4.81725 -4.5458,-0.52682 z"
       id="path1759" />
    <path
       style="fill:#00ff00;stroke-width:0.351896"
       d="m 101.71666,91.127091 c -6.946707,-1.06244 -16.089883,-0.51636 -22.81244,1.36249 -11.134201,3.11183 -20.026043,9.778559 -27.011533,20.252069 -1.311164,1.96586 -2.433387,3.61193 -2.493828,3.65792 -0.06059,0.0461 -1.395545,-1.47513 -2.966877,-3.38028 -3.210451,-3.89251 -5.203599,-5.56267 -8.780639,-7.35778 -8.205823,-4.118 -19.657149,-2.28471 -33.113747,5.30133 l -1.53522,0.86548 1.40532,-2.12707 c 4.51197,-6.82911 6.13687,-13.387469 4.64787,-18.759509 -0.4582,-1.65323 -0.98883,-2.57915 -2.99971,-5.2347 -3.12902,-4.132082 -5.61549,-6.017158 -12.64181,-9.583888 -1.71179,-0.868953 -3.10152,-1.659758 -3.08828,-1.757338 0.0132,-0.09753 1.15013,-0.626911 2.52643,-1.176277 7.50986,-2.997672 15.27356,-7.716142 20.38298,-12.387974 7.420954,-6.785391 12.24065,-14.667503 14.852745,-24.29011 0.771989,-2.843891 1.848322,-10.696574 1.835239,-13.389538 -0.0053,-1.087394 0.06519,-2.040159 0.156615,-2.117256 0.09141,-0.07711 0.926083,0.127264 1.854809,0.454129 0.928716,0.32687 3.52737,1.052394 5.774779,1.612272 12.796113,3.187805 22.719863,2.661385 30.683015,-1.627639 6.365004,-3.428246 10.699464,-8.635801 18.438333,-22.15241939 2.121772,-3.70587801 3.958008,-6.81424841 4.080518,-6.90748401 0.122509,-0.093243 1.996621,2.0126525 4.164702,4.679755 5.437329,6.688811 9.220659,9.764987 14.334769,11.655457 7.37499,2.7262164 16.63223,0.230613 26.30906,-7.092508 l 1.72412,-1.30460799 -1.40832,3.08849999 c -8.15648,17.8875474 -5.65132,30.6258854 7.47426,38.0054934 1.4678,0.825237 2.66011,1.547544 2.64959,1.605095 -0.0105,0.05755 -1.93312,0.988946 -4.27241,2.069734 -8.8223,4.076009 -12.52345,6.267148 -19.35857,11.460523 -5.08103,3.860659 -6.6796,5.232304 -8.23843,7.06918 -2.75877,3.250884 -4.66062,6.187231 -6.26475,9.672404 -1.78287,3.873529 -2.67743,7.166856 -3.60107,13.257367 l -0.73982,4.87822 -1.96764,-0.30094 z"
       id="path2145" />
    <path
       style="fill:#0000ff;stroke-width:0.351896"
       d="m 96.882543,87.787451 c -4.037999,-0.32811 -11.123931,0.0163 -14.936896,0.726 -3.840333,0.7148 -9.321501,2.65673 -12.981908,4.59939 -6.266329,3.32569 -13.679052,10.299669 -17.618057,16.575279 -0.700143,1.11546 -1.364961,2.09812 -1.477366,2.18367 -0.112421,0.0855 -1.219644,-1.01201 -2.460517,-2.43901 -1.240865,-1.42701 -3.065146,-3.25477 -4.053966,-4.06169 -7.827329,-6.387579 -18.408569,-6.104589 -31.632637,0.84599 -5.15281,2.70833 -4.9827,2.69084 -3.41728,0.35142 3.8839,-5.80418 5.4122,-11.207109 4.50008,-15.908839 -0.55623,-2.86724 -0.63177,-3.02338 -2.8449,-5.88057 -2.67392,-3.452029 -5.03888,-5.233547 -10.67324,-8.040033 -1.93159,-0.962135 -3.50573,-1.801034 -3.49809,-1.864254 0.008,-0.06321 1.6481,-0.862345 3.64542,-1.775865 5.93761,-2.715715 9.52533,-4.832116 14.12787,-8.334019 11.717706,-8.915295 17.397171,-18.717585 19.382225,-33.450726 0.697803,-5.17915 0.96836,-6.319637 1.44954,-6.110467 1.738764,0.755832 7.944402,2.088552 12.525811,2.690051 13.090381,1.718637 22.195907,-1.077894 29.653481,-9.107324 3.083218,-3.31963 4.529449,-5.397449 9.493005,-13.6387304 2.421893,-4.021204 4.50661,-7.389813 4.632714,-7.485784 0.126096,-0.09596 1.803607,1.76156201 3.7278,4.127821 2.10477,2.588315 4.32663,4.993379 5.577138,6.036994 2.66292,2.2223454 7.0391,4.4719234 9.76646,5.0204524 6.10113,1.227046 13.93637,-1.39623 21.61646,-7.2372864 l 2.45033,-1.863583 -1.7741,3.741394 c -3.29601,6.9509174 -4.81551,13.2642734 -4.43286,18.4180134 0.48673,6.555358 4.50765,12.213829 11.27083,15.860965 1.17986,0.636253 2.10016,1.191076 2.04514,1.232953 -0.055,0.04186 -1.76224,0.854598 -3.7938,1.806017 -7.72554,3.618033 -12.41327,6.400598 -18.37702,10.9083 -6.33076,4.785144 -8.48117,6.974574 -11.68561,11.897811 -3.09482,4.754828 -5.2496,11.04134 -6.0504,17.65184 -0.16572,1.36813 -0.39468,2.55855 -0.50879,2.6454 -0.11411,0.0869 -1.755201,0.0321 -3.646867,-0.12158 z"
       id="path2399" />
    <path
       style="fill:#ffdd55;stroke-width:0.351896"
       d="m 96.316751,85.023571 c -1.887158,-0.35746 -9.517403,-0.14499 -12.799882,0.35644 -12.959502,1.97968 -23.875873,8.93836 -31.648844,20.174689 l -1.764603,2.55084 -2.122207,-2.37525 c -3.902136,-4.36739 -7.135447,-6.388129 -11.487037,-7.179039 -5.791748,-1.05267 -13.859958,0.9583 -22.058601,5.498039 -3.563221,1.97303 -3.655101,1.96166 -2.183471,-0.26994 3.822968,-5.797219 5.30384,-11.402679 4.081064,-15.447789 -0.759485,-2.51248 -2.681224,-5.165886 -5.175844,-7.146415 -1.32723,-1.053723 -6.81885,-4.077964 -10.03304,-5.525186 -0.12388,-0.05579 1.23122,-0.747266 3.01132,-1.536637 8.68223,-3.850045 17.445025,-10.172373 22.424737,-16.17938 5.354073,-6.458592 8.661478,-14.117551 10.072802,-23.325537 0.442327,-2.88598 0.878224,-5.224249 0.968642,-5.196175 4.213159,1.308084 14.313884,2.802933 17.79335,2.633315 8.361246,-0.407621 13.465352,-2.270867 19.017176,-6.942213 3.976588,-3.34592 6.324826,-6.350989 11.712884,-14.989132 2.302143,-3.6908114 4.274956,-6.7784804 4.38403,-6.8614874 0.109064,-0.08301 1.468961,1.35407 3.021999,3.193499 5.489619,6.5019454 9.821394,9.4201554 14.927744,10.0564454 5.48445,0.683403 10.68518,-1.050277 17.44877,-5.816605 l 4.24237,-2.9896134 -1.77322,3.6192644 c -4.8095,9.816557 -5.63695,17.470222 -2.51812,23.292207 1.37172,2.560586 3.71501,4.799333 7.21588,6.89398 1.4761,0.883166 2.60694,1.664251 2.51301,1.73575 -0.0939,0.07154 -1.91485,0.97566 -4.04646,2.009244 -9.0956,4.410352 -18.62966,10.815351 -23.1157,15.529166 -5.39993,5.674097 -8.481303,11.8803 -10.161046,20.465438 -0.407823,2.084316 -0.791415,3.827662 -0.852436,3.874112 -0.06103,0.0464 -0.553892,5.3e-4 -1.095267,-0.10203 z"
       id="path2627" />
    <path
       style="fill:#000000;stroke-width:0.351896"
       d="m 38.317265,98.050311 c -4.190812,-2.3905 -5.633325,-5.61076 -3.306565,-7.38156 1.550008,-1.17964 2.729548,-0.18725 2.720222,2.28862 -0.0032,0.84105 0.14697,1.11552 0.768572,1.40503 1.208278,0.56277 1.526154,0.43558 4.444367,-1.77813 2.9486,-2.23675 3.777975,-3.32021 4.472362,-5.84241 0.313906,-1.14019 0.239154,-1.77583 -0.331131,-2.815551 -0.412341,-0.751761 -1.046442,-1.484574 -1.440524,-1.664764 -0.906339,-0.414426 -5.397705,0.582583 -7.617303,1.690919 -2.707817,1.352116 -8.498038,1.638906 -11.98018,0.593366 -1.956455,-0.587439 -2.597861,-1.396703 -3.137029,-3.958055 -0.439353,-2.087121 0.175342,-7.019317 1.14373,-9.177211 0.986698,-2.198696 3.599581,-4.924259 6.230184,-6.498856 3.10492,-1.858503 7.60615,-1.462587 7.953169,0.699545 0.138779,0.864567 0.115418,0.887343 -0.984471,0.961511 -3.84776,0.259487 -4.495545,0.486471 -6.632528,2.324017 -3.015926,2.59334 -4.493246,6.220286 -3.890986,9.55274 0.701762,3.883091 2.510883,4.098547 10.976537,1.307298 4.618127,-1.522669 6.238403,-1.786229 8.231441,-1.338973 2.918814,0.655002 4.98638,3.476417 5.226197,7.131694 0.218114,3.32433 -1.638756,6.06527 -7.614574,11.24 l -2.955325,2.55912 z"
       id="path23238" />
    <path
       style="fill:#000000;stroke-width:0.351896"
       d="M 64.044902,81.884812 C 62.522409,82.531078 62.183984,82.497106 61.017818,81.580944 60.434771,81.122885 56.227962,76.533988 51.669365,71.383389 41.206366,59.561614 41.664065,60.582551 44.54295,55.487114 c 2.463079,-4.359472 4.063217,-6.272567 7.353023,-8.791118 2.570388,-1.967812 4.038021,-2.53842 4.606752,-1.791122 0.48285,0.634442 -0.159985,1.634723 -3.311391,5.152706 -5.621942,6.275898 -7.128151,9.399754 -5.350606,11.097084 0.448041,0.427819 2.047841,2.094029 3.55512,3.702664 2.61399,2.789772 2.76197,2.896364 3.205354,2.308657 1.110702,-1.472239 4.537468,-5.462033 6.06889,-7.066029 1.832671,-1.919508 2.936391,-2.374653 3.610508,-1.488897 0.807809,1.061443 0.08335,2.475965 -3.557653,6.946468 -1.320176,1.620928 -2.773077,3.437882 -3.228671,4.037673 l -0.828355,1.090533 2.606382,3.415777 c 1.433499,1.878685 2.852773,3.507372 3.153938,3.619307 1.166695,0.433616 5.830097,-4.607727 8.485589,-9.173286 1.457275,-2.50549 1.927249,-2.833291 3.317491,-2.313945 1.087291,0.406169 1.092887,1.896512 0.01594,4.241254 -1.799101,3.917034 -7.456439,10.245243 -10.200355,11.409972 z"
       id="path23277" />
    <path
       style="fill:#000000;stroke-width:0.351896"
       d="M 100.23666,55.862975 C 98.822647,55.535567 96.489831,53.377869 91.175538,47.482034 85.20239,40.855249 82.310419,37.859981 80.407979,36.329847 c -1.152445,-0.92691 -1.243797,-0.932816 -2.276048,-0.147217 -0.591477,0.450146 -1.903516,1.636729 -2.915633,2.636848 -5.34002,5.276717 -6.97996,6.720252 -7.962016,7.008465 -1.862456,0.546591 -2.768888,-0.889492 -1.552695,-2.459995 0.342711,-0.442549 2.200055,-2.427118 4.127444,-4.410156 1.927388,-1.98304 6.138341,-6.392594 9.357689,-9.799011 6.91046,-7.31203 8.450859,-8.59133 10.485889,-8.708565 3.260017,-0.187805 2.852266,1.553654 -1.221147,5.21535 -1.568101,1.409605 -3.378094,3.177825 -4.022213,3.929381 -2.463207,2.874067 -2.352027,2.601454 -1.401012,3.435325 1.962993,1.721168 4.760852,4.686766 11.652106,12.350659 5.258151,5.847696 7.301017,8.295835 7.391157,8.857461 0.14623,0.911078 -0.90324,1.840292 -1.83484,1.624583 z"
       id="path23316" />
    <path
       style="fill:#000000;stroke-width:0.351896"
       d="m 114.28506,30.44918 c -0.30776,-0.190323 -2.62145,-2.558659 -5.14153,-5.262974 -3.58806,-3.850373 -4.56355,-5.045512 -4.49704,-5.509694 0.0637,-0.445041 0.69434,-0.946379 2.53042,-2.011758 1.34504,-0.780451 2.54866,-1.405007 2.67471,-1.387907 0.47057,0.06385 5.86257,12.116967 5.98539,13.379562 0.0607,0.624747 -0.97122,1.151897 -1.55195,0.792771 z"
       id="path23355" />
    <path
       style="fill:#000000;stroke-width:0.351896"
       d="m 120.78542,38.492 c -1.63148,0.50501 -2.54839,0.371398 -3.18416,-0.463979 -0.58532,-0.769088 -0.82105,-2.325603 -0.53147,-3.509153 0.42841,-1.750937 3.39708,-2.603481 4.41379,-1.267559 1.00011,1.314106 1.35618,4.616086 0.52448,4.86361 -0.0626,0.01839 -0.6128,0.188336 -1.22264,0.377081 z"
       id="path23394" />
  </g>
</svg>
