<?xml version="1.0" encoding="UTF-8" standalone="no"?>
<!-- Created with Inkscape (http://www.inkscape.org/) -->

<svg
   width="300"
   height="175"
   viewBox="0 0 79.374999 46.302085"
   version="1.1"
   id="svg175949"
   sodipodi:docname="squiggle_temp.svg"
   inkscape:version="1.1.1 (3bf5ae0, 2021-09-20)"
   xmlns:inkscape="http://www.inkscape.org/namespaces/inkscape"
   xmlns:sodipodi="http://sodipodi.sourceforge.net/DTD/sodipodi-0.dtd"
   xmlns:xlink="http://www.w3.org/1999/xlink"
   xmlns="http://www.w3.org/2000/svg"
   xmlns:svg="http://www.w3.org/2000/svg">
  <sodipodi:namedview
     id="namedview175951"
     pagecolor="#505050"
     bordercolor="#ffffff"
     borderopacity="1"
     inkscape:pageshadow="0"
     inkscape:pageopacity="0"
     inkscape:pagecheckerboard="1"
     inkscape:document-units="px"
     showgrid="false"
     units="px"
     inkscape:snap-global="false"
     inkscape:snap-bbox="true"
     inkscape:zoom="1.5037598"
     inkscape:cx="170.57245"
     inkscape:cy="73.48248"
     inkscape:window-width="1920"
     inkscape:window-height="1016"
     inkscape:window-x="0"
     inkscape:window-y="27"
     inkscape:window-maximized="1"
     inkscape:current-layer="layer1"
     showguides="false" />
  <defs
     id="defs175946">
    <pattern
       inkscape:collect="always"
       xlink:href="#Strips1_1"
       id="pattern4985"
       patternTransform="matrix(37.795275,0,0,37.795275,-126.06812,-21.035133)" />
    <pattern
       inkscape:collect="always"
       patternUnits="userSpaceOnUse"
       width="2"
       height="1"
       patternTransform="translate(0,0) scale(10,10)"
       id="Strips1_1"
       inkscape:stockid="Stripes 1:1"
       inkscape:isstock="true">
      <rect
         style="fill:black;stroke:none"
         x="0"
         y="-0.5"
         width="1"
         height="2"
         id="rect3088" />
    </pattern>
    <linearGradient
       id="linearGradient4947"
       inkscape:swatch="solid">
      <stop
         style="stop-color:#ffffff;stop-opacity:1;"
         offset="0"
         id="stop4945" />
    </linearGradient>
    <linearGradient
       id="linearGradient4216"
       inkscape:swatch="solid">
      <stop
         style="stop-color:#ff0000;stop-opacity:1;"
         offset="0"
         id="stop4214" />
    </linearGradient>
    <pattern
       patternUnits="userSpaceOnUse"
       width="61.095859"
       height="131.41569"
       patternTransform="translate(126.06812,21.035133)"
       id="pattern4982">
      <path
         style="mix-blend-mode:multiply;fill:url(#pattern4985);fill-opacity:1;stroke:none;stroke-width:1.4886;stroke-linecap:butt;stroke-linejoin:round;stroke-miterlimit:4;stroke-dasharray:none;stroke-dashoffset:0;stroke-opacity:1"
         d="M 35.160881,130.90061 C 31.769141,130.22696 26.75788,128.52526 23.833248,127.05405 19.02129,124.63344 11.8462,118.91686 9.6345911,115.74163 4.9206207,108.9737 3.2930277,105.32332 2.5607404,99.876265 c -0.3792226,-2.820801 -0.364611,-3.772301 0.112252,-7.315 0.47184,-3.50539 1.1693518,-5.976162 5.0096012,-17.745433 L 12.144035,61.142805 12.538844,53.666412 C 13.229262,40.591931 12.361736,37.357963 5.1811322,26.238888 1.6001319,20.693735 0.71056345,18.60163 0.23498172,14.606404 -0.1271726,11.563945 -0.1063852,11.228138 0.54981636,9.5201242 0.98489667,8.3877437 1.8924482,7.0274918 2.9331675,5.9479302 4.3438686,4.4845765 5.2380784,3.9408877 8.4992475,2.5637148 11.722697,1.2024726 13.06438,0.83003797 16.374619,0.37760963 c 3.869038,-0.52880125 4.11408,-0.52414487 8.082731,0.15356221 5.842189,0.99765166 12.717849,3.86686866 18.61183,7.76672496 6.288359,4.1607982 7.863069,6.1268672 11.464471,14.3136912 2.035547,4.627295 3.084688,10.342292 2.754519,15.004777 -0.356258,5.030427 -1.510012,11.064559 -3.08347,16.126246 -3.90367,12.55776 -6.323381,22.201965 -6.596172,26.290186 -0.18017,2.7004 -0.08852,3.640135 0.659872,6.764583 1.602217,6.689159 2.536048,9.245121 5.112759,13.99397 7.136421,13.15235 7.7147,14.51271 7.7147,18.14844 0,2.03203 -0.159987,2.63324 -1.308499,4.91754 -2.779442,5.52802 -6.30122,7.16207 -16.14774,7.49226 -4.394612,0.14737 -5.869451,0.0693 -8.47875,-0.44898 z"
         id="path4643" />
    </pattern>
  </defs>
  <g
     inkscape:label="Layer 1"
     inkscape:groupmode="layer"
     id="layer1">
    <path
       style="fill:#ff0000;fill-opacity:1;stroke:none;stroke-width:0.655264px;stroke-linecap:butt;stroke-linejoin:miter;stroke-opacity:1"
       d="m 57.946601,20.532246 -0.723748,2.319917 -0.787419,2.359048 -0.882932,2.768473 -0.27539,2.111823 0.285513,1.855248 0.492805,1.256222 0.751459,1.230846 0.876648,1.280292 1.312702,1.06087 1.407425,0.996705 1.345615,0.674113 1.616137,0.556149 1.59725,0.277107 2.631284,-0.03264 1.773583,-0.490209 0.873834,-0.764107 0.706394,-1.409044 0.0189,-1.285321 -0.41491,-1.1784 v 0 l -0.69077,-1.335591 -0.84866,-1.502013 -0.762599,-1.452999 -0.547919,-1.873085 -0.334928,-1.485253 0.06829,-1.531015 0.577959,-2.328586 0.727319,-2.618542 0.738468,-2.293358 0.380586,-2.067603 0.168408,-1.96786 L 69.662422,11.374167 68.815944,9.4436418 68.005502,8.0228479 66.856121,7.039627 65.349275,6.0623065 63.905011,5.3756125 62.383318,4.7461295 60.125947,4.3706987 l -2.201831,0.3205948 -2.011471,0.864925 -0.914888,1.014176 -0.320243,0.9711435 0.217667,1.6465248 0.473476,1.1231072 0.757359,1.143258 0.772592,1.227327 0.675558,1.228144 0.355913,1.246009 0.212938,1.518323 z"
       id="path178809"
       sodipodi:nodetypes="cccccccccccccccccccccccccccccccccccccccccccccccccccc" />
    <path
       style="fill:none;fill-opacity:1;stroke:#ff0000;stroke-width:1.18454;stroke-linecap:butt;stroke-linejoin:miter;stroke-miterlimit:4;stroke-dasharray:none;stroke-opacity:1"
       sodipodi:type="inkscape:offset"
       inkscape:radius="0"
       inkscape:original="M 20.447266 3.2480469 L 18.246094 3.5703125 L 16.234375 4.4335938 L 15.318359 5.4492188 L 15 6.4199219 L 15.216797 8.0664062 L 15.689453 9.1894531 L 16.447266 10.332031 L 17.220703 11.560547 L 17.896484 12.787109 L 18.251953 14.033203 L 18.464844 15.552734 L 18.267578 19.410156 L 17.544922 21.730469 L 16.757812 24.089844 L 15.875 26.857422 L 15.599609 28.96875 L 15.884766 30.824219 L 16.376953 32.082031 L 17.128906 33.3125 L 18.005859 34.591797 L 19.318359 35.652344 L 20.724609 36.650391 L 22.070312 37.324219 L 23.6875 37.880859 L 25.285156 38.15625 L 27.916016 38.125 L 29.689453 37.634766 L 30.5625 36.871094 L 31.269531 35.460938 L 31.289062 34.175781 L 30.873047 32.998047 L 30.181641 31.662109 L 29.333984 30.160156 L 28.570312 28.707031 L 28.023438 26.833984 L 27.6875 25.347656 L 27.755859 23.818359 L 28.333984 21.488281 L 29.0625 18.871094 L 29.800781 16.576172 L 30.181641 14.509766 L 30.349609 12.541016 L 29.984375 10.251953 L 29.136719 8.3222656 L 28.326172 6.9003906 L 27.177734 5.9179688 L 25.669922 4.9414062 L 24.226562 4.2539062 L 22.705078 3.625 L 20.447266 3.2480469 z "
       xlink:href="#path178809-3"
       id="path5088"
       inkscape:href="#path178809-3"
       d="m 15.470703,4.4960938 -2.203125,0.3203124 -2.011719,0.8652344 -0.914062,1.0136719 -0.320313,0.9707031 0.216797,1.6464844 0.47461,1.123047 0.757812,1.142578 0.771485,1.228516 0.675781,1.228515 0.355469,1.246094 0.21289,1.517578 -0.195312,3.857422 -0.72461,2.320312 -0.787109,2.359376 -0.882813,2.767578 -0.27539,2.113281 0.285156,1.853515 0.492188,1.257813 0.751953,1.230469 0.876953,1.279297 1.3125,1.0625 1.408203,0.996093 1.345703,0.673828 1.615234,0.556641 1.597657,0.277344 2.630859,-0.0332 1.773438,-0.490235 0.875,-0.763671 0.705078,-1.410157 0.01953,-1.285156 -0.414063,-1.177734 -0.691406,-1.335938 -0.849609,-1.501953 -0.761719,-1.453125 -0.548828,-1.873047 -0.333984,-1.484375 0.06836,-1.53125 0.578125,-2.330078 0.726562,-2.617187 0.738282,-2.292969 0.380859,-2.06836 0.167969,-1.96875 L 25.005859,11.498047 24.160156,9.5683594 23.349609,8.1464844 22.199219,7.1640625 20.693359,6.1875 19.248047,5.5 17.726562,4.8710938 Z"
       transform="translate(-4.8256586,0.99255592)" />
    <path
       style="fill:none;fill-opacity:1;stroke:#ff0000;stroke-width:1.18454;stroke-linecap:butt;stroke-linejoin:miter;stroke-miterlimit:4;stroke-dasharray:none;stroke-opacity:1"
       sodipodi:type="inkscape:offset"
       inkscape:radius="0"
       inkscape:original="M 20.447266 3.2480469 L 18.246094 3.5703125 L 16.234375 4.4335938 L 15.318359 5.4492188 L 15 6.4199219 L 15.216797 8.0664062 L 15.689453 9.1894531 L 16.447266 10.332031 L 17.220703 11.560547 L 17.896484 12.787109 L 18.251953 14.033203 L 18.464844 15.552734 L 18.267578 19.410156 L 17.544922 21.730469 L 16.757812 24.089844 L 15.875 26.857422 L 15.599609 28.96875 L 15.884766 30.824219 L 16.376953 32.082031 L 17.128906 33.3125 L 18.005859 34.591797 L 19.318359 35.652344 L 20.724609 36.650391 L 22.070312 37.324219 L 23.6875 37.880859 L 25.285156 38.15625 L 27.916016 38.125 L 29.689453 37.634766 L 30.5625 36.871094 L 31.269531 35.460938 L 31.289062 34.175781 L 30.873047 32.998047 L 30.181641 31.662109 L 29.333984 30.160156 L 28.570312 28.707031 L 28.023438 26.833984 L 27.6875 25.347656 L 27.755859 23.818359 L 28.333984 21.488281 L 29.0625 18.871094 L 29.800781 16.576172 L 30.181641 14.509766 L 30.349609 12.541016 L 29.984375 10.251953 L 29.136719 8.3222656 L 28.326172 6.9003906 L 27.177734 5.9179688 L 25.669922 4.9414062 L 24.226562 4.2539062 L 22.705078 3.625 L 20.447266 3.2480469 z "
       xlink:href="#path178809-3"
       id="path8627"
       inkscape:href="#path178809-3"
       d="m 15.470703,4.4960938 -2.203125,0.3203124 -2.011719,0.8652344 -0.914062,1.0136719 -0.320313,0.9707031 0.216797,1.6464844 0.47461,1.123047 0.757812,1.142578 0.771485,1.228516 0.675781,1.228515 0.355469,1.246094 0.21289,1.517578 -0.195312,3.857422 -0.72461,2.320312 -0.787109,2.359376 -0.882813,2.767578 -0.27539,2.113281 0.285156,1.853515 0.492188,1.257813 0.751953,1.230469 0.876953,1.279297 1.3125,1.0625 1.408203,0.996093 1.345703,0.673828 1.615234,0.556641 1.597657,0.277344 2.630859,-0.0332 1.773438,-0.490235 0.875,-0.763671 0.705078,-1.410157 0.01953,-1.285156 -0.414063,-1.177734 -0.691406,-1.335938 -0.849609,-1.501953 -0.761719,-1.453125 -0.548828,-1.873047 -0.333984,-1.484375 0.06836,-1.53125 0.578125,-2.330078 0.726562,-2.617187 0.738282,-2.292969 0.380859,-2.06836 0.167969,-1.96875 L 25.005859,11.498047 24.160156,9.5683594 23.349609,8.1464844 22.199219,7.1640625 20.693359,6.1875 19.248047,5.5 17.726562,4.8710938 Z"
       transform="translate(-4.8256586,0.99255592)" />
    <path
       style="fill:none;fill-opacity:1;stroke:none;stroke-width:0.336969;stroke-linecap:butt;stroke-linejoin:round;stroke-miterlimit:4;stroke-dasharray:none;stroke-dashoffset:0;stroke-opacity:1"
       d="m 42.917236,39.115469 c -0.580552,-0.126203 -1.785812,-0.577009 -2.310444,-0.864174 -0.471411,-0.258035 -1.331785,-0.90175 -2.155162,-1.612444 -0.490127,-0.423055 -0.711923,-0.688273 -1.09028,-1.303743 -0.925869,-1.506095 -1.217617,-2.231045 -1.387295,-3.447193 -0.102243,-0.732803 -0.10053,-0.861314 0.02407,-1.807071 0.111178,-0.843908 0.257811,-1.428301 0.85675,-3.414501 1.304144,-4.32481 1.172448,-3.728154 1.274629,-5.774769 0.155935,-3.123316 -0.03934,-3.898086 -1.670098,-6.626167 -0.670501,-1.121673 -0.871428,-1.642547 -0.988173,-2.56169 -0.0873,-0.687331 -0.08385,-0.758514 0.05693,-1.173116 0.08295,-0.244299 0.300628,-0.6294239 0.487497,-0.862513 0.297321,-0.3708538 0.439815,-0.4689186 1.193597,-0.8214387 0.7305,-0.3416307 0.98752,-0.4199003 1.753391,-0.5339561 0.879223,-0.1309359 0.9158,-0.1302402 1.803706,0.034297 0.727543,0.1348203 1.083061,0.2510476 1.802602,0.5893149 1.144015,0.5378191 1.401188,0.6824649 2.154119,1.2115669 0.989514,0.695355 1.467204,1.199089 1.870578,1.97256 0.981578,1.882186 1.373499,3.537793 1.230084,5.196284 -0.110251,1.274969 -0.338455,2.540921 -0.644415,3.574858 -0.341173,1.152936 -0.840337,3.078716 -1.18522,4.572607 -0.400571,1.735096 -0.358419,2.527481 0.252484,4.746111 0.178516,0.648324 0.515404,1.417507 1.183528,2.702232 1.029852,1.980289 1.205721,2.482286 1.193362,3.40634 -0.008,0.600628 -0.03291,0.707526 -0.292653,1.257093 -0.408495,0.864327 -0.77393,1.18106 -1.673944,1.450867 -0.647226,0.194022 -0.801971,0.209732 -1.982862,0.201277 -0.734011,-0.0052 -1.484041,-0.05334 -1.756783,-0.112632 z"
       id="path4487" />
    <rect
       style="fill:none;stroke:none;stroke-width:0.226366"
       width="13.248902"
       height="31.052963"
       x="35.933277"
       y="8.5629711"
       id="rect4987" />
    <path
       id="path8648"
       style="mix-blend-mode:color-dodge;fill:none;stroke:#ff0000;stroke-width:1.2483"
       d="m 38.124279,5.4037582 -2.359375,0.033203 -1.589843,0.4785156 -0.783204,0.7460938 -0.634765,1.3769531 -0.01563,1.2539063 0.371094,1.152344 0.61914,1.304687 0.761719,1.466797 0.683594,1.419922 0.490234,1.830078 0.300781,1.451172 -0.0625,1.49414 -0.517578,2.275391 -0.652344,2.558594 -0.662109,2.240234 -0.341797,2.019531 -0.15039,1.921875 0.328125,2.236329 0.757812,1.886718 0.726563,1.386719 1.03125,0.960937 1.349609,0.955079 1.294922,0.669921 1.363281,0.615235 2.025391,0.367187 1.972656,-0.3125 1.804687,-0.845703 0.820313,-0.990234 0.287109,-0.949219 -0.195312,-1.607422 -0.425781,-1.097656 -0.677735,-1.117188 -0.693359,-1.199218 -0.605469,-1.199219 -0.318359,-1.216797 -0.191407,-1.482422 0.175782,-3.769531 0.65039,-2.265625 0.705078,-2.304688 0.792969,-2.705078 0.246094,-2.0625 -0.255859,-1.8125 L 46.108649,11.341258 45.434821,10.138133 44.649665,8.8881331 43.471936,7.8510238 42.210217,6.8783675 41.005139,6.2182113 39.55592,5.6752425 Z" />
    <path
       style="fill:#ff0000;fill-opacity:1;stroke:#ff0000;stroke-width:0.0167687;stroke-opacity:1"
       d="m 33.552418,7.0665227 0.04365,-0.1098779 4.042239,0.00166 4.042244,0.00166 0.183911,0.1222505 0.183909,0.1222497 h -4.270524 c -2.348792,0 -4.270222,-0.00577 -4.269831,-0.013748 0,-0.00783 0.02033,-0.063777 0.04437,-0.1242186 z"
       id="path7172" />
    <path
       style="fill:#ff0000;fill-opacity:1;stroke:#ff0000;stroke-width:0.016749;stroke-opacity:1"
       d="m 33.047015,9.1286789 0.0052,-0.1191242 h 5.626071 5.62607 l 0.06495,0.065581 c 0.03572,0.03606 0.07693,0.091818 0.09156,0.1239153 l 0.0266,0.058338 H 38.76178 c -3.149125,0 -5.724404,-0.00272 -5.722846,-0.00526 0.0015,-0.00253 0.0052,-0.058369 0.0081,-0.1238977 z"
       id="path7211" />
    <path
       style="fill:#ff0000;fill-opacity:1;stroke:#ff0000;stroke-width:0.0167495;stroke-opacity:1"
       d="m 39.671979,11.063104 h 5.9256 l 0.05515,0.11429 c 0.03036,0.06284 0.05513,0.118604 0.05513,0.123903 0,0.0052 -2.668479,0.0094 -5.929952,0.0092 h -5.929969 l -0.05079,-0.123903 -0.05079,-0.123921 z"
       id="path7250" />
    <path
       style="fill:#ff0000;fill-opacity:1;stroke:#ff0000;stroke-width:0.0167476;stroke-opacity:1"
       d="m 40.55537,13.116147 h 5.767226 l 0.0098,0.09054 c 0.0055,0.04979 0.01322,0.105531 0.01738,0.123876 0.0072,0.03174 -0.272644,0.03332 -5.729912,0.03282 h -5.737449 l -0.04714,-0.123876 -0.04718,-0.123894 z"
       id="path7289" />
    <path
       style="fill:#ff0000;fill-opacity:1;stroke:#ff0000;stroke-width:0.0167507;stroke-opacity:1"
       d="m 41.020196,15.169067 h 5.379188 v 0.05242 c 0,0.02883 -0.0045,0.0846 -0.0093,0.123936 l -0.0092,0.07148 h -5.345905 -5.34588 l -0.02399,-0.110881 c -0.01318,-0.06098 -0.02399,-0.116753 -0.02399,-0.123936 0,-0.0071 2.420631,-0.01286 5.379183,-0.01253 z"
       id="path7328" />
    <path
       style="fill:#ff0000;fill-opacity:1;stroke:#ff0000;stroke-width:0.0167505;stroke-opacity:1"
       d="m 41.07846,17.222029 h 4.937078 l -0.01328,0.04529 c -0.0073,0.0249 -0.02063,0.08065 -0.02967,0.123921 l -0.01633,0.07862 h -4.890197 -4.890199 l -0.01723,-0.09677 c -0.0094,-0.05323 -0.01723,-0.108993 -0.01723,-0.123922 0,-0.02343 0.675963,-0.02709 4.937092,-0.02669 z"
       id="path7367" />
    <path
       style="fill:#ff0000;fill-opacity:1;stroke:#ff0000;stroke-width:0.0235857;stroke-opacity:1"
       d="m 36.216113,19.357233 0.0084,-0.08687 h 4.587694 c 2.523232,0 4.587703,0.008 4.587703,0.01737 0,0.0093 -0.01087,0.06345 -0.02414,0.120281 l -0.0241,0.103347 h -4.575317 c -3.648159,0 -4.574646,-0.0073 -4.571982,-0.03384 0.002,-0.01837 0.007,-0.0725 0.01177,-0.12028 z"
       id="path7673" />
    <path
       style="fill:#ff0000;fill-opacity:1;stroke:#ff0000;stroke-width:0.0224504;stroke-opacity:1"
       d="m 35.767446,21.401964 0.02074,-0.0908 h 4.496038 4.496055 l -0.01283,0.05945 c -0.007,0.0327 -0.02189,0.0872 -0.03296,0.121069 l -0.02014,0.06161 h -4.485967 c -3.576046,0 -4.48554,-0.0066 -4.483818,-0.03066 0.0015,-0.01663 0.01152,-0.07111 0.02289,-0.121072 z"
       id="path7712" />
    <path
       style="fill:#ff0000;fill-opacity:1;stroke:#ff0000;stroke-width:0.0238915;stroke-opacity:1"
       d="m 35.249688,23.478778 0.02188,-0.102848 h 4.458809 4.45882 l -0.02559,0.116573 -0.02558,0.116573 -4.457688,0.0065 c -2.451734,0.0036 -4.456512,-0.0028 -4.455059,-0.01412 0.0015,-0.01137 0.01242,-0.06691 0.02449,-0.123495 z"
       id="path7751" />
    <path
       style="fill:#ff0000;fill-opacity:1;stroke:#ff0000;stroke-width:0.0236063;stroke-opacity:1"
       d="m 34.686226,25.504158 0.02169,-0.08702 h 4.658852 4.658842 v 0.120489 l -1e-5,0.120488 h -4.682666 c -3.733402,0 -4.682252,-0.0073 -4.680548,-0.0339 0.0015,-0.0184 0.01187,-0.07262 0.02383,-0.120488 z"
       id="path7790" />
    <path
       style="fill:#ff0000;fill-opacity:1;stroke:#ff0000;stroke-width:0.0242568;stroke-opacity:1"
       d="m 34.199966,27.577661 0.01338,-0.0848 h 4.859047 4.859048 l 0.0064,0.120163 0.0064,0.120163 h -4.881244 c -3.892446,0 -4.880766,-0.0077 -4.878793,-0.03582 0.0015,-0.01943 0.0085,-0.07351 0.01582,-0.120164 z"
       id="path7829" />
    <path
       style="fill:#ff0000;fill-opacity:1;stroke:#ff0000;stroke-width:0.0236054;stroke-opacity:1"
       d="m 39.101271,29.523037 h 5.149001 l 0.02284,0.08432 c 0.01258,0.04639 0.02284,0.100591 0.02284,0.120497 0,0.03026 -0.842457,0.03608 -5.171844,0.03567 h -5.171844 v -0.120478 l 9e-6,-0.120479 z"
       id="path7868" />
    <path
       style="fill:#ff0000;fill-opacity:1;stroke:#ff0000;stroke-width:0.0236279;stroke-opacity:1"
       d="m 39.576956,31.58711 h 5.525188 l 0.0548,0.106716 c 0.0301,0.0587 0.05478,0.113032 0.05478,0.120724 0,0.0077 -2.505305,0.01381 -5.567358,0.01348 h -5.567361 v -0.07827 c 1e-5,-0.04306 -0.0057,-0.09739 -0.01268,-0.120722 -0.01152,-0.03862 0.48286,-0.04237 5.512575,-0.04191 z"
       id="path7907" />
    <path
       style="fill:#ff0000;fill-opacity:1;stroke:#ff0000;stroke-width:0.0236283;stroke-opacity:1"
       d="m 40.47191,33.628581 h 5.837436 l 0.05478,0.10672 c 0.03015,0.05871 0.05478,0.113036 0.05478,0.120711 0,0.0077 -2.63554,0.01381 -5.856739,0.01347 h -5.856752 l -0.02074,-0.07376 c -0.01136,-0.04057 -0.02735,-0.09492 -0.03545,-0.120709 -0.01403,-0.04466 0.271456,-0.04693 5.822665,-0.04642 z"
       id="path7946" />
    <path
       style="fill:#ff0000;fill-opacity:1;stroke:#ff0000;stroke-width:0.0235816;stroke-opacity:1"
       d="m 41.275943,35.670018 c 5.1409,0 5.659969,0.0044 5.671443,0.04278 0.0069,0.02326 0.01268,0.07737 0.01268,0.120249 v 0.07797 h -5.580853 -5.580847 l -0.09059,-0.09533 c -0.04983,-0.05241 -0.0906,-0.106523 -0.0906,-0.120232 0,-0.01543 2.170843,-0.02474 5.658817,-0.02442 z"
       id="path7985" />
    <path
       style="fill:#ff0000;fill-opacity:1;stroke:none;stroke-width:0.0217292;stroke-opacity:1"
       d="m 42.292814,37.734873 c 2.212489,-0.0014 4.022699,0.0037 4.022699,0.01001 0,0.0062 -0.03386,0.05213 -0.07529,0.102069 l -0.07528,0.09078 h -3.761476 -3.761474 l -0.185933,-0.10046 -0.185944,-0.10046 z"
       id="path8024" />
  </g>
</svg>
